<svg width="62" height="65" viewBox="0 0 62 65" fill="none" xmlns="http://www.w3.org/2000/svg">
<path fill-rule="evenodd" clip-rule="evenodd" d="M15.7129 6.688C15.5585 6.77902 15.38 6.82214 15.2015 6.82214C14.7141 6.82693 14.2895 6.50116 14.1689 6.02687C14.0483 5.56217 14.2606 5.06873 14.69 4.83877C19.4041 2.26136 24.7019 0.91037 30.0867 0.91037C30.6753 0.91037 31.1482 1.38465 31.1482 1.96433C31.1482 2.54401 30.6753 3.01829 30.0867 3.01829C25.059 3.01829 20.1182 4.28305 15.7129 6.688ZM3.50575 32.5867C3.5154 42.1538 8.73126 50.9735 17.1509 55.6349L11.5249 62.1503H7.76143C7.17277 62.1503 6.69992 62.6246 6.69992 63.2043C6.69992 63.7888 7.1776 64.2583 7.76143 64.2583H18.3958C18.9844 64.2583 19.4573 63.784 19.4573 63.2043C19.4573 62.6198 18.9796 62.1503 18.3958 62.1503H14.3283L19.1099 56.6122C25.8263 59.6496 33.5078 59.7741 40.3159 56.9524L44.7983 62.1455H40.7308C40.1422 62.1455 39.6693 62.6198 39.6693 63.1995C39.6693 63.784 40.147 64.2535 40.7308 64.2535H51.3652C51.9538 64.2535 52.4267 63.7792 52.4267 63.1995C52.4267 62.615 51.949 62.1455 51.3652 62.1455H47.6017L42.3182 56.023C46.4388 53.9055 49.9321 50.7532 52.446 46.8775C52.7451 46.3888 52.6004 45.7516 52.1131 45.4402C51.6305 45.1288 50.984 45.2582 50.6559 45.7325C44.0746 55.884 30.9794 59.6927 19.9205 54.6672C8.8567 49.6465 3.19213 37.32 6.62754 25.736C10.0581 14.152 21.5369 6.83171 33.5753 8.55159C45.6089 10.2715 54.5449 20.5093 54.5497 32.5867C54.5497 32.9268 54.5449 33.2622 54.5304 33.5975C54.5063 34.182 54.9646 34.6707 55.5485 34.6946C56.1371 34.7186 56.6341 34.2635 56.6582 33.6838C56.6727 33.3245 56.6775 32.9508 56.6775 32.5819C56.6775 18.0037 44.7742 6.18975 30.0916 6.18975C15.4091 6.18975 3.50575 18.0085 3.50575 32.5867ZM30.0862 52.6456C29.4975 52.6456 29.0247 52.1713 29.0247 51.5917C29.0247 51.0072 29.5023 50.5329 30.0862 50.5329C30.6748 50.5329 31.1477 51.0072 31.1477 51.5917C31.1525 52.1713 30.6748 52.6456 30.0862 52.6456ZM30.0862 48.4202C28.325 48.4202 26.8968 49.8382 26.8968 51.5869C26.8968 53.3355 28.325 54.7535 30.0862 54.7535C31.8473 54.7535 33.2755 53.3355 33.2755 51.5869C33.2803 49.8382 31.8521 48.4202 30.0862 48.4202ZM22.6411 48.4201C22.6411 47.8404 22.1683 47.3661 21.5796 47.3661C20.9958 47.3661 20.5181 47.8404 20.5181 48.4201C20.5181 49.0046 20.991 49.4788 21.5796 49.4788C22.1635 49.4788 22.6411 49.0046 22.6411 48.4201ZM24.769 48.4249C24.769 50.1735 23.3408 51.5916 21.5796 51.5916C19.8185 51.5916 18.3903 50.1735 18.3903 48.4249C18.3903 46.6763 19.8185 45.2582 21.5796 45.2582C23.3408 45.2582 24.769 46.6763 24.769 48.4249ZM30.0862 44.1993C29.4975 44.1993 29.0247 43.725 29.0247 43.1453C29.0247 42.5608 29.5023 42.0914 30.0862 42.0914C30.6748 42.0914 31.1477 42.5656 31.1477 43.1453C31.1525 43.725 30.6748 44.1993 30.0862 44.1993ZM30.0862 39.9738C28.325 39.9738 26.8968 41.3919 26.8968 43.1405C26.8968 44.8891 28.325 46.3072 30.0862 46.3072C31.8473 46.3072 33.2755 44.8891 33.2755 43.1405C33.2803 41.3919 31.8521 39.9738 30.0862 39.9738ZM38.5944 47.3664C38.0105 47.3664 37.5329 47.8359 37.5329 48.4203C37.5329 49.0048 38.0105 49.4743 38.5944 49.4743C39.1782 49.4743 39.6559 49.0048 39.6559 48.4203C39.6559 47.8407 39.1782 47.3664 38.5944 47.3664ZM38.5992 45.2537C40.3603 45.2537 41.7885 46.6717 41.7885 48.4203C41.7885 50.1738 40.3603 51.5918 38.5992 51.587C36.838 51.587 35.4098 50.169 35.4098 48.4203C35.4098 46.6717 36.838 45.2537 38.5992 45.2537ZM15.2005 42.087C15.2005 42.6714 14.7228 43.1409 14.139 43.1409C13.5503 43.1409 13.0775 42.6667 13.0775 42.087C13.0775 41.5025 13.5552 41.033 14.139 41.033C14.7228 41.033 15.2005 41.5025 15.2005 42.087ZM10.9496 42.087C10.9496 43.8356 12.3778 45.2537 14.139 45.2537C15.9001 45.2537 17.3283 43.8356 17.3283 42.087C17.3283 40.3384 15.9001 38.9203 14.139 38.9203C12.3778 38.9203 10.9496 40.3384 10.9496 42.087ZM17.3242 28.3612C16.7404 28.3612 16.2627 28.8307 16.2627 29.4152C16.2627 29.9997 16.7404 30.4692 17.3242 30.4692C17.9081 30.4692 18.3857 29.9997 18.3857 29.4152C18.3857 28.8355 17.9081 28.3612 17.3242 28.3612ZM17.3291 26.2485C19.0902 26.2485 20.5184 27.6666 20.5184 29.4152C20.5184 31.1686 19.0902 32.5867 17.3291 32.5819C15.5679 32.5819 14.1397 31.1638 14.1397 29.4152C14.1397 27.6666 15.5679 26.2485 17.3291 26.2485ZM22.6466 41.0328C22.0579 41.0328 21.5851 40.5585 21.5851 39.9788C21.5851 39.3944 22.0628 38.9249 22.6466 38.9249C23.2352 38.9249 23.7081 39.3992 23.7081 39.9788C23.7081 40.5585 23.2304 41.0328 22.6466 41.0328ZM25.8359 39.974C25.8359 38.2254 24.4077 36.8074 22.6466 36.8074C20.8855 36.8074 19.4573 38.2254 19.4573 39.974C19.4573 41.7227 20.8855 43.1407 22.6466 43.1407C24.4077 43.1407 25.8359 41.7227 25.8359 39.974ZM43.915 24.1357C44.4989 24.1357 44.9765 23.6662 44.9765 23.0818C44.9765 22.4973 44.4989 22.0278 43.915 22.0278C43.3312 22.0278 42.8535 22.4973 42.8535 23.0818C42.8535 23.6615 43.3264 24.1357 43.915 24.1357ZM43.9102 26.2485C42.1491 26.2485 40.7209 24.8304 40.7209 23.0818C40.7209 21.3332 42.1491 19.9151 43.9102 19.9151C45.6713 19.9151 47.0996 21.3332 47.0996 23.0818C47.0996 24.8304 45.6713 26.2485 43.9102 26.2485ZM29.0257 16.7488C29.6143 16.7488 30.0872 17.2231 30.0872 17.8028C30.0872 18.3872 29.6095 18.8567 29.0257 18.8567C28.437 18.8567 27.9594 18.3824 27.9594 17.8028C27.9642 17.2231 28.437 16.7488 29.0257 16.7488ZM29.0257 20.9694C30.7868 20.9694 32.215 19.5514 32.215 17.8028C32.215 16.0541 30.7868 14.6361 29.0257 14.6361C27.2645 14.6361 25.8363 16.0541 25.8363 17.8028C25.8363 19.5514 27.2645 20.9694 29.0257 20.9694ZM31.6834 29.8368C31.1961 29.5589 30.6461 29.4152 30.0864 29.4152C28.6678 29.4152 27.4181 30.3446 27.0176 31.7004C26.6172 33.0514 27.172 34.503 28.3686 35.2599C29.5653 36.0168 31.1237 35.8971 32.1901 34.9629C32.4747 34.7137 32.8704 34.6323 33.2323 34.7521C33.5941 34.8718 33.8595 35.1737 33.9367 35.5425C34.0139 35.9114 33.8836 36.2947 33.599 36.5438C31.5628 38.326 28.4989 38.2972 26.4965 36.4767C24.4942 34.6563 24.1902 31.6333 25.7969 29.4583C27.4036 27.2833 30.4 26.6605 32.7498 28.0115C33.2274 28.3133 33.3818 28.9409 33.0972 29.4296C32.8125 29.9182 32.1901 30.1003 31.6834 29.8368ZM57.7386 43.1407C56.5613 43.1407 55.6107 42.1969 55.6107 41.028C55.6107 39.8638 56.5613 38.9153 57.7386 38.9153C58.9111 38.9153 59.8664 39.859 59.8664 41.028C59.8616 42.1969 58.9111 43.1407 57.7386 43.1407ZM57.7386 36.8073C55.8037 36.8121 54.1198 38.1152 53.6373 39.974H45.8545C45.5747 39.974 45.3045 39.8638 45.1018 39.6626L37.845 32.4574C37.2467 31.8633 36.4361 31.528 35.5917 31.528H30.0912C29.5025 31.528 29.0297 32.0022 29.0297 32.5819C29.0297 33.1664 29.5073 33.6407 30.0912 33.6407H35.5917C35.8764 33.6407 36.1466 33.7509 36.3444 33.9521L43.6061 41.1621C44.2044 41.7562 45.015 42.0915 45.8642 42.0915H53.6421C54.197 44.209 56.2959 45.5552 58.472 45.1815C60.6481 44.8079 62.1728 42.8485 61.9846 40.6639C61.7819 38.4793 59.9436 36.8025 57.7386 36.8073ZM4.78936 13.2898C3.062 15.5223 1.63862 17.9703 0.562635 20.5765C0.340684 21.1131 0.601236 21.7263 1.14164 21.9466C1.27191 21.9993 1.40701 22.0281 1.54694 22.0233C1.97637 22.0233 2.36719 21.7646 2.53125 21.367C3.53485 18.9381 4.86173 16.6529 6.47329 14.5689C6.82069 14.1042 6.72902 13.4527 6.26581 13.1029C5.80744 12.758 5.15123 12.8395 4.78936 13.2898ZM49.2178 55.9321C49.1502 55.5488 49.295 55.1655 49.5941 54.9212C51.1044 53.6181 52.4843 52.1665 53.6954 50.6C54.0573 50.1448 54.7183 50.0682 55.1767 50.4179C55.6399 50.7676 55.7316 51.4192 55.3842 51.8839C54.0766 53.5702 52.605 55.1224 50.9838 56.5165C50.6991 56.78 50.2938 56.8615 49.9271 56.7417C49.5604 56.6219 49.2853 56.3105 49.2178 55.9321Z" fill="white"/>
</svg>
