<svg width="30" height="55" viewBox="0 0 30 55" fill="none" xmlns="http://www.w3.org/2000/svg">
<path d="M27.8158 53.1806H2.18987V48.6102H27.8158V53.1806ZM4.93317 41.2962C4.93317 40.7924 5.34321 40.3829 5.8476 40.3829H24.1508C24.6552 40.3829 25.0652 40.7924 25.0652 41.2962V46.7799H4.93317V41.2962ZM7.6801 35.8125H22.3219V38.5562H7.6801V35.8125ZM14.0884 17.5275C14.0884 17.4079 14.1102 17.2883 14.1573 17.1796C14.1827 17.1361 14.2154 17.0926 14.2481 17.0527C14.2807 16.9911 14.3206 16.9295 14.3678 16.8787C14.5347 16.7084 14.7633 16.6142 14.9992 16.6142C15.5036 16.6142 15.9136 17.0237 15.9136 17.5275V33.9822H14.0848V17.5275H14.0884ZM8.03934 25.2728L10.4923 17.7305C10.6157 17.3535 10.4815 16.9404 10.1585 16.7084L3.73207 12.0438H11.6789C12.0745 12.0438 12.4264 11.7901 12.5498 11.4132L15.0028 3.87084L17.4558 11.4132C17.5792 11.7901 17.9312 12.0438 18.3267 12.0438H26.2736L19.8435 16.7084C19.5242 16.9404 19.3899 17.3535 19.5097 17.7305L21.9627 25.2728L17.7461 22.2102V17.5275C17.7461 16.0125 16.516 14.7839 14.9992 14.7839C14.2735 14.7802 13.5767 15.0666 13.0687 15.5812C13.0433 15.6066 13.0252 15.6356 12.9998 15.6646C12.6478 16.0306 12.4083 16.4873 12.3067 16.9839C12.2704 17.1651 12.2523 17.3463 12.2523 17.5275V22.2102L8.03934 25.2728ZM28.7302 46.7799H26.9013V41.2962C26.9013 39.7812 25.6712 38.5526 24.1544 38.5526V34.8956C24.1544 34.3918 23.7444 33.9822 23.24 33.9822H17.7461V24.4718L23.1638 28.4079C23.4831 28.6399 23.9185 28.6399 24.2379 28.4079C24.5572 28.1759 24.6915 27.7628 24.5717 27.3858L21.4583 17.7957L29.6229 11.8699C29.9422 11.6379 30.0765 11.2247 29.9567 10.8478C29.837 10.4708 29.4814 10.2171 29.0858 10.2171H18.9871L15.8737 0.627018C15.7503 0.253707 15.3984 0 15.0028 0C14.6073 0 14.2553 0.253707 14.1319 0.627018L11.0149 10.2135H0.916195C0.520666 10.2135 0.168682 10.4672 0.0453061 10.8442C-0.0780698 11.2211 0.0561922 11.6343 0.379147 11.8662L8.54373 17.7921L5.42667 27.3786C5.3033 27.7555 5.43756 28.1687 5.75689 28.4007C6.07984 28.6326 6.51166 28.6326 6.83461 28.4007L12.2523 24.4646V33.9786H6.76567C6.26128 33.9786 5.85123 34.3881 5.85123 34.8919V38.5489C4.33443 38.5489 3.1043 39.7776 3.1043 41.2926V46.7763H1.27544C0.771047 46.7763 0.361003 47.1858 0.361003 47.6896V54.0867C0.361003 54.5904 0.771047 55 1.27544 55H28.7302C29.2346 55 29.6446 54.5904 29.6446 54.0867V47.6896C29.6446 47.1895 29.2346 46.7799 28.7302 46.7799Z" fill="#9B9B9B"/>
</svg>
