<svg width="37" height="47" viewBox="0 0 37 47" fill="none" xmlns="http://www.w3.org/2000/svg">
<path fill-rule="evenodd" clip-rule="evenodd" d="M33.9712 45.0011C34.1571 45.3208 34.5682 45.4317 34.8879 45.2457C35.2076 45.0598 35.3185 44.6488 35.1325 44.3291L31.5669 38.1537H30.0174L33.9712 45.0011ZM8.09856 38.1504L7.03834 39.987H29.5281L28.4678 38.1504H8.09856ZM6.26193 41.3311L5.48552 42.6751H31.0776L30.3012 41.3311H6.26193ZM1.67852 45.2425C1.99821 45.4284 2.40925 45.3208 2.5952 44.9978L6.55227 38.1504H4.99945L1.43385 44.3258C1.2479 44.6455 1.35556 45.0565 1.67852 45.2425ZM7.8441 33.8965C6.14123 33.8932 4.68954 32.6731 4.36984 31.0257H2.00147C2.00147 33.7836 1.99629 33.955 2.01367 34.124C2.01578 34.1445 2.01822 34.165 2.02105 34.1901C2.18416 35.6646 3.44011 36.8064 4.95052 36.8064H28.856H31.6159C33.2372 36.8064 34.5649 35.4884 34.5649 33.8573V31.0257H32.0726C31.7562 32.6634 30.311 33.8965 28.5951 33.8965H7.84737H7.8441ZM10.0461 30.3537C10.0461 29.1336 9.05112 28.155 7.84737 28.155C6.63382 28.155 5.64863 29.1434 5.64863 30.3537C5.64863 31.5673 6.63708 32.5524 7.84737 32.5524C9.05765 32.5524 10.0461 31.564 10.0461 30.3537ZM25.8189 32.5492C24.7978 31.2639 24.7978 29.4436 25.8189 28.155H10.6203C11.6413 29.4403 11.6413 31.2639 10.6203 32.5492H25.8189ZM28.5918 32.5524C29.8053 32.5524 30.7905 31.564 30.7905 30.3537C30.7905 29.1434 29.8053 28.155 28.5918 28.155C27.3783 28.155 26.3931 29.1434 26.3931 30.3537C26.3931 31.5673 27.3815 32.5524 28.5918 32.5524ZM32.9893 37.9221L36.2972 43.6538C36.8517 44.6161 36.5222 45.8525 35.5632 46.4071C34.5943 46.9649 33.3644 46.6322 32.8098 45.6698L31.854 44.0159H4.71238L3.75981 45.6698C3.20197 46.6354 1.96885 46.9649 1.0065 46.4071C0.0441448 45.8492 -0.285339 44.6161 0.269238 43.6538L3.57386 37.9253C2.08955 37.4229 0.973877 36.1246 0.716161 34.5652C0.706171 34.504 0.6978 34.4536 0.690795 34.4029C0.645185 34.0734 0.657441 33.7358 0.657441 30.3537V26.8109C0.657441 26.4391 0.957565 26.1389 1.32946 26.1389C1.70135 26.1389 2.00147 26.4391 2.00147 26.8109V29.6817H4.36984C4.68628 28.0473 6.12492 26.8109 7.84737 26.8109H28.5983C30.324 26.8109 31.7594 28.0473 32.0758 29.6817H34.5682V8.10214C34.5682 4.82687 31.916 2.16816 28.6342 2.16816H7.93871C4.66671 2.16816 2.00474 4.83013 2.00474 8.10214V23.676C2.00474 24.0478 1.70461 24.348 1.33272 24.348C0.960828 24.348 0.660704 24.0478 0.660704 23.676V8.10214C0.660704 4.09287 3.92292 0.827393 7.93545 0.827393H28.6342C32.6761 0.827393 35.909 4.10592 35.909 8.10214V30.3537V33.8573C35.909 35.7429 34.6856 37.3479 32.9893 37.9221ZM14.3294 5.525H22.2338V7.61608H14.3294V5.525ZM22.2892 8.96012C23.0004 8.96012 23.5778 8.3827 23.5778 7.67154V5.46955C23.5778 4.75838 23.0004 4.18097 22.2892 4.18097H14.274C13.5628 4.18097 12.9854 4.75838 12.9854 5.46955V7.67154C12.9854 8.3827 13.5628 8.96012 14.274 8.96012H22.2892ZM4.18071 12.4931V21.536C4.18071 22.7299 5.15285 23.7053 6.35008 23.7053H30.2165C31.4137 23.7053 32.3858 22.7332 32.3858 21.536V12.4931C32.3858 11.2991 31.4137 10.3237 30.2165 10.3237H28.9833C28.6114 10.3237 28.3113 10.6239 28.3113 10.9957C28.3113 11.3676 28.6114 11.6678 28.9833 11.6678H30.2165C30.6732 11.6678 31.0418 12.0364 31.0418 12.4931V21.536C31.0418 21.9894 30.6699 22.3613 30.2165 22.3613H6.35008C5.89337 22.3613 5.52474 21.9894 5.52474 21.536V12.4931C5.52474 12.0364 5.89663 11.6678 6.35008 11.6678H25.8483C26.2202 11.6678 26.5204 11.3676 26.5204 10.9957C26.5204 10.6239 26.2202 10.3237 25.8483 10.3237H6.35008C5.15285 10.3237 4.18071 11.2959 4.18071 12.4931Z" fill="#9B9B9B"/>
</svg>
