<svg width="25" height="22" viewBox="0 0 25 22" fill="none" xmlns="http://www.w3.org/2000/svg">
<path d="M1.00171 21.0133C8.68144 21.0133 16.3186 21.0133 23.9983 21.0133C23.9983 20.9368 23.9983 20.8604 23.9983 20.784C23.9983 18.2476 23.9983 15.7183 23.9983 13.1819C23.9983 13.1194 23.9912 13.0499 23.9983 12.9874C24.0196 12.7442 24.2185 12.5565 24.4601 12.5426C24.7087 12.5287 24.9219 12.6816 24.9716 12.9248C24.9929 13.0082 24.9929 13.0916 24.9929 13.1819C24.9929 15.8989 24.9929 18.6159 24.9929 21.3399C24.9929 21.8402 24.8295 22 24.3109 22C16.4322 22 8.55357 22 0.674908 22C0.163399 22 0 21.8402 0 21.3399C0 18.6229 0 15.9059 0 13.1819C0 13.1055 0 13.0221 0.0142086 12.9457C0.0639386 12.6886 0.277067 12.5287 0.532822 12.5426C0.788576 12.5565 0.980392 12.7511 1.00171 13.0082C1.00881 13.0707 1.00171 13.1402 1.00171 13.2028C1.00171 15.7252 1.00171 18.2407 1.00171 20.7631C1.00171 20.8465 1.00171 20.9229 1.00171 21.0133Z" fill="white"/>
<path d="M13.0007 14.12C13.086 14.0366 13.1428 13.9949 13.1925 13.9394C14.3861 12.772 15.5796 11.6045 16.7802 10.451C16.8868 10.3468 17.0502 10.2773 17.1993 10.2495C17.3983 10.2148 17.5475 10.3329 17.6398 10.5066C17.7322 10.6804 17.7109 10.8541 17.5972 11.007C17.5546 11.0625 17.5048 11.1042 17.4622 11.1529C15.9419 12.6399 14.4216 14.1339 12.9013 15.621C12.6526 15.8642 12.3613 15.8642 12.1198 15.6279C10.5853 14.127 9.05073 12.6191 7.5162 11.1181C7.31018 10.9166 7.26755 10.7151 7.36701 10.5136C7.46647 10.319 7.6867 10.1939 7.90694 10.2565C8.02771 10.2912 8.14848 10.3746 8.24084 10.458C9.43436 11.6115 10.6208 12.7789 11.8072 13.9394C11.8569 13.988 11.8924 14.0575 11.9422 14.1131C11.9635 14.0992 11.9848 14.0922 12.0061 14.0783C12.0061 13.9949 12.0061 13.9116 12.0061 13.8351C12.0061 9.43651 12.0061 5.03096 12.0061 0.632345C12.0061 0.284904 12.1056 0.111183 12.3471 0.0277969C12.6384 -0.0694867 12.9368 0.0972852 12.9936 0.389136C13.0007 0.48642 13.0007 0.583703 13.0007 0.687936C13.0007 5.0657 13.0007 9.45041 13.0007 13.8282C13.0007 13.9116 13.0007 13.9949 13.0007 14.12Z" fill="white"/>
</svg>
