<svg width="42" height="42" viewBox="0 0 42 42" fill="none" xmlns="http://www.w3.org/2000/svg">
<path fill-rule="evenodd" clip-rule="evenodd" d="M17.7935 28.8441H40.3902H40.3966V4.81055H2.57288V17.0486C2.82303 16.9588 3.09242 16.9075 3.37463 16.9075H15.3882C16.7159 16.9075 17.7935 17.985 17.7935 19.3128V28.8441ZM37.9849 33.0132C39.3126 33.0132 40.3902 31.9356 40.3902 30.6079V30.4476H17.7935V33.0132H37.9849ZM31.0577 39.4208C30.8717 38.5101 30.0636 37.8173 29.095 37.8173H23.2133C22.7708 37.8173 22.4116 37.4581 22.4116 37.0156C22.4116 36.573 22.7708 36.2138 23.2133 36.2138H26.1061C25.7918 35.7456 25.5801 35.2004 25.516 34.6103H17.7999V38.6191C17.7999 38.9013 17.7486 39.1707 17.6588 39.4208H31.0577ZM2.57288 38.6191C2.57288 39.0617 2.93206 39.4208 3.37463 39.4208V39.4273H15.3946C15.8372 39.4273 16.1964 39.0681 16.1964 38.6255V19.3128C16.1964 18.8702 15.8372 18.511 15.3946 18.511H3.37463C2.93206 18.511 2.57288 18.8702 2.57288 19.3128V38.6191ZM37.9593 1.60352H5.02305C3.97756 1.60352 3.07317 2.27058 2.72681 3.20703H40.2491C39.9027 2.27058 39.0048 1.60352 37.9593 1.60352ZM37.9593 0C40.1593 0 41.9745 1.79594 41.9937 3.99596C41.9937 4.00238 41.9937 30.6079 42.0001 30.6015C42.0001 32.8144 40.1978 34.6103 37.9913 34.6103H27.1323C27.3183 35.5275 28.1265 36.2138 29.095 36.2138C31.0834 36.2138 32.6997 37.8302 32.6997 39.8185V40.2226C32.6997 40.6652 32.3406 41.0244 31.898 41.0244H3.37463C2.04692 41.0244 0.96936 39.9468 0.96936 38.6191V3.99596C1.00143 1.78952 2.81661 0 5.02305 0H37.9593ZM19.1981 37.0219C19.1981 36.5794 19.5573 36.2202 19.9999 36.2202C20.4425 36.2202 20.8016 36.5794 20.8016 37.0219C20.8016 37.4645 20.4425 37.8237 19.9999 37.8237C19.5573 37.8237 19.1981 37.4645 19.1981 37.0219ZM20.1602 17.4847H20.1794C20.3911 17.4847 20.5899 17.4014 20.7374 17.2538C20.8914 17.1063 20.9747 16.9075 20.9812 16.7022C20.994 16.2597 20.6412 15.8941 20.1986 15.8812C19.9806 15.8748 19.7753 15.9582 19.6214 16.1057C19.4674 16.2532 19.3841 16.4521 19.3776 16.6637C19.3648 17.1063 19.7176 17.4719 20.1602 17.4847ZM20.9876 14.4124C20.8594 14.4124 20.7247 14.3803 20.6092 14.3162C20.218 14.1045 20.0768 13.617 20.2821 13.2258C20.6285 12.5972 21.0582 12.0135 21.5713 11.5004C22.2897 10.782 23.1235 10.224 24.06 9.84556C24.9579 9.47996 25.9136 9.29395 26.8886 9.29395H26.895C27.8699 9.29395 28.8192 9.47996 29.7236 9.84556C29.9545 9.94819 30.1854 10.0572 30.4099 10.1727L30.1213 9.12077C29.9994 8.69103 30.2496 8.24846 30.6793 8.13301C31.109 8.01114 31.5516 8.26129 31.6671 8.69103L32.5458 11.8788C32.6612 12.3086 32.4111 12.7511 31.9878 12.8666L28.8128 13.7453C28.7422 13.7646 28.6717 13.7774 28.6011 13.7774C28.2548 13.7774 27.9277 13.5465 27.8314 13.1937C27.716 12.764 27.9661 12.3214 28.3895 12.2059L29.9737 11.7634C29.0565 11.1989 27.9982 10.8975 26.895 10.8975C25.3107 10.8975 23.8227 11.5132 22.7066 12.6357C22.3025 13.0398 21.9626 13.4952 21.6932 13.9955C21.5521 14.252 21.2827 14.4124 20.9876 14.4124ZM32.2764 19.8451C32.007 20.3454 31.6671 20.8008 31.263 21.2049C30.147 22.3273 28.6589 22.9431 27.081 22.9431C25.9778 22.9431 24.9195 22.6416 24.0023 22.0772L25.5866 21.641C26.0163 21.5256 26.26 21.083 26.1446 20.6532C26.0291 20.2235 25.5866 19.9798 25.1568 20.0952L21.9819 20.974C21.5521 21.0894 21.3084 21.532 21.4238 21.9617L22.3026 25.1495C22.3988 25.5023 22.7259 25.7396 23.0722 25.7396C23.1428 25.7396 23.2134 25.7268 23.2839 25.7139C23.7137 25.5985 23.9638 25.1559 23.8419 24.7262L23.5533 23.6743C23.7778 23.7897 24.0087 23.8988 24.2396 23.995C25.144 24.3606 26.0933 24.5466 27.0682 24.5466H27.0746C28.0496 24.5466 28.9988 24.3606 29.9032 23.995C30.8397 23.6165 31.6735 23.0585 32.3919 22.3401C32.905 21.827 33.3348 21.2433 33.6811 20.6148C33.7837 20.4288 33.803 20.2107 33.7453 20.0054C33.6875 19.8002 33.5464 19.6334 33.3604 19.5308C33.245 19.4666 33.1103 19.4346 32.9756 19.4346C32.6869 19.4217 32.4175 19.5821 32.2764 19.8451ZM33.7966 17.9594H33.7774C33.5593 17.953 33.3605 17.8632 33.2193 17.7028C33.0718 17.5489 32.9884 17.3436 32.9949 17.132C33.0013 16.9267 33.0911 16.7279 33.2386 16.5804C33.3925 16.4328 33.5978 16.3495 33.8158 16.3559C34.0339 16.3623 34.2328 16.4521 34.3803 16.606C34.5278 16.76 34.6048 16.9652 34.5984 17.1769C34.592 17.3821 34.5022 17.581 34.3546 17.7285C34.2071 17.876 34.0083 17.9594 33.7966 17.9594ZM5.77996 28.9146C5.77996 27.9589 6.15197 27.0545 6.81904 26.381C7.4861 25.7076 8.37765 25.3355 9.32694 25.3355C9.74385 25.3355 10.1479 25.4061 10.5264 25.5472L10.2121 25.637C9.78234 25.7525 9.5386 26.195 9.65405 26.6248C9.75027 26.9775 10.0774 27.2085 10.4237 27.2085C10.4943 27.2085 10.5649 27.1956 10.6418 27.1764L12.6943 26.6055C13.1177 26.4901 13.3678 26.0475 13.2523 25.6242L12.6815 23.5524C12.566 23.1227 12.1235 22.8725 11.6937 22.988C11.264 23.1034 11.0138 23.546 11.1357 23.9758L11.1614 24.0784C10.5905 23.8475 9.96834 23.732 9.32694 23.732C7.94791 23.732 6.65869 24.2708 5.68375 25.2522C4.70881 26.2271 4.17644 27.5292 4.17644 28.9146C4.17644 29.3572 4.53563 29.7164 4.9782 29.7164C5.42077 29.7164 5.77996 29.3572 5.77996 28.9146ZM12.9894 29.0172C12.9894 28.5747 13.3486 28.2155 13.7912 28.2155C14.2337 28.2155 14.5929 28.5747 14.5929 29.0044C14.5929 30.3899 14.0541 31.6855 13.0856 32.6668C12.1107 33.6482 10.8214 34.187 9.44242 34.187C8.80101 34.187 8.17885 34.0715 7.59517 33.847L7.62083 33.9497C7.74269 34.3794 7.48613 34.822 7.0628 34.9374C6.99225 34.9503 6.92169 34.9631 6.85114 34.9631C6.50478 34.9631 6.17766 34.7258 6.08145 34.373L5.5106 32.3012C5.39515 31.8779 5.64529 31.4353 6.06862 31.3199L8.12112 30.749C8.55087 30.6336 8.98702 30.8837 9.10889 31.3071C9.22434 31.7368 8.98061 32.173 8.55087 32.2948L8.23658 32.3846C8.62142 32.5257 9.02551 32.5963 9.44242 32.5963C10.3917 32.5963 11.2768 32.2243 11.9503 31.5508C12.6174 30.8773 12.9894 29.9729 12.9894 29.0172Z" fill="#9B9B9B"/>
</svg>
