<svg width="30" height="31" viewBox="0 0 30 31" fill="none" xmlns="http://www.w3.org/2000/svg">
<g clip-path="url(#clip0)">
<path d="M8.90894 0.653259V6.24243" stroke="#201600" stroke-width="2" stroke-miterlimit="10"/>
<path d="M8.47803 0.653259H13.4553" stroke="#201600" stroke-width="2" stroke-miterlimit="10"/>
<path d="M8.90894 30.0267V24.3683" stroke="#201600" stroke-width="2" stroke-miterlimit="10"/>
<path d="M8.90894 30.0267V24.3683" stroke="#201600" stroke-width="2" stroke-miterlimit="10"/>
<path d="M8.47803 30.0267H13.4553" stroke="#201600" stroke-width="2" stroke-miterlimit="10"/>
<path d="M18.5403 31C18.2989 30.442 17.8508 29.8839 17.8465 29.3259C17.7086 20.0856 17.6353 10.8453 17.5146 1.60495C17.4974 0.22929 17.937 -0.250894 19.3547 0.129792C22.3152 0.925774 25.2929 1.64389 28.2835 2.31441C29.3824 2.561 29.7789 3.10607 29.7789 4.21352C29.7659 11.3471 29.7746 18.4806 29.8349 25.6142C29.8435 26.8125 29.3523 27.3489 28.2922 27.7079C25.1378 28.7721 22.0092 29.9012 18.8678 31.0043C18.7557 31 18.648 31 18.5403 31ZM19.0229 29.4643C22.1601 28.3914 24.9568 27.47 27.7233 26.4534C28.081 26.3193 28.4861 25.6964 28.4861 25.2984C28.5206 18.446 28.5033 11.5893 28.4473 4.73696C28.443 4.326 28.0638 3.63816 27.7363 3.55165C24.8447 2.77297 21.9274 2.10244 19.0229 1.40163C19.0229 10.7544 19.0229 19.9601 19.0229 29.4643Z" fill="#201600"/>
<path d="M8.11614 19.6832C5.99166 19.6832 4.16884 19.6573 2.34601 19.6919C1.24714 19.7135 0.781737 19.2463 0.803283 18.1475C0.833448 16.3695 0.846376 14.5872 0.790356 12.8092C0.751572 11.5114 1.34625 11.1091 2.55716 11.1481C4.31966 11.2086 6.09078 11.1654 8.11614 11.1654C8.11614 10.3175 8.06874 9.58206 8.13769 8.85529C8.16785 8.5395 8.37901 8.04634 8.60309 7.9901C8.9306 7.90358 9.46064 8.01173 9.70196 8.24533C11.8264 10.3088 13.9423 12.3853 15.9504 14.5569C16.2478 14.8814 16.2391 15.9759 15.9332 16.3046C13.9208 18.4763 11.8006 20.5484 9.68472 22.6162C9.46495 22.8325 8.94353 23.0142 8.73668 22.8974C8.44365 22.733 8.1894 22.2961 8.142 21.9414C8.0515 21.2665 8.11614 20.5701 8.11614 19.6832ZM9.53821 10.0406C9.23656 12.4588 9.23656 12.4588 6.96125 12.4588C5.37544 12.4588 3.79393 12.4588 2.21242 12.4588C2.21242 14.5699 2.21242 16.4258 2.21242 18.2427C2.42788 18.3119 2.527 18.3681 2.63042 18.3681C3.9189 18.3811 5.20737 18.3681 6.49154 18.4027C7.28014 18.4244 8.2368 18.2773 8.80994 18.6666C9.31843 19.0084 9.40031 19.986 9.57268 20.4273C11.2576 18.7358 13.0158 16.9708 14.6318 15.3443C13.0503 13.7004 11.3524 11.9311 9.53821 10.0406Z" fill="#201600"/>
</g>
<defs>
<clipPath id="clip0">
<rect width="29.0403" height="31" fill="white" transform="translate(0.790283)"/>
</clipPath>
</defs>
</svg>
