<svg width="47" height="50" viewBox="0 0 47 50" fill="none" xmlns="http://www.w3.org/2000/svg">
<path fill-rule="evenodd" clip-rule="evenodd" d="M11.4881 5.36626C11.3716 5.43541 11.2369 5.46817 11.1023 5.46817C10.7347 5.47181 10.4144 5.22431 10.3234 4.864C10.2324 4.51096 10.3926 4.13608 10.7165 3.96138C14.2723 2.00329 18.2686 0.976929 22.3304 0.976929C22.7744 0.976929 23.1311 1.33725 23.1311 1.77764C23.1311 2.21802 22.7744 2.57834 22.3304 2.57834C18.5379 2.57834 14.811 3.53919 11.4881 5.36626ZM2.2799 25.0418C2.28718 32.31 6.22157 39.0105 12.5726 42.5518L8.32888 47.5016H5.49001C5.04598 47.5016 4.6893 47.8619 4.6893 48.3023C4.6893 48.7463 5.04962 49.103 5.49001 49.103H13.5116C13.9557 49.103 14.3123 48.7427 14.3123 48.3023C14.3123 47.8583 13.952 47.5016 13.5116 47.5016H10.4435L14.0503 43.2942C19.1166 45.6017 24.9108 45.6964 30.0462 43.5527L33.4274 47.498H30.3592C29.9152 47.498 29.5585 47.8583 29.5585 48.2987C29.5585 48.7427 29.9188 49.0994 30.3592 49.0994H38.3809C38.8249 49.0994 39.1816 48.739 39.1816 48.2987C39.1816 47.8546 38.8212 47.498 38.3809 47.498H35.542L31.5567 42.8466C34.6648 41.2379 37.2999 38.843 39.1961 35.8986C39.4218 35.5274 39.3126 35.0433 38.945 34.8067C38.581 34.5702 38.0933 34.6684 37.8458 35.0288C32.8815 42.741 23.0036 45.6345 14.6617 41.8166C6.31619 38.0023 2.04333 28.6377 4.63471 19.8372C7.22245 11.0367 15.881 5.47541 24.9617 6.78202C34.0388 8.08862 40.7793 15.8664 40.783 25.0418C40.783 25.3002 40.7793 25.555 40.7684 25.8097C40.7502 26.2537 41.096 26.625 41.5364 26.6432C41.9804 26.6614 42.3553 26.3156 42.3735 25.8752C42.3844 25.6023 42.388 25.3184 42.388 25.0381C42.388 13.9629 33.4092 4.98771 22.334 4.98771C11.2587 4.98771 2.2799 13.9665 2.2799 25.0418ZM22.3303 40.2807C21.8863 40.2807 21.5296 39.9204 21.5296 39.48C21.5296 39.036 21.8899 38.6757 22.3303 38.6757C22.7743 38.6757 23.131 39.036 23.131 39.48C23.1346 39.9204 22.7743 40.2807 22.3303 40.2807ZM22.3303 37.0706C21.0019 37.0706 19.9245 38.1479 19.9245 39.4764C19.9245 40.8048 21.0019 41.8821 22.3303 41.8821C23.6587 41.8821 24.7361 40.8048 24.7361 39.4764C24.7397 38.1479 23.6624 37.0706 22.3303 37.0706ZM16.7145 37.0706C16.7145 36.6302 16.3578 36.2699 15.9138 36.2699C15.4734 36.2699 15.1131 36.6302 15.1131 37.0706C15.1131 37.5147 15.4698 37.875 15.9138 37.875C16.3542 37.875 16.7145 37.5147 16.7145 37.0706ZM18.3196 37.0743C18.3196 38.4027 17.2423 39.48 15.9138 39.48C14.5854 39.48 13.508 38.4027 13.508 37.0743C13.508 35.7458 14.5854 34.6685 15.9138 34.6685C17.2423 34.6685 18.3196 35.7458 18.3196 37.0743ZM22.3303 33.8641C21.8863 33.8641 21.5296 33.5038 21.5296 33.0634C21.5296 32.6194 21.8899 32.2627 22.3303 32.2627C22.7743 32.2627 23.131 32.623 23.131 33.0634C23.1346 33.5038 22.7743 33.8641 22.3303 33.8641ZM22.3303 30.654C21.0019 30.654 19.9245 31.7313 19.9245 33.0598C19.9245 34.3882 21.0019 35.4655 22.3303 35.4655C23.6587 35.4655 24.7361 34.3882 24.7361 33.0598C24.7397 31.7313 23.6624 30.654 22.3303 30.654ZM28.7469 36.2699C28.3065 36.2699 27.9462 36.6266 27.9462 37.0706C27.9462 37.5147 28.3065 37.8713 28.7469 37.8713C29.1873 37.8713 29.5476 37.5147 29.5476 37.0706C29.5476 36.6303 29.1873 36.2699 28.7469 36.2699ZM28.7505 34.6649C30.079 34.6649 31.1563 35.7422 31.1563 37.0706C31.1563 38.4027 30.079 39.48 28.7505 39.4764C27.4221 39.4764 26.3448 38.3991 26.3448 37.0706C26.3448 35.7422 27.4221 34.6649 28.7505 34.6649ZM11.1022 32.2591C11.1022 32.7031 10.7419 33.0598 10.3015 33.0598C9.85747 33.0598 9.50079 32.6995 9.50079 32.2591C9.50079 31.8151 9.86111 31.4584 10.3015 31.4584C10.7419 31.4584 11.1022 31.8151 11.1022 32.2591ZM7.89574 32.2591C7.89574 33.5875 8.97305 34.6649 10.3015 34.6649C11.6299 34.6649 12.7073 33.5875 12.7073 32.2591C12.7073 30.9307 11.6299 29.8533 10.3015 29.8533C8.97305 29.8533 7.89574 30.9307 7.89574 32.2591ZM12.7037 21.8317C12.2633 21.8317 11.903 22.1884 11.903 22.6324C11.903 23.0764 12.2633 23.4331 12.7037 23.4331C13.1441 23.4331 13.5044 23.0764 13.5044 22.6324C13.5044 22.192 13.1441 21.8317 12.7037 21.8317ZM12.7073 20.2266C14.0358 20.2266 15.1131 21.3039 15.1131 22.6324C15.1131 23.9645 14.0358 25.0418 12.7073 25.0381C11.3789 25.0381 10.3016 23.9608 10.3016 22.6324C10.3016 21.3039 11.3789 20.2266 12.7073 20.2266ZM16.7181 31.4584C16.2741 31.4584 15.9174 31.0981 15.9174 30.6577C15.9174 30.2137 16.2777 29.857 16.7181 29.857C17.1621 29.857 17.5188 30.2173 17.5188 30.6577C17.5188 31.0981 17.1585 31.4584 16.7181 31.4584ZM19.1239 30.654C19.1239 29.3256 18.0465 28.2483 16.7181 28.2483C15.3897 28.2483 14.3123 29.3256 14.3123 30.654C14.3123 31.9825 15.3897 33.0598 16.7181 33.0598C18.0465 33.0598 19.1239 31.9825 19.1239 30.654ZM32.7614 18.6215C33.2018 18.6215 33.5621 18.2649 33.5621 17.8208C33.5621 17.3768 33.2018 17.0201 32.7614 17.0201C32.321 17.0201 31.9607 17.3768 31.9607 17.8208C31.9607 18.2612 32.3174 18.6215 32.7614 18.6215ZM32.7578 20.2266C31.4293 20.2266 30.352 19.1493 30.352 17.8208C30.352 16.4924 31.4293 15.4151 32.7578 15.4151C34.0862 15.4151 35.1635 16.4924 35.1635 17.8208C35.1635 19.1493 34.0862 20.2266 32.7578 20.2266ZM21.5296 13.0094C21.9737 13.0094 22.3303 13.3697 22.3303 13.8101C22.3303 14.2541 21.97 14.6108 21.5296 14.6108C21.0856 14.6108 20.7253 14.2505 20.7253 13.8101C20.7289 13.3697 21.0856 13.0094 21.5296 13.0094ZM21.5296 16.2158C22.8581 16.2158 23.9354 15.1385 23.9354 13.8101C23.9354 12.4816 22.8581 11.4043 21.5296 11.4043C20.2012 11.4043 19.1239 12.4816 19.1239 13.8101C19.1239 15.1385 20.2012 16.2158 21.5296 16.2158ZM23.535 22.9527C23.1674 22.7416 22.7525 22.6324 22.3303 22.6324C21.2603 22.6324 20.3176 23.3385 20.0156 24.3685C19.7135 25.3948 20.132 26.4976 21.0346 27.0727C21.9373 27.6477 23.1128 27.5567 23.9172 26.847C24.1319 26.6578 24.4304 26.5959 24.7033 26.6869C24.9763 26.7779 25.1765 27.0072 25.2347 27.2874C25.2929 27.5677 25.1947 27.8588 24.9799 28.0481C23.444 29.402 21.1329 29.3802 19.6225 27.9971C18.1121 26.6141 17.8828 24.3175 19.0947 22.6652C20.3067 21.0128 22.5669 20.5396 24.3394 21.566C24.6997 21.7953 24.8162 22.2721 24.6014 22.6433C24.3867 23.0146 23.9172 23.1529 23.535 22.9527ZM43.1888 33.0597C42.3008 33.0597 41.5838 32.3427 41.5838 31.4547C41.5838 30.5703 42.3008 29.8496 43.1888 29.8496C44.0732 29.8496 44.7939 30.5666 44.7939 31.4547C44.7902 32.3427 44.0732 33.0597 43.1888 33.0597ZM43.1888 28.2482C41.7293 28.2519 40.4591 29.2418 40.0952 30.654H34.2245C34.0134 30.654 33.8096 30.5703 33.6568 30.4174L28.1828 24.9435C27.7315 24.4922 27.1201 24.2374 26.4832 24.2374H22.334C21.89 24.2374 21.5333 24.5977 21.5333 25.0381C21.5333 25.4821 21.8937 25.8425 22.334 25.8425H26.4832C26.6979 25.8425 26.9017 25.9262 27.0509 26.079L32.5285 31.5566C32.9798 32.0079 33.5913 32.2627 34.2318 32.2627H40.0988C40.5174 33.8714 42.1006 34.8941 43.742 34.6102C45.3835 34.3263 46.5336 32.8377 46.3916 31.1781C46.2388 29.5184 44.8521 28.2446 43.1888 28.2482ZM3.24804 10.3816C1.94507 12.0777 0.871395 13.9375 0.0597694 15.9174C-0.107651 16.325 0.088886 16.7909 0.496518 16.9583C0.594787 16.9984 0.696695 17.0202 0.802243 17.0166C1.12617 17.0166 1.42097 16.82 1.54472 16.5179C2.30175 14.6727 3.30263 12.9366 4.51825 11.3534C4.7803 11.0003 4.71115 10.5054 4.36175 10.2397C4.01599 9.97762 3.52101 10.0395 3.24804 10.3816ZM36.7612 42.7775C36.7103 42.4863 36.8195 42.1951 37.0451 42.0095C38.1843 41.0195 39.2252 39.9168 40.1388 38.7266C40.4117 38.3809 40.9104 38.3226 41.2561 38.5883C41.6055 38.854 41.6747 39.349 41.4126 39.702C40.4263 40.9832 39.3162 42.1624 38.0933 43.2215C37.8786 43.4217 37.5729 43.4835 37.2963 43.3926C37.0196 43.3016 36.8122 43.065 36.7612 42.7775Z" fill="#9B9B9B"/>
</svg>
