<svg width="45" height="46" viewBox="0 0 45 46" fill="none" xmlns="http://www.w3.org/2000/svg">
<path fill-rule="evenodd" clip-rule="evenodd" d="M39.6896 43.319C41.3165 43.319 42.6376 41.9942 42.6376 40.3709V2.41017H9.35735V20.8701C9.35735 21.3469 8.97155 21.7363 8.49113 21.7363C8.01435 21.7363 7.62491 21.3505 7.62491 20.8701V7.09067H5.54671V39.5011C5.54671 39.9779 5.15728 40.3673 4.68049 40.3673C4.20371 40.3673 3.81428 39.9779 3.81428 39.5011V12.6337H1.73244V40.3673C1.73244 41.9942 3.0536 43.3154 4.68049 43.3154C6.30738 43.3154 7.62855 41.9906 7.62855 40.3673V28.6697C7.62855 28.1929 8.01799 27.8035 8.49477 27.8035C8.97155 27.8035 9.36099 28.1893 9.36099 28.6697V40.3709C9.36099 41.4883 8.96791 42.5147 8.31279 43.319H39.6896ZM8.49113 0.677734H43.5038C43.9843 0.677734 44.3737 1.06717 44.3737 1.54395V40.3709C44.3737 42.9514 42.2737 45.0514 39.6932 45.0514H4.68049C2.10003 45.0514 0 42.9514 0 40.3709V11.7712C0 11.2907 0.389435 10.9049 0.862579 10.9049H3.81064V6.22445C3.81064 5.74766 4.19643 5.35823 4.67686 5.35823H7.62491V1.54395C7.62491 1.06717 8.01435 0.677734 8.49113 0.677734ZM38.4811 8.13158H13.5209V12.6374H38.4811V8.13158ZM39.3437 14.3698H12.6511C12.1743 14.3698 11.7849 13.984 11.7849 13.5036V7.26536C11.7849 6.78858 12.1706 6.39914 12.6511 6.39914H39.3437C39.8205 6.39914 40.2099 6.78858 40.2099 7.26536V13.5036C40.2099 13.9804 39.8205 14.3698 39.3437 14.3698ZM13.5209 18.5299H25.1348V33.4376H13.5209V18.5299ZM12.6511 35.17H25.9974C26.4778 35.17 26.8636 34.7806 26.8636 34.3038V17.6637C26.8636 17.1869 26.4742 16.7975 25.9974 16.7975H12.6511C12.1706 16.7975 11.7849 17.1869 11.7849 17.6637V34.3038C11.7849 34.7806 12.1743 35.17 12.6511 35.17ZM30.1575 16.7975H39.3438C39.8243 16.7975 40.21 17.1869 40.21 17.6637C40.21 18.1405 39.8206 18.5299 39.3438 18.5299H30.1575C29.6808 18.5299 29.2913 18.1405 29.2913 17.6637C29.2913 17.1869 29.6808 16.7975 30.1575 16.7975ZM39.3438 20.9574H30.1575C29.6808 20.9574 29.2913 21.3468 29.2913 21.8236C29.2913 22.3004 29.6808 22.6898 30.1575 22.6898H39.3438C39.8206 22.6898 40.21 22.3004 40.21 21.8236C40.21 21.3468 39.8243 20.9574 39.3438 20.9574ZM30.1575 25.1174H39.3438C39.8243 25.1174 40.21 25.5069 40.21 25.9837C40.21 26.4605 39.8206 26.8499 39.3438 26.8499H30.1575C29.6808 26.8499 29.2913 26.4605 29.2913 25.9837C29.2913 25.5069 29.6808 25.1174 30.1575 25.1174ZM39.3438 29.2775H30.1575C29.6808 29.2775 29.2913 29.6669 29.2913 30.1437C29.2913 30.6205 29.6808 31.0099 30.1575 31.0099H39.3438C39.8206 31.0099 40.21 30.6205 40.21 30.1437C40.21 29.6669 39.8243 29.2775 39.3438 29.2775ZM30.1575 33.4376H39.3438C39.8243 33.4376 40.21 33.827 40.21 34.3038C40.21 34.7806 39.8206 35.17 39.3438 35.17H30.1575C29.6808 35.17 29.2913 34.7806 29.2913 34.3038C29.2913 33.827 29.6808 33.4376 30.1575 33.4376ZM39.3437 39.33C39.8205 39.33 40.2099 38.9406 40.2099 38.4638C40.2099 37.987 39.8205 37.5976 39.3437 37.5976H12.6511C12.1706 37.5976 11.7849 37.987 11.7849 38.4638C11.7849 38.9406 12.1743 39.33 12.6511 39.33H39.3437ZM7.92338 24.1603C8.08352 23.9965 8.30554 23.9055 8.53483 23.9055C8.76412 23.9055 8.98614 23.9965 9.14628 24.1603C9.31006 24.3204 9.40105 24.5424 9.40105 24.7717C9.40105 24.9974 9.30642 25.223 9.14628 25.3832C8.98614 25.547 8.76412 25.6379 8.53483 25.6379C8.30918 25.6379 8.08352 25.5433 7.92338 25.3832C7.7596 25.223 7.66861 25.001 7.66861 24.7717C7.66861 24.5461 7.76324 24.3204 7.92338 24.1603Z" fill="#9B9B9B"/>
</svg>
