<svg width="52" height="61" viewBox="0 0 52 61" fill="none" xmlns="http://www.w3.org/2000/svg">
<path fill-rule="evenodd" clip-rule="evenodd" d="M37.0511 0.889599C37.0511 0.398328 37.4494 0 37.9407 0C45.2434 0 51.1851 5.94173 51.1785 13.2378C51.1785 13.729 50.7801 14.1274 50.2889 14.1274C49.7976 14.1274 49.3993 13.729 49.3993 13.2378C49.3993 6.91763 44.2608 1.7792 37.9407 1.7792C37.4494 1.7792 37.0511 1.38087 37.0511 0.889599ZM4.69363 58.8995H29.39C30.9966 58.8995 32.3044 57.5983 32.3044 55.9917V53.0839H1.78584V55.9917C1.78584 57.5983 3.08704 58.8995 4.69363 58.8995ZM29.3966 1.77924H4.69363C3.08704 1.77924 1.7792 3.08709 1.7792 4.69368V6.64548H32.3044V4.68704C32.3044 3.08709 31.0032 1.77924 29.3966 1.77924ZM32.2978 8.43132H1.7792V51.2981H32.2978V8.43132ZM4.69363 4.33845e-05H29.39C31.9791 4.33845e-05 34.0836 2.10454 34.0902 4.69368V55.9983C34.0902 58.5875 31.9857 60.692 29.3966 60.692H4.69363C2.1045 60.692 0 58.5875 0 55.9983V4.69368C0 2.10454 2.1045 4.33845e-05 4.69363 4.33845e-05ZM17.9916 5.5835H16.0929C15.6017 5.5835 15.2033 5.18518 15.2033 4.6939C15.2033 4.20263 15.6017 3.8043 16.0929 3.8043H17.9916C18.4829 3.8043 18.8812 4.20263 18.8812 4.6939C18.8812 5.18518 18.4829 5.5835 17.9916 5.5835ZM21.7892 5.5835H22.7385C23.2298 5.5835 23.6281 5.18518 23.6281 4.6939C23.6281 4.20263 23.2298 3.8043 22.7385 3.8043H21.7892C21.2979 3.8043 20.8996 4.20263 20.8996 4.6939C20.8996 5.18518 21.2979 5.5835 21.7892 5.5835ZM12.2887 5.5835H11.3394C10.8481 5.5835 10.4498 5.18518 10.4498 4.6939C10.4498 4.20263 10.8481 3.8043 11.3394 3.8043H12.2887C12.78 3.8043 13.1783 4.20263 13.1783 4.6939C13.1783 5.18518 12.78 5.5835 12.2887 5.5835ZM18.9404 55.1019H15.1364C14.6451 55.1019 14.2468 55.5002 14.2468 55.9915C14.2468 56.4828 14.6451 56.8811 15.1364 56.8811H18.9404C19.4317 56.8811 19.83 56.4828 19.83 55.9915C19.83 55.5002 19.4317 55.1019 18.9404 55.1019ZM27.7045 26.0441C27.9767 25.6392 28.5278 25.5263 28.9394 25.7985C29.3443 26.0773 29.4572 26.6283 29.185 27.0399L27.2863 29.888C26.9942 30.2797 26.4631 30.4191 26.0448 30.1336L23.2034 28.2349C22.7985 27.9627 22.6856 27.4117 22.9578 27.0001C23.23 26.5951 23.781 26.4823 24.1926 26.7545L25.4673 27.6042C24.6374 23.7139 21.1786 20.7862 17.0426 20.7862C13.617 20.7862 10.5233 22.811 9.1491 25.9512C8.94993 26.4026 8.42547 26.6084 7.97403 26.4093C7.52259 26.2101 7.31679 25.6856 7.51595 25.2342C9.16901 21.4501 12.9133 19.0004 17.0426 19.0004C21.9155 19.0004 26.0183 22.3662 27.1336 26.9005L27.7045 26.0441ZM26.1429 32.2712C25.6915 32.0787 25.167 32.2911 24.9745 32.7426C23.6202 35.9359 20.5066 38.0005 17.0411 38.0005C12.9052 38.0005 9.44634 35.0728 8.61649 31.1825L9.89114 32.0322C10.3027 32.3044 10.8538 32.1916 11.126 31.7866C11.3982 31.375 11.2853 30.824 10.8803 30.5518L8.03892 28.6531C7.62067 28.3676 7.08957 28.507 6.79746 28.8987L4.89876 31.7468C4.65313 32.1185 4.72616 32.6364 5.06473 32.9218C5.4697 33.2604 6.08711 33.1675 6.37922 32.736L6.95015 31.8795C8.06547 36.4138 12.1683 39.7797 17.0411 39.7797C21.2236 39.7797 24.9878 37.2902 26.6143 33.433C26.8068 32.9816 26.5944 32.4638 26.1429 32.2712ZM37.0511 10.3898C37.0511 9.8985 37.4494 9.50017 37.9407 9.50017C40.0054 9.50017 41.685 11.1798 41.6783 13.2378C41.6783 13.7291 41.28 14.1274 40.7887 14.1274C40.2975 14.1274 39.8991 13.7291 39.8991 13.2378C39.8991 12.1557 39.0228 11.2794 37.9407 11.2794C37.4494 11.2794 37.0511 10.881 37.0511 10.3898ZM37.9407 4.75356C37.4494 4.75356 37.0511 5.15189 37.0511 5.64316C37.0511 6.13443 37.4494 6.53276 37.9407 6.53276C41.6385 6.53276 44.6525 9.54014 44.6525 13.2446C44.6525 13.7359 45.0509 14.1342 45.5421 14.1342C46.0334 14.1342 46.4317 13.7359 46.4317 13.2446C46.4317 8.55759 42.6211 4.75356 37.9407 4.75356Z" fill="white"/>
</svg>
