<svg width="46" height="46" viewBox="0 0 46 46" fill="none" xmlns="http://www.w3.org/2000/svg">
<path fill-rule="evenodd" clip-rule="evenodd" d="M23 46C35.7026 46 46 35.7025 46 23C46 10.2975 35.7026 0 23 0C10.2974 0 0 10.2975 0 23C0 35.7025 10.2974 46 23 46ZM30.47 22.4393L20.9241 12.8934C20.3383 12.3076 19.3885 12.3076 18.8027 12.8934C18.2169 13.4791 18.2169 14.429 18.8027 15.0148L27.288 23.5L18.8027 31.9852C18.2169 32.571 18.2169 33.5209 18.8027 34.1066C19.3885 34.6924 20.3383 34.6924 20.9241 34.1066L30.47 24.5607C31.0558 23.9749 31.0558 23.0251 30.47 22.4393Z" fill="#C4C4C4"/>
</svg>
