<svg width="19" height="19" viewBox="0 0 19 19" fill="none" xmlns="http://www.w3.org/2000/svg">
<path d="M8.42166 1.41441C8.79195 0.683949 9.83524 0.68395 10.2055 1.41441L12.2583 5.46375C12.4037 5.75056 12.6781 5.94995 12.9958 5.9996L17.4813 6.70057C18.2904 6.82702 18.6128 7.81924 18.0326 8.39714L14.8157 11.6007C14.5879 11.8276 14.4831 12.1503 14.534 12.4678L15.2535 16.9503C15.3832 17.7589 14.5392 18.3722 13.8103 17.9989L9.76942 15.9295C9.48321 15.7829 9.14398 15.7829 8.85777 15.9295L4.81692 17.9989C4.08799 18.3722 3.24395 17.7589 3.37373 16.9503L4.09316 12.4678C4.14411 12.1503 4.03929 11.8276 3.81144 11.6007L0.594629 8.39714C0.0143491 7.81924 0.336743 6.82702 1.14588 6.70057L5.63136 5.9996C5.94906 5.94995 6.22351 5.75056 6.3689 5.46375L8.42166 1.41441Z" fill="#8ED000"/>
</svg>
