<svg width="19" height="19" viewBox="0 0 19 19" fill="none" xmlns="http://www.w3.org/2000/svg">
<path d="M8.42117 1.41441C8.79146 0.683949 9.83475 0.68395 10.205 1.41441L12.2578 5.46375C12.4032 5.75056 12.6776 5.94995 12.9953 5.9996L17.4808 6.70057C18.29 6.82702 18.6123 7.81924 18.0321 8.39714L14.8153 11.6007C14.5874 11.8276 14.4826 12.1503 14.5335 12.4678L15.253 16.9503C15.3827 17.7589 14.5387 18.3722 13.8098 17.9989L9.76893 15.9295C9.48272 15.7829 9.14349 15.7829 8.85728 15.9295L4.81643 17.9989C4.0875 18.3722 3.24346 17.7589 3.37324 16.9503L4.09267 12.4678C4.14363 12.1503 4.0388 11.8276 3.81096 11.6007L0.594141 8.39714C0.0138608 7.81924 0.336255 6.82702 1.14539 6.70057L5.63088 5.9996C5.94858 5.94995 6.22302 5.75056 6.36841 5.46375L8.42117 1.41441Z" fill="#B41E78"/>
</svg>
