<svg width="38" height="69" viewBox="0 0 38 69" fill="none" xmlns="http://www.w3.org/2000/svg">
<path d="M35.2333 66.7174H2.77384V60.9837H35.2333V66.7174ZM6.24868 51.808C6.24868 51.1759 6.76807 50.6621 7.40696 50.6621H30.591C31.2299 50.6621 31.7493 51.1759 31.7493 51.808V58.6875H6.24868V51.808ZM9.72813 44.9284H28.2744V48.3705H9.72813V44.9284ZM17.8453 21.9891C17.8453 21.839 17.8729 21.689 17.9326 21.5526C17.9648 21.498 18.0062 21.4434 18.0475 21.3934C18.0889 21.3161 18.1395 21.2388 18.1992 21.1752C18.4106 20.9615 18.7002 20.8432 18.999 20.8432C19.6379 20.8432 20.1573 21.357 20.1573 21.9891V42.6322H17.8407V21.9891H17.8453ZM10.1832 31.7059L13.2903 22.2437C13.4466 21.7708 13.2765 21.2525 12.8674 20.9614L4.72729 15.1095H14.7933C15.2943 15.1095 15.7402 14.7912 15.8964 14.3184L19.0036 4.85614L22.1107 14.3184C22.267 14.7912 22.7128 15.1095 23.2138 15.1095H33.2799L25.1351 20.9614C24.7306 21.2525 24.5606 21.7708 24.7123 22.2437L27.8194 31.7059L22.4784 27.8637V21.9891C22.4784 20.0884 20.9203 18.547 18.999 18.547C18.0797 18.5425 17.1972 18.9017 16.5537 19.5473C16.5215 19.5792 16.4986 19.6156 16.4664 19.6519C16.0205 20.1112 15.7172 20.6841 15.5885 21.307C15.5425 21.5344 15.5195 21.7617 15.5195 21.9891V27.8637L10.1832 31.7059ZM36.3916 58.6875H34.075V51.808C34.075 49.9073 32.5169 48.3659 30.5956 48.3659V43.7781C30.5956 43.146 30.0762 42.6322 29.4373 42.6322H22.4784V30.701L29.3408 35.639C29.7453 35.93 30.2968 35.93 30.7013 35.639C31.1058 35.348 31.2759 34.8297 31.1242 34.3568L27.1805 22.3255L37.5223 14.8913C37.9268 14.6003 38.0968 14.0819 37.9452 13.609C37.7935 13.1361 37.343 12.8179 36.842 12.8179H24.0504L20.1067 0.786623C19.9504 0.318287 19.5046 0 19.0036 0C18.5026 0 18.0567 0.318287 17.9004 0.786623L13.9522 12.8133H1.16051C0.659511 12.8133 0.213664 13.1316 0.0573877 13.6045C-0.0988884 14.0774 0.0711768 14.5957 0.480253 14.8867L10.8221 22.321L6.87379 34.3477C6.71751 34.8206 6.88758 35.3389 7.29206 35.6299C7.70113 35.9209 8.2481 35.9209 8.65717 35.6299L15.5195 30.6919V42.6277H8.56984C7.93095 42.6277 7.41156 43.1415 7.41156 43.7735V48.3614C5.49028 48.3614 3.93212 49.9028 3.93212 51.8034V58.683H1.61555C0.976659 58.683 0.457271 59.1968 0.457271 59.8288V67.8542C0.457271 68.4862 0.976659 69 1.61555 69H36.3916C37.0305 69 37.5499 68.4862 37.5499 67.8542V59.8288C37.5499 59.2013 37.0305 58.6875 36.3916 58.6875Z" fill="white"/>
</svg>
