<svg width="31" height="29" viewBox="0 0 31 29" fill="none" xmlns="http://www.w3.org/2000/svg">
<path d="M14.6081 0.759474C14.9784 0.0290149 16.0216 0.0290129 16.3919 0.759472L20.1953 8.26204C20.3407 8.54885 20.6151 8.74824 20.9328 8.79789L29.2435 10.0966C30.0526 10.2231 30.375 11.2153 29.7947 11.7932L23.8346 17.7288C23.6068 17.9557 23.502 18.2783 23.5529 18.5958L24.8859 26.9011C25.0156 27.7097 24.1716 28.3229 23.4427 27.9496L15.9558 24.1154C15.6696 23.9689 15.3304 23.9689 15.0442 24.1154L7.55733 27.9496C6.8284 28.3229 5.98436 27.7097 6.11414 26.9011L7.44709 18.5958C7.49805 18.2783 7.39322 17.9557 7.16538 17.7288L1.2053 11.7932C0.625021 11.2153 0.947413 10.2231 1.75655 10.0966L10.0672 8.79789C10.3849 8.74824 10.6593 8.54885 10.8047 8.26204L14.6081 0.759474Z" fill="#E30517"/>
</svg>
