<svg width="20" height="21" viewBox="0 0 20 21" fill="none" xmlns="http://www.w3.org/2000/svg">
<path d="M19.4851 14.8005L16.9988 12.3059C16.3133 11.6182 15.1979 11.6182 14.5125 12.3059L13.3823 13.4398C12.863 13.9608 12.018 13.9606 11.4989 13.44L6.6005 8.521C6.07999 7.99876 6.07991 7.15349 6.6005 6.63117C6.78253 6.44853 7.30522 5.9241 7.73062 5.49729C8.41308 4.81259 8.42261 3.69697 7.72995 3.00208L5.24432 0.516011C4.55885 -0.171703 3.4435 -0.171703 2.75986 0.514209C2.2483 1.02301 2.0833 1.18715 1.85392 1.41529C-0.617955 3.89536 -0.617955 7.93076 1.85381 10.4108L9.61523 18.2021C12.0929 20.6881 16.1031 20.6883 18.5809 18.2021L19.4851 17.295C20.1705 16.6072 20.1705 15.4882 19.4851 14.8005ZM3.58682 1.34752C3.8153 1.11829 4.18701 1.11825 4.41623 1.34815L6.90186 3.83422C7.13089 4.06401 7.13089 4.43591 6.90186 4.66574L6.48745 5.08149L3.17455 1.75756L3.58682 1.34752ZM10.4441 17.3707L2.68268 9.57928C0.77025 7.66049 0.665133 4.64755 2.35939 2.60275L5.66268 5.91704C4.79471 6.90427 4.83088 8.4086 5.77155 9.3524L10.6698 14.2711C10.6699 14.2712 10.67 14.2712 10.67 14.2713C11.6096 15.2141 13.1089 15.2527 14.0941 14.3807L17.3974 17.6951C15.3659 19.392 12.3697 19.3027 10.4441 17.3707ZM18.6563 16.4635L18.2419 16.8793L14.9269 13.5532L15.3412 13.1374C15.5697 12.9082 15.9415 12.9081 16.17 13.1374L18.6563 15.632C18.8848 15.8612 18.8848 16.2343 18.6563 16.4635Z" fill="#E30517"/>
</svg>
