<svg width="42" height="45" viewBox="0 0 42 45" fill="none" xmlns="http://www.w3.org/2000/svg">
<path fill-rule="evenodd" clip-rule="evenodd" d="M11.7704 23.4855H12.138L15.45 19.0707L11.3955 19.0816L11.6102 19.3473C11.7122 19.4784 11.7704 19.6385 11.7704 19.8059V23.4855ZM13.976 23.4855H18.0232L21.3352 19.0707H17.288L13.976 23.4855ZM19.8612 23.4855H23.9084L27.2167 19.0707H23.1695L19.8612 23.4855ZM25.7464 23.4855H29.7936L33.1056 19.0707H29.0584L25.7464 23.4855ZM34.9399 19.0707L31.6316 23.4855H35.6788L38.9871 19.0707H34.9399ZM37.5167 23.4855H39.7223V20.5448L37.5167 23.4855ZM38.9871 43.3467C39.3911 43.3467 39.7223 43.0191 39.7223 42.6115V24.9559H1.47039V42.6115C1.47039 43.0191 1.79795 43.3467 2.20558 43.3467H38.9871ZM4.79696 13.1855H1.47039V23.4783H10.2891V20.0534L9.88145 19.5439L9.7941 19.4347L9.28092 18.7905L8.19633 17.4366L4.79696 13.1855ZM38.6523 3.74447L37.4294 7.21299L39.5367 6.55058L38.6523 3.74447ZM6.07445 12.4285L8.14901 15.0235L9.43742 11.373L6.07445 12.4285ZM14.9696 14.2628L18.8312 13.0509L20.6692 7.84991L16.8076 9.06189L14.9696 14.2628ZM20.5891 12.4977L24.447 11.2857L26.285 6.08472L22.4271 7.2967L20.5891 12.4977ZM30.0593 9.52048L31.8972 4.31952L28.5124 5.38228L28.0393 5.52786L26.2013 10.7325L30.0593 9.52048ZM11.199 10.8198L9.36099 16.0208L10.8423 15.5549L13.2189 14.8088L15.0569 9.60783L11.199 10.8198ZM35.6788 7.75892L37.5167 2.55797L34.8307 3.39871L33.6552 3.76631L31.8172 8.96726L33.2293 8.52687L35.6788 7.75892ZM19.6246 14.3429L19.5081 14.3793L10.0198 17.3638L10.2127 17.604H40.4575C40.5449 17.604 40.6322 17.6222 40.7123 17.6549C40.7341 17.6622 40.756 17.6731 40.7778 17.684C40.8397 17.7132 40.8943 17.7532 40.9452 17.7969C40.9598 17.8078 40.9743 17.8187 40.9853 17.8296C41.0399 17.8806 41.0835 17.9425 41.1163 18.008C41.1199 18.0152 41.1236 18.0262 41.1236 18.0334C41.1305 18.0451 41.1345 18.0582 41.1384 18.0709L41.1384 18.0709C41.1406 18.0781 41.1428 18.0851 41.1454 18.0917C41.1672 18.1572 41.1818 18.2263 41.1854 18.2955C41.1854 18.3028 41.1873 18.3091 41.1891 18.3155C41.1909 18.3219 41.1927 18.3283 41.1927 18.3355V42.6115C41.1927 43.8308 40.2064 44.8171 38.9871 44.8171H2.20558C0.986325 44.8171 0 43.8308 0 42.6115V12.4503C0 12.0427 0.327562 11.7151 0.735194 11.7151H3.43212L12.7494 8.78892L16.0141 7.76256L17.9176 7.16567L38.4812 0.709065C38.5649 0.683588 38.6523 0.672669 38.7396 0.679948C38.7623 0.679948 38.782 0.682815 38.804 0.686005L38.8124 0.687227C38.8779 0.698146 38.9435 0.716344 39.0017 0.745461C39.0078 0.747886 39.0138 0.749908 39.0199 0.751929C39.032 0.755974 39.0442 0.760018 39.0563 0.767298C39.1182 0.800054 39.18 0.843729 39.231 0.898323C39.2328 0.901964 39.2355 0.905606 39.2383 0.909247C39.241 0.912885 39.2437 0.916522 39.2455 0.92016C39.2528 0.929259 39.2583 0.938358 39.2637 0.947457C39.2692 0.956556 39.2747 0.965655 39.2819 0.974754C39.322 1.02935 39.3547 1.09122 39.3802 1.15673C39.382 1.16401 39.3857 1.16947 39.3893 1.17493C39.3929 1.18039 39.3966 1.18585 39.3984 1.19313L41.16 6.80899C41.2837 7.19843 41.0653 7.6097 40.6795 7.73345L33.717 9.91719L30.8527 10.8162L28.9164 11.424L19.7957 14.2883L19.6246 14.3429ZM2.94084 20.5411H4.41123V22.0115H2.94084V20.5411ZM4.41123 14.6559H2.94084V16.1263H4.41123V14.6559ZM7.35553 20.5411H8.82592V22.0115H7.35553V20.5411ZM36.7816 29.3671H4.4149V30.8375H36.7816V29.3671ZM13.9761 36.7263H4.4149V35.2523H36.7816V36.7263H27.2168V41.1375H25.7464V36.7263H15.4464V41.1375H13.9761V36.7263Z" fill="#9B9B9B"/>
</svg>
