<svg width="22" height="22" viewBox="0 0 22 22" fill="none" xmlns="http://www.w3.org/2000/svg">
<path d="M10.3719 21.493C10.7384 21.7888 11.2616 21.7888 11.6281 21.493L13.5342 19.9545C13.7257 19.8 13.9674 19.7214 14.2131 19.7339L16.6595 19.8582C17.1299 19.8821 17.5532 19.5746 17.6758 19.1199L18.3136 16.7547C18.3776 16.5172 18.527 16.3116 18.7331 16.1773L20.7854 14.8399C21.18 14.5827 21.3416 14.0851 21.1736 13.6452L20.2993 11.3569C20.2115 11.1271 20.2115 10.8729 20.2993 10.6431L21.1736 8.35481C21.3416 7.91486 21.18 7.41726 20.7854 7.16013L18.7331 5.82271C18.527 5.68839 18.3776 5.4828 18.3136 5.24526L17.6758 2.88013C17.5532 2.42541 17.1299 2.11787 16.6595 2.14177L14.2131 2.26608C13.9674 2.27857 13.7257 2.20004 13.5342 2.04552L11.6281 0.506958C11.2616 0.211153 10.7384 0.211153 10.3719 0.506958L8.46576 2.04552C8.27432 2.20004 8.03263 2.27857 7.78693 2.26608L5.34047 2.14177C4.87012 2.11787 4.44683 2.42541 4.32422 2.88013L3.68644 5.24526C3.62239 5.4828 3.47302 5.68839 3.2669 5.82271L1.21461 7.16013C0.820038 7.41726 0.658358 7.91486 0.826436 8.35481L1.70066 10.6431C1.78846 10.8729 1.78846 11.1271 1.70066 11.3569L0.826436 13.6452C0.658358 14.0851 0.820037 14.5827 1.21461 14.8399L3.2669 16.1773C3.47302 16.3116 3.62239 16.5172 3.68644 16.7547L4.32421 19.1199C4.44683 19.5746 4.87012 19.8821 5.34047 19.8582L7.78693 19.7339C8.03263 19.7214 8.27432 19.8 8.46576 19.9545L10.3719 21.493Z" fill="#3B9BE7"/>
<path fill-rule="evenodd" clip-rule="evenodd" d="M10.8298 14.8112L10.809 14.8334L6 10.3293L7.36719 8.86955L10.8395 12.1217L15.3171 8L16.6716 9.47148L10.8486 14.8316L10.8298 14.8112Z" fill="white"/>
</svg>
