<svg width="46" height="47" viewBox="0 0 46 47" fill="none" xmlns="http://www.w3.org/2000/svg">
<path fill-rule="evenodd" clip-rule="evenodd" d="M11.256 4.62221C11.1428 4.68866 11.0119 4.72013 10.881 4.72013C10.5236 4.72363 10.2122 4.48582 10.1238 4.13959C10.0353 3.80036 10.191 3.44014 10.5059 3.27227C13.9629 1.39076 17.848 0.404541 21.7968 0.404541C22.2285 0.404541 22.5752 0.750767 22.5752 1.17393C22.5752 1.5971 22.2285 1.94333 21.7968 1.94333C18.1098 1.94333 14.4866 2.8666 11.256 4.62221ZM2.30402 23.5283C2.31109 30.5123 6.13605 36.9507 12.3105 40.3535L8.18476 45.1097H5.42484C4.99316 45.1097 4.6464 45.456 4.6464 45.8791C4.6464 46.3058 4.9967 46.6485 5.42484 46.6485H13.2234C13.655 46.6485 14.0018 46.3023 14.0018 45.8791C14.0018 45.4525 13.6515 45.1097 13.2234 45.1097H10.2405L13.747 41.0669C18.6724 43.2842 24.3055 43.3751 29.2981 41.3152L32.5852 45.1062H29.6024C29.1707 45.1062 28.824 45.4525 28.824 45.8756C28.824 46.3023 29.1743 46.645 29.6024 46.645H37.4009C37.8326 46.645 38.1794 46.2988 38.1794 45.8756C38.1794 45.449 37.8291 45.1062 37.4009 45.1062H34.641L30.7665 40.6368C33.7883 39.091 36.35 36.7898 38.1935 33.9605C38.4129 33.6038 38.3067 33.1387 37.9494 32.9114C37.5955 32.6841 37.1214 32.7785 36.8808 33.1247C32.0545 40.5354 22.4514 43.3157 14.3415 39.6471C6.22805 35.9819 2.07402 26.9836 4.59333 18.5272C7.1091 10.0709 15.5268 4.72715 24.355 5.98265C33.1797 7.23816 39.7327 14.7118 39.7362 23.5283C39.7362 23.7766 39.7327 24.0214 39.7221 24.2662C39.7044 24.6929 40.0405 25.0496 40.4687 25.0671C40.9004 25.0846 41.2648 24.7523 41.2825 24.3292C41.2931 24.0669 41.2966 23.7941 41.2966 23.5248C41.2966 12.8827 32.5675 4.25852 21.8003 4.25852C11.0331 4.25852 2.30402 12.8862 2.30402 23.5283ZM21.7959 38.1713C21.3643 38.1713 21.0175 37.8251 21.0175 37.4019C21.0175 36.9752 21.3678 36.629 21.7959 36.629C22.2276 36.629 22.5744 36.9752 22.5744 37.4019C22.5779 37.8251 22.2276 38.1713 21.7959 38.1713ZM21.7959 35.0867C20.5044 35.0867 19.4571 36.1219 19.4571 37.3984C19.4571 38.6749 20.5044 39.7101 21.7959 39.7101C23.0874 39.7101 24.1348 38.6749 24.1348 37.3984C24.1383 36.1219 23.091 35.0867 21.7959 35.0867ZM16.3368 35.0867C16.3368 34.6635 15.99 34.3173 15.5583 34.3173C15.1302 34.3173 14.7799 34.6635 14.7799 35.0867C14.7799 35.5133 15.1267 35.8595 15.5583 35.8595C15.9865 35.8595 16.3368 35.5133 16.3368 35.0867ZM17.8972 35.0901C17.8972 36.3666 16.8498 37.4018 15.5583 37.4018C14.2668 37.4018 13.2195 36.3666 13.2195 35.0901C13.2195 33.8137 14.2668 32.7785 15.5583 32.7785C16.8498 32.7785 17.8972 33.8137 17.8972 35.0901ZM21.7959 32.0054C21.3643 32.0054 21.0175 31.6592 21.0175 31.2361C21.0175 30.8094 21.3678 30.4667 21.7959 30.4667C22.2276 30.4667 22.5744 30.8129 22.5744 31.2361C22.5779 31.6592 22.2276 32.0054 21.7959 32.0054ZM21.7959 28.9209C20.5044 28.9209 19.4571 29.9561 19.4571 31.2326C19.4571 32.509 20.5044 33.5442 21.7959 33.5442C23.0874 33.5442 24.1348 32.509 24.1348 31.2326C24.1383 29.9561 23.091 28.9209 21.7959 28.9209ZM28.0358 34.3174C27.6077 34.3174 27.2574 34.6602 27.2574 35.0868C27.2574 35.5135 27.6077 35.8562 28.0358 35.8562C28.464 35.8562 28.8143 35.5135 28.8143 35.0868C28.8143 34.6637 28.464 34.3174 28.0358 34.3174ZM28.0394 32.7752C29.3308 32.7752 30.3782 33.8103 30.3782 35.0868C30.3782 36.3668 29.3308 37.402 28.0394 37.3985C26.7479 37.3985 25.7005 36.3633 25.7005 35.0868C25.7005 33.8103 26.7479 32.7752 28.0394 32.7752ZM10.8797 30.4635C10.8797 30.8901 10.5294 31.2329 10.1013 31.2329C9.66962 31.2329 9.32286 30.8866 9.32286 30.4635C9.32286 30.0368 9.67316 29.6941 10.1013 29.6941C10.5294 29.6941 10.8797 30.0368 10.8797 30.4635ZM7.76245 30.4635C7.76245 31.74 8.8098 32.7751 10.1013 32.7751C11.3928 32.7751 12.4402 31.74 12.4402 30.4635C12.4402 29.187 11.3928 28.1518 10.1013 28.1518C8.8098 28.1518 7.76245 29.187 7.76245 30.4635ZM12.4374 20.4437C12.0093 20.4437 11.659 20.7864 11.659 21.2131C11.659 21.6397 12.0093 21.9825 12.4374 21.9825C12.8656 21.9825 13.2159 21.6397 13.2159 21.2131C13.2159 20.7899 12.8656 20.4437 12.4374 20.4437ZM12.441 18.9014C13.7325 18.9014 14.7798 19.9366 14.7798 21.2131C14.7798 22.4931 13.7325 23.5283 12.441 23.5248C11.1495 23.5248 10.1021 22.4896 10.1021 21.2131C10.1021 19.9366 11.1495 18.9014 12.441 18.9014ZM16.3404 29.6939C15.9087 29.6939 15.5619 29.3477 15.5619 28.9245C15.5619 28.4979 15.9122 28.1551 16.3404 28.1551C16.7721 28.1551 17.1188 28.5014 17.1188 28.9245C17.1188 29.3477 16.7685 29.6939 16.3404 29.6939ZM18.6792 28.921C18.6792 27.6446 17.6319 26.6094 16.3404 26.6094C15.0489 26.6094 14.0015 27.6446 14.0015 28.921C14.0015 30.1975 15.0489 31.2327 16.3404 31.2327C17.6319 31.2327 18.6792 30.1975 18.6792 28.921ZM31.9372 17.3591C32.3654 17.3591 32.7157 17.0164 32.7157 16.5897C32.7157 16.163 32.3654 15.8203 31.9372 15.8203C31.5091 15.8203 31.1588 16.163 31.1588 16.5897C31.1588 17.0129 31.5056 17.3591 31.9372 17.3591ZM31.9337 18.9014C30.6422 18.9014 29.5948 17.8662 29.5948 16.5897C29.5948 15.3132 30.6422 14.278 31.9337 14.278C33.2252 14.278 34.2725 15.3132 34.2725 16.5897C34.2725 17.8662 33.2252 18.9014 31.9337 18.9014ZM21.0182 11.9666C21.4499 11.9666 21.7967 12.3128 21.7967 12.736C21.7967 13.1627 21.4464 13.5054 21.0182 13.5054C20.5866 13.5054 20.2363 13.1592 20.2363 12.736C20.2398 12.3128 20.5866 11.9666 21.0182 11.9666ZM21.0182 15.0477C22.3097 15.0477 23.3571 14.0125 23.3571 12.736C23.3571 11.4595 22.3097 10.4243 21.0182 10.4243C19.7267 10.4243 18.6794 11.4595 18.6794 12.736C18.6794 14.0125 19.7267 15.0477 21.0182 15.0477ZM22.9678 21.5208C22.6105 21.318 22.2071 21.2131 21.7966 21.2131C20.7564 21.2131 19.8399 21.8915 19.5463 22.8812C19.2526 23.8675 19.6595 24.9271 20.537 25.4797C21.4145 26.0323 22.5574 25.9448 23.3394 25.2629C23.5481 25.081 23.8383 25.0216 24.1036 25.109C24.369 25.1964 24.5636 25.4167 24.6202 25.686C24.6769 25.9553 24.5813 26.2351 24.3726 26.4169C22.8794 27.7179 20.6325 27.6969 19.1641 26.368C17.6957 25.039 17.4728 22.8323 18.651 21.2445C19.8293 19.6568 22.0266 19.2021 23.7498 20.1884C24.1001 20.4087 24.2133 20.8668 24.0046 21.2236C23.7958 21.5803 23.3394 21.7132 22.9678 21.5208ZM42.0744 31.2327C41.211 31.2327 40.514 30.5437 40.514 29.6904C40.514 28.8406 41.211 28.1481 42.0744 28.1481C42.9342 28.1481 43.6348 28.8371 43.6348 29.6904C43.6312 30.5437 42.9342 31.2327 42.0744 31.2327ZM42.0744 26.6093C40.6555 26.6128 39.4206 27.5641 39.0668 28.921H33.3594C33.1542 28.921 32.956 28.8406 32.8074 28.6937L27.4857 23.4338C27.047 23.0002 26.4525 22.7554 25.8333 22.7554H21.7996C21.3679 22.7554 21.0212 23.1016 21.0212 23.5248C21.0212 23.9514 21.3715 24.2977 21.7996 24.2977H25.8333C26.0421 24.2977 26.2402 24.3781 26.3853 24.525L31.7105 29.7883C32.1493 30.222 32.7437 30.4668 33.3665 30.4668H39.0703C39.4772 32.0126 41.0164 32.9953 42.6122 32.7225C44.208 32.4497 45.3261 31.0193 45.1881 29.4246C45.0395 27.8299 43.6914 26.6058 42.0744 26.6093ZM3.24523 9.44153C1.9785 11.0712 0.934684 12.8583 0.145631 14.7608C-0.0171327 15.1525 0.173938 15.6002 0.570234 15.761C0.665769 15.7995 0.764843 15.8205 0.867455 15.817C1.18237 15.817 1.46897 15.6281 1.58928 15.3379C2.32526 13.5648 3.2983 11.8966 4.48011 10.3753C4.73487 10.0361 4.66764 9.56044 4.32796 9.30514C3.99182 9.05334 3.5106 9.11279 3.24523 9.44153ZM35.8259 40.5704C35.7764 40.2906 35.8825 40.0108 36.1019 39.8324C37.2094 38.8812 38.2214 37.8215 39.1095 36.6779C39.3749 36.3457 39.8596 36.2897 40.1958 36.545C40.5354 36.8003 40.6027 37.276 40.3479 37.6152C39.389 38.8462 38.3098 39.9793 37.1209 40.997C36.9122 41.1894 36.615 41.2488 36.346 41.1614C36.0771 41.074 35.8754 40.8466 35.8259 40.5704Z" fill="white"/>
</svg>
