<svg width="28" height="52" viewBox="0 0 28 52" fill="none" xmlns="http://www.w3.org/2000/svg">
<path d="M25.9047 49.5237H2.1011V45.3381H25.9047V49.5237ZM4.64932 38.6398C4.64932 38.1784 5.03021 37.8033 5.49873 37.8033H22.5003C22.9689 37.8033 23.3498 38.1784 23.3498 38.6398V43.6619H4.64932V38.6398ZM7.20091 33.6177H20.8015V36.1304H7.20091V33.6177ZM13.1535 16.872C13.1535 16.7625 13.1737 16.6529 13.2175 16.5533C13.2411 16.5135 13.2715 16.4737 13.3018 16.4372C13.3321 16.3807 13.3692 16.3243 13.413 16.2778C13.5681 16.1218 13.7804 16.0355 13.9995 16.0355C14.4681 16.0355 14.8489 16.4106 14.8489 16.872V31.9415H13.1501V16.872H13.1535ZM7.53461 23.9653L9.81318 17.0579C9.92778 16.7127 9.80306 16.3343 9.50308 16.1218L3.53363 11.8499H10.9154C11.2828 11.8499 11.6097 11.6176 11.7243 11.2724L14.0029 4.36496L16.2815 11.2724C16.3961 11.6176 16.723 11.8499 17.0904 11.8499H24.4722L18.4994 16.1218C18.2028 16.3343 18.078 16.7127 18.1893 17.0579L20.4678 23.9653L16.5511 21.1605V16.872C16.5511 15.4845 15.4085 14.3593 13.9995 14.3593C13.3254 14.356 12.6782 14.6182 12.2063 15.0895C12.1828 15.1128 12.1659 15.1393 12.1423 15.1659C11.8154 15.5011 11.5929 15.9194 11.4985 16.3741C11.4648 16.5401 11.4479 16.706 11.4479 16.872V21.1605L7.53461 23.9653ZM26.7541 43.6619H25.0553V38.6398C25.0553 37.2523 23.9127 36.1271 22.5037 36.1271V32.778C22.5037 32.3166 22.1228 31.9415 21.6543 31.9415H16.5511V23.2317L21.5835 26.8365C21.8801 27.0489 22.2846 27.0489 22.5812 26.8365C22.8779 26.624 23.0026 26.2456 22.8913 25.9004L19.9993 17.1176L27.5833 11.6906C27.8799 11.4782 28.0046 11.0998 27.8934 10.7546C27.7822 10.4094 27.4519 10.177 27.0844 10.177H17.7039L14.8119 1.39421C14.6973 1.05233 14.3703 0.819977 14.0029 0.819977C13.6355 0.819977 13.3086 1.05233 13.194 1.39421L10.2986 10.1737H0.917999C0.550597 10.1737 0.223642 10.406 0.10904 10.7512C-0.00556261 11.0965 0.119152 11.4749 0.419141 11.6873L8.00313 17.1143L5.10773 25.8938C4.99313 26.239 5.11784 26.6174 5.41446 26.8298C5.71445 27.0423 6.11556 27.0423 6.41555 26.8298L11.4479 23.2251V31.9382H6.35151C5.88298 31.9382 5.5021 32.3133 5.5021 32.7746V36.1238C4.09316 36.1238 2.95051 37.249 2.95051 38.6365V43.6585H1.25169C0.783172 43.6585 0.402288 44.0336 0.402288 44.495V50.3535C0.402288 50.8149 0.783172 51.19 1.25169 51.19H26.7541C27.2226 51.19 27.6035 50.8149 27.6035 50.3535V44.495C27.6035 44.0369 27.2226 43.6619 26.7541 43.6619Z" fill="white"/>
</svg>
