<svg width="39" height="45" viewBox="0 0 39 45" fill="none" xmlns="http://www.w3.org/2000/svg">
<path fill-rule="evenodd" clip-rule="evenodd" d="M27.7031 1.30941C27.7031 0.950783 27.9952 0.660004 28.3555 0.660004C33.7108 0.660004 38.0681 4.99747 38.0632 10.3236C38.0632 10.6822 37.7711 10.973 37.4108 10.973C37.0506 10.973 36.7584 10.6822 36.7584 10.3236C36.7584 5.70987 32.9903 1.95882 28.3555 1.95882C27.9952 1.95882 27.7031 1.66804 27.7031 1.30941ZM3.97496 43.6566H22.0856C23.2638 43.6566 24.2229 42.7068 24.2229 41.534V39.4113H1.84257V41.534C1.84257 42.7068 2.79679 43.6566 3.97496 43.6566ZM22.0905 1.95886H3.97496C2.79679 1.95886 1.8377 2.91359 1.8377 4.0864V5.51122H24.2229V4.08155C24.2229 2.91359 23.2686 1.95886 22.0905 1.95886ZM24.218 6.81488H1.8377V38.1076H24.218V6.81488ZM3.97496 0.660047H22.0856C23.9843 0.660047 25.5276 2.19633 25.5325 4.0864V41.5388C25.5325 43.4289 23.9892 44.9652 22.0905 44.9652H3.97496C2.07626 44.9652 0.532959 43.4289 0.532959 41.5388V4.0864C0.532959 2.19633 2.07626 0.660047 3.97496 0.660047ZM13.7263 4.73594H12.3339C11.9736 4.73594 11.6815 4.44516 11.6815 4.08654C11.6815 3.72791 11.9736 3.43713 12.3339 3.43713H13.7263C14.0865 3.43713 14.3786 3.72791 14.3786 4.08654C14.3786 4.44516 14.0865 4.73594 13.7263 4.73594ZM16.511 4.73594H17.2072C17.5675 4.73594 17.8596 4.44516 17.8596 4.08654C17.8596 3.72791 17.5675 3.43713 17.2072 3.43713H16.511C16.1508 3.43713 15.8586 3.72791 15.8586 4.08654C15.8586 4.44516 16.1508 4.73594 16.511 4.73594ZM9.54449 4.73594H8.8483C8.48803 4.73594 8.19592 4.44516 8.19592 4.08654C8.19592 3.72791 8.48803 3.43713 8.8483 3.43713H9.54449C9.90475 3.43713 10.1969 3.72791 10.1969 4.08654C10.1969 4.44516 9.90475 4.73594 9.54449 4.73594ZM14.4223 40.8844H11.6327C11.2725 40.8844 10.9803 41.1752 10.9803 41.5338C10.9803 41.8924 11.2725 42.1832 11.6327 42.1832H14.4223C14.7826 42.1832 15.0747 41.8924 15.0747 41.5338C15.0747 41.1752 14.7826 40.8844 14.4223 40.8844ZM20.8488 19.6722C21.0484 19.3766 21.4524 19.2942 21.7543 19.4929C22.0513 19.6964 22.134 20.0987 21.9344 20.3992L20.542 22.4782C20.3278 22.7642 19.9384 22.8659 19.6316 22.6575L17.5479 21.2715C17.251 21.0728 17.1682 20.6706 17.3678 20.3701C17.5674 20.0745 17.9715 19.9921 18.2733 20.1908L19.2081 20.8111C18.5995 17.9712 16.0631 15.8339 13.03 15.8339C10.5179 15.8339 8.2492 17.312 7.24143 19.6044C7.09537 19.9339 6.71076 20.0841 6.37971 19.9388C6.04866 19.7934 5.89773 19.4105 6.04379 19.081C7.25603 16.3186 10.0018 14.5303 13.03 14.5303C16.6035 14.5303 19.6122 16.9873 20.4301 20.2974L20.8488 19.6722ZM19.7043 24.218C19.3733 24.0775 18.9887 24.2325 18.8475 24.5621C17.8543 26.8932 15.571 28.4004 13.0297 28.4004C9.99664 28.4004 7.46017 26.2632 6.85162 23.4232L7.78636 24.0435C8.0882 24.2422 8.49229 24.1599 8.69189 23.8642C8.8915 23.5638 8.80874 23.1615 8.51176 22.9628L6.42806 21.5768C6.12135 21.3684 5.73187 21.4701 5.51766 21.7561L4.12528 23.8351C3.94515 24.1065 3.9987 24.4846 4.24699 24.6929C4.54397 24.9401 4.99674 24.8723 5.21095 24.5573L5.62964 23.9321C6.44754 27.2421 9.45624 29.6992 13.0297 29.6992C16.0968 29.6992 18.8572 27.8818 20.05 25.0661C20.1912 24.7366 20.0354 24.3586 19.7043 24.218ZM27.7031 8.24455C27.7031 7.88592 27.9952 7.59514 28.3555 7.59514C29.8696 7.59514 31.1013 8.82126 31.0964 10.3236C31.0964 10.6823 30.8043 10.973 30.4441 10.973C30.0838 10.973 29.7917 10.6823 29.7917 10.3236C29.7917 9.53367 29.1491 8.89396 28.3555 8.89396C27.9952 8.89396 27.7031 8.60318 27.7031 8.24455ZM28.3555 4.13012C27.9952 4.13012 27.7031 4.4209 27.7031 4.77953C27.7031 5.13816 27.9952 5.42894 28.3555 5.42894C31.0672 5.42894 33.2775 7.62432 33.2775 10.3286C33.2775 10.6872 33.5696 10.978 33.9299 10.978C34.2901 10.978 34.5823 10.6872 34.5823 10.3286C34.5823 6.90707 31.7878 4.13012 28.3555 4.13012Z" fill="white"/>
</svg>
