<svg width="55" height="55" viewBox="0 0 55 55" fill="none" xmlns="http://www.w3.org/2000/svg">
<path d="M27.5 0L33.6741 19.002H53.6541L37.49 30.7459L43.6641 49.748L27.5 38.0041L11.3359 49.748L17.51 30.7459L1.34595 19.002H21.3259L27.5 0Z" fill="url(#paint0_linear)"/>
<path fill-rule="evenodd" clip-rule="evenodd" d="M34.1181 27.6098C34.1181 31.6913 30.8097 34.9927 26.7351 34.9927C22.6536 34.9927 19.3522 31.6843 19.3522 27.6098C19.3522 23.5282 22.6606 20.2268 26.7351 20.2268C30.8097 20.2268 34.1181 23.5352 34.1181 27.6098Z" fill="white"/>
<path fill-rule="evenodd" clip-rule="evenodd" d="M30.2315 20.7143C31.3877 21.2785 32.342 22.1213 33.0663 23.1381L35.511 22.6506L33.8673 24.5103C34.3757 25.6456 34.6126 26.8993 34.529 28.1878L40.4144 31.3987L33.728 31.2455C33.1429 32.4017 32.3002 33.3559 31.3042 34.1011L31.7917 36.525L29.9111 34.8812C28.7758 35.3897 27.5221 35.6474 26.2545 35.5638L23.0297 41.4562L23.1829 34.7419C22.0267 34.1778 21.0725 33.335 20.3481 32.3181L17.9034 32.8056L19.5471 30.9251C19.0387 29.8107 18.8019 28.557 18.8855 27.2615L13 24.0506L19.6864 24.2038C20.2715 23.0476 21.1143 22.0725 22.1103 21.3481L21.6227 18.9243L23.5033 20.5471C24.6386 20.0596 25.8923 19.8019 27.16 19.8785L30.3848 14L30.2315 20.7143ZM28.5112 21.0068C30.3708 21.4944 31.8544 22.7133 32.732 24.2526C33.6305 25.7779 33.923 27.6794 33.4355 29.539C32.927 31.3778 31.736 32.8683 30.1897 33.7668C28.6435 34.6444 26.7699 34.9578 24.9102 34.4494C23.0506 33.9618 21.567 32.7499 20.6894 31.2037C19.7909 29.6574 19.4984 27.7769 19.9859 25.9172C20.4944 24.0784 21.6854 22.5879 23.2317 21.6894C24.7779 20.8118 26.6515 20.4984 28.5112 21.0068Z" fill="#E30613"/>
<path fill-rule="evenodd" clip-rule="evenodd" d="M29.9182 24.5381L25.9272 26.948L27.4944 28.536L29.9182 24.5381Z" fill="#878787"/>
<path fill-rule="evenodd" clip-rule="evenodd" d="M22.2845 32.0673L25.5789 26.5998L31.0465 23.3053C30.3082 22.5809 29.3818 22.0377 28.3232 21.7591C26.6794 21.3063 25.0008 21.5849 23.6287 22.365C22.2566 23.166 21.184 24.4824 20.7312 26.1401C20.2994 27.7838 20.5571 29.4694 21.3581 30.8345C21.6088 31.2803 21.9223 31.6912 22.2845 32.0673Z" fill="#878787"/>
<path fill-rule="evenodd" clip-rule="evenodd" d="M32.0702 24.6287C31.8125 24.1829 31.4991 23.772 31.1369 23.3959L27.8424 28.8634L22.3818 32.1579C23.1201 32.8823 24.0465 33.4255 25.1052 33.7042C26.7698 34.1569 28.4275 33.8783 29.7996 33.0982C31.1717 32.2972 32.2443 30.9808 32.6971 29.3231C33.1219 27.6794 32.8712 26.0008 32.0702 24.6287Z" fill="#E30613"/>
<defs>
<linearGradient id="paint0_linear" x1="27.5" y1="0" x2="27.5" y2="55" gradientUnits="userSpaceOnUse">
<stop stop-color="#CECECE"/>
<stop offset="1" stop-color="#706F6F"/>
</linearGradient>
</defs>
</svg>
