<svg width="57" height="47" viewBox="0 0 57 47" fill="none" xmlns="http://www.w3.org/2000/svg">
<path fill-rule="evenodd" clip-rule="evenodd" d="M30.6113 15.5771C30.105 15.8082 29.7528 16.3145 29.7528 16.9052C29.7528 17.3968 29.995 17.8333 30.3692 18.0975L30.6113 15.5771ZM53.0378 18.0938C53.412 17.8333 53.6541 17.3968 53.6541 16.9052C53.6541 16.3145 53.302 15.8082 52.7957 15.5771L53.0378 18.0938ZM31.1286 44.5045H33.792V41.3568H31.1286V44.5045ZM52.2784 41.3568H49.615V44.5045H52.2784V41.3568ZM49.4205 2.67078C49.692 2.25989 50.2423 2.14616 50.6532 2.41398C54.2375 4.76925 56.2112 8.40489 56.2149 12.6569C56.2149 13.0311 55.9801 13.3649 55.6279 13.4933C55.5288 13.53 55.4261 13.5484 55.3234 13.5484C55.0666 13.5484 54.8134 13.4346 54.641 13.2292L54.6353 13.2228C54.5496 13.1255 53.5138 11.95 51.9005 11.0463C49.7434 9.83934 47.5899 9.65224 45.4987 10.4997C42.5785 11.681 40.1682 11.7617 38.1651 10.7455C36.793 12.6936 33.9608 13.3466 32.5961 13.552L31.965 20.0859C31.7376 22.4448 32.7868 24.7744 34.7055 26.1685L38.8328 29.1658C40.5497 30.4132 42.8573 30.4132 44.5742 29.1658L48.6941 26.1759C50.6128 24.7854 51.6621 22.4522 51.4346 20.0932L50.7339 12.844C50.6862 12.3524 51.0457 11.9195 51.5337 11.8718C52.0253 11.8241 52.4582 12.1836 52.5059 12.6715L52.6049 13.7024C54.1934 13.9079 55.4261 15.2653 55.4261 16.9088C55.4261 18.3359 54.5053 19.5503 53.2102 19.9795C53.4744 22.9401 52.1463 25.8604 49.7397 27.6103L49.5526 27.7461C49.9268 27.9221 50.29 28.1239 50.6385 28.3587C51.0457 28.6339 51.1521 29.1878 50.877 29.5951C50.7045 29.8519 50.4257 29.9876 50.1396 29.9876C49.9671 29.9876 49.7947 29.9362 49.6406 29.8335C49.3985 29.6684 49.1454 29.5217 48.8812 29.3969C48.3089 32.8455 45.308 35.4832 41.698 35.4832C40.0544 35.4832 38.4439 34.9183 37.1599 33.8947C36.7783 33.5866 36.7123 33.0289 37.0205 32.6437C37.3286 32.2622 37.8863 32.1961 38.2715 32.5043C39.2547 33.2894 40.4396 33.704 41.7017 33.704C44.2587 33.704 46.4122 31.9503 47.0286 29.584L45.6161 30.6076C44.4422 31.4587 43.0701 31.8843 41.698 31.8843C40.3223 31.8843 38.9502 31.4587 37.7799 30.6076L36.3711 29.584C36.4812 30.017 36.6463 30.4315 36.859 30.8241C37.0938 31.257 36.9361 31.7962 36.5032 32.031C36.3674 32.1044 36.2207 32.1411 36.0776 32.1411C35.7621 32.1411 35.4576 31.9723 35.2962 31.6752C34.911 30.9635 34.6468 30.1894 34.5148 29.3933C32.486 30.3655 31.1249 32.4419 31.1249 34.7789V39.5775H33.7884V36.2427C33.7884 35.7547 34.1883 35.3548 34.6799 35.3548C35.1715 35.3548 35.5713 35.7511 35.5713 36.2427V44.5081H47.8393V36.2463C47.8393 35.7584 48.2392 35.3585 48.7308 35.3585C49.2224 35.3585 49.6186 35.7547 49.6186 36.2463V39.5811H52.2821V34.7825C52.2821 33.6086 51.9409 32.4713 51.2952 31.4954C51.0237 31.0845 51.1374 30.5342 51.5483 30.2628C51.9592 29.9913 52.5095 30.1013 52.781 30.5122C53.6175 31.7779 54.0614 33.2527 54.0614 34.7789V45.396C54.0614 45.8839 53.6615 46.2838 53.1699 46.2838H30.2408C29.7492 46.2838 29.3493 45.8876 29.3493 45.396V34.7789C29.3493 31.7082 31.1579 28.9861 33.8434 27.7461L33.6563 27.6103C31.246 25.8604 29.9216 22.9401 30.1857 19.9795C28.8907 19.5503 27.9699 18.3359 27.9699 16.9052C27.9699 15.2616 29.2025 13.9005 30.7911 13.6951L30.8644 12.9504C30.3362 12.0075 28.7807 8.83413 29.9693 6.15968C31.2937 3.18073 35.2412 0 42.3473 0C44.4422 0 46.5443 0.421896 48.4263 1.22533C48.8776 1.4161 49.0903 1.94072 48.8959 2.39196C48.7051 2.84321 48.1805 3.05599 47.7293 2.86155C46.0674 2.1535 44.2037 1.7793 42.3473 1.7793C38.4329 1.7793 33.2674 3.11469 31.5945 6.8824C30.8314 8.603 31.7779 10.8372 32.2695 11.8021C33.5646 11.615 35.7584 11.039 36.6939 9.73662C36.5362 9.60088 36.3784 9.45413 36.2207 9.29638C35.8722 8.94785 35.8722 8.38655 36.2207 8.03803C36.5692 7.68951 37.1305 7.68951 37.479 8.03803C37.7689 8.32785 38.0513 8.56998 38.3412 8.77543C39.3831 9.51283 41.1844 10.3236 44.831 8.8488C47.4284 7.7959 50.1909 8.03069 52.825 9.52383C53.3423 9.81733 53.8046 10.1328 54.2081 10.4373C53.6578 7.76288 52.0986 5.49198 49.6773 3.90345C49.2664 3.63197 49.149 3.08167 49.4205 2.67078ZM36.3344 19.8326V18.6256C36.3344 18.134 36.7343 17.7342 37.2259 17.7342C37.7212 17.7342 38.1174 18.134 38.1174 18.6256V19.8326C38.1174 20.3242 37.7175 20.7241 37.2259 20.7241C36.7343 20.7241 36.3344 20.3242 36.3344 19.8326ZM47.9054 16.5975C48.1329 16.5975 48.3603 16.5094 48.5327 16.337C48.8813 15.9885 48.8813 15.4271 48.5327 15.0786C47.9054 14.4513 47.0689 14.1028 46.1775 14.1028C45.2896 14.1028 44.4532 14.4476 43.8222 15.0786C43.4737 15.4271 43.4737 15.9885 43.8222 16.337C44.1707 16.6855 44.732 16.6855 45.0805 16.337C45.374 16.0435 45.7629 15.8821 46.1738 15.8821C46.5883 15.8821 46.9772 16.0435 47.267 16.337C47.4468 16.5131 47.6743 16.5975 47.9054 16.5975ZM39.5774 16.337C39.405 16.5094 39.1775 16.5975 38.9501 16.5975C38.7226 16.5975 38.4951 16.5131 38.3117 16.337C38.0219 16.0435 37.633 15.8821 37.2184 15.8821C36.8076 15.8821 36.4187 16.0435 36.1252 16.337C35.7767 16.6855 35.2154 16.6855 34.8668 16.337C34.5183 15.9885 34.5183 15.4271 34.8668 15.0786C35.4978 14.4476 36.3343 14.1028 37.2221 14.1028C38.1136 14.1028 38.95 14.4513 39.5774 15.0786C39.9259 15.4271 39.9259 15.9885 39.5774 16.337ZM45.2896 18.6256V19.8326C45.2896 20.3242 45.6895 20.7241 46.1811 20.7241C46.6727 20.7241 47.0726 20.3242 47.0726 19.8326V18.6256C47.0726 18.134 46.6764 17.7342 46.1811 17.7342C45.6895 17.7342 45.2896 18.134 45.2896 18.6256ZM44.288 25.8679C43.5726 26.5796 42.6371 26.9354 41.7016 26.9354C40.7661 26.9354 39.8306 26.5796 39.1189 25.8679C38.7704 25.5193 38.7704 24.958 39.1189 24.6095C39.4674 24.261 40.0287 24.261 40.3772 24.6095C41.1073 25.3396 42.2996 25.3396 43.0297 24.6095C43.3782 24.261 43.9395 24.261 44.288 24.6095C44.6366 24.958 44.6366 25.5193 44.288 25.8679ZM42.4574 22.632C42.949 22.632 43.3489 22.2322 43.3489 21.7406V18.7249C43.3489 18.2333 42.949 17.8334 42.4574 17.8334C41.9658 17.8334 41.5659 18.2333 41.5659 18.7249V20.8528H40.9459C40.4543 20.8528 40.0544 21.2526 40.0544 21.7406C40.0544 22.2322 40.4543 22.632 40.9459 22.632H42.4574ZM15.9514 20.5776C16.5567 19.976 17.3565 19.6421 18.2113 19.6421C19.0624 19.6421 19.8658 19.976 20.4711 20.5776C20.8197 20.9262 20.8197 21.4875 20.4711 21.836C20.2987 22.0084 20.0713 22.0965 19.8438 22.0965C19.6127 22.0965 19.3852 22.0084 19.2128 21.836C18.945 21.5682 18.5891 21.4214 18.2113 21.4214C17.8334 21.4214 17.4775 21.5682 17.2097 21.836C16.8612 22.1845 16.2999 22.1845 15.9514 21.836C15.6028 21.4875 15.6028 20.9262 15.9514 20.5776ZM12.0075 21.836C12.3561 21.4875 12.3561 20.9262 12.0075 20.5776C11.4022 19.976 10.6024 19.6421 9.74765 19.6421C8.89285 19.6421 8.09309 19.976 7.48776 20.5776C7.13924 20.9262 7.13924 21.4875 7.48776 21.836C7.83628 22.1845 8.39759 22.1845 8.74611 21.836C9.01392 21.5682 9.36978 21.4214 9.74765 21.4214C10.1255 21.4214 10.4814 21.5682 10.7492 21.836C10.9216 22.0084 11.1491 22.0965 11.3802 22.0965C11.604 22.0965 11.8314 22.0084 12.0075 21.836ZM12.7596 26.4147C13.4346 27.0861 14.5279 27.0861 15.1993 26.4147C15.5441 26.0698 16.1091 26.0698 16.4539 26.4147C16.8025 26.7632 16.8025 27.3245 16.4539 27.673C15.7936 28.3371 14.9131 28.7003 13.9776 28.7003C13.0421 28.7003 12.1616 28.3334 11.5012 27.673C11.1527 27.3245 11.1527 26.7632 11.5012 26.4147C11.8498 26.0662 12.4111 26.0662 12.7596 26.4147ZM13.3759 24.3123H14.5792C15.0708 24.3123 15.4707 23.9124 15.4707 23.4208C15.4707 22.9292 15.0708 22.533 14.5792 22.533H13.3759C12.8843 22.533 12.4844 22.9329 12.4844 23.4208C12.4881 23.9161 12.8843 24.3123 13.3759 24.3123ZM25.255 17.5069L25.5229 19.9172C25.9154 19.6861 26.1759 19.2569 26.1759 18.7689C26.1759 18.1783 25.7907 17.6793 25.255 17.5069ZM16.9382 31.0443L20.9921 28.0983C23.0722 26.5868 24.1911 24.0591 23.905 21.4984L23.5308 18.1159H23.4831C23.3914 18.1159 23.296 18.1122 23.2043 18.1012C22.2981 18.0058 21.5314 17.4482 21.1608 16.6117L19.8034 13.5448C19.7044 13.5558 19.6016 13.5631 19.4989 13.5631C18.9963 13.5631 18.5194 13.431 18.1048 13.2036L18.101 13.2073C17.9775 13.3272 17.8503 13.4506 17.7159 13.5704C18.1232 14.0657 18.8202 14.7811 19.8108 15.3497C20.2033 15.5772 20.3684 16.0615 20.1886 16.4797C19.9758 16.9713 19.3852 17.162 18.9229 16.8942C17.7013 16.1899 16.8428 15.3167 16.3292 14.6894C14.3701 16.0761 11.758 17.1731 8.40489 17.1731C7.22359 17.1731 5.94689 17.0373 4.57848 16.7291C4.57665 16.7383 4.57573 16.7466 4.57482 16.7548C4.5739 16.7631 4.57298 16.7713 4.57115 16.7805L4.0502 21.5021C3.76771 24.0591 4.88665 26.5868 6.96678 28.0983L11.0206 31.0443C12.7889 32.3319 15.1699 32.3319 16.9382 31.0443ZM13.5153 9.13136L16.8501 9.48722C17.0189 9.10935 17.2647 8.7755 17.5692 8.50035L16.2081 5.43335C16.0504 5.07749 15.7312 5.00779 15.6028 4.99311C15.4744 4.97844 15.1479 4.98211 14.9168 5.29761L12.9907 7.94271C12.7596 8.25822 12.8586 8.57005 12.91 8.68745C12.9614 8.80852 13.1265 9.091 13.5153 9.13136ZM20.6215 10.6685C20.6215 10.0485 20.1189 9.54592 19.4989 9.54592C18.8826 9.54592 18.3763 10.0485 18.3763 10.6685C18.3763 11.2885 18.8789 11.7911 19.4989 11.7911C20.1189 11.7911 20.6215 11.2849 20.6215 10.6685ZM1.7793 18.7689C1.7793 19.2605 2.04344 19.6861 2.43599 19.9172L2.70013 17.5032C2.16818 17.6757 1.7793 18.1783 1.7793 18.7689ZM27.4526 14.4362L26.2969 16.0211C27.2838 16.542 27.9552 17.5766 27.9625 18.7653C27.9625 20.1814 27.0197 21.3773 25.7173 21.7515C25.8971 24.7892 24.5176 27.7388 22.0413 29.5364L21.3369 30.0464C23.9417 31.2093 25.7063 33.8288 25.7063 36.782V45.3887C25.7063 45.8803 25.3064 46.2802 24.8148 46.2802H3.14037C2.64877 46.2802 2.24889 45.8803 2.24889 45.3887V41.9658C2.24889 41.4742 2.64877 41.0744 3.14037 41.0744C3.63197 41.0744 4.03185 41.4742 4.03185 41.9658V44.5009H6.4495V38.1651C6.4495 37.6772 6.84938 37.2773 7.34098 37.2773C7.83258 37.2773 8.23247 37.6735 8.23247 38.1651V44.5009H19.7337V38.1651C19.7337 37.6772 20.1336 37.2773 20.6252 37.2773C21.1131 37.2773 21.513 37.6735 21.513 38.1651V44.5009H23.9307V36.782C23.9307 34.1663 22.1073 31.899 19.576 31.3267L17.9874 32.4824C16.7878 33.3518 15.3827 33.7884 13.9813 33.7884C12.5762 33.7884 11.1747 33.3518 9.97508 32.4824L8.9662 31.7486C9.50549 34.0232 11.5489 35.7145 13.9813 35.7145C16.0577 35.7145 17.9251 34.4781 18.7322 32.5667C18.9229 32.1118 19.4476 31.9027 19.8988 32.0935C20.3537 32.2843 20.5628 32.8089 20.3721 33.2601C19.2861 35.8318 16.7768 37.4937 13.9849 37.4937C10.5731 37.4937 7.72986 35.0137 7.15755 31.7633C5.2902 32.6841 4.03919 34.6139 4.03919 36.782V38.7117C4.03919 39.1997 3.63931 39.5996 3.14771 39.5996C2.65611 39.5996 2.25622 39.2033 2.25622 38.7117V36.782C2.25622 33.8288 4.02085 31.2093 6.6256 30.0464L5.92121 29.5364C3.44487 27.7388 2.06545 24.7892 2.24522 21.7552C0.939176 21.381 0 20.185 0 18.7689C0 17.1107 1.30604 15.7496 2.94593 15.6652C3.65765 12.0186 6.145 8.92958 9.60455 7.45478C10.0595 7.26401 10.5804 7.47679 10.7712 7.92804C10.9619 8.37928 10.7492 8.9039 10.2979 9.09467C7.71519 10.1879 5.77447 12.3634 4.95269 14.9829C10.7932 16.2926 14.6233 14.1244 16.8832 11.9085C16.7841 11.7031 16.7071 11.483 16.6594 11.2518L13.3246 10.896C12.4147 10.8006 11.6517 10.243 11.2811 9.40651C10.9106 8.57005 11.0096 7.63088 11.5489 6.88981L13.475 4.24471C14.0106 3.50364 14.8764 3.11843 15.7862 3.21748C16.6961 3.31287 17.4628 3.8705 17.8333 4.70696L19.1944 7.77396C19.2935 7.76662 19.3962 7.75928 19.4989 7.75928C20.8967 7.75928 22.0633 8.75349 22.3385 10.0705L23.2446 10.1659C23.7362 10.2173 24.0884 10.6575 24.037 11.1455C23.9894 11.604 23.6005 11.9416 23.1529 11.9416H23.1529C23.1199 11.9416 23.0905 11.9416 23.0575 11.9379L22.1514 11.8425C21.9826 12.2204 21.7368 12.5542 21.4323 12.8257L22.7934 15.8927C22.9511 16.2522 23.2703 16.3219 23.3987 16.3366C23.5271 16.3513 23.8536 16.3476 24.0847 16.0321L26.0108 13.387C26.2419 13.0678 26.1429 12.7597 26.0915 12.6386C26.0401 12.5212 25.875 12.2387 25.4862 12.1984C24.9982 12.147 24.646 11.7068 24.6974 11.2188C24.7488 10.7309 25.189 10.3787 25.6769 10.4301C26.5868 10.5254 27.3498 11.0831 27.7204 11.9195C28.0909 12.756 27.9919 13.6988 27.4526 14.4362Z" fill="#141414"/>
</svg>
