<svg width="59" height="54" viewBox="0 0 59 54" fill="none" xmlns="http://www.w3.org/2000/svg">
<path fill-rule="evenodd" clip-rule="evenodd" d="M43.7475 39.9189C41.3953 39.9189 39.2107 38.7395 37.9441 36.8095C39.472 36.8028 40.7185 35.5698 40.7185 34.062C40.7185 33.2645 40.3566 32.5072 39.7468 31.9845V31.1871C39.7468 30.852 39.7267 30.517 39.6932 30.1819C40.953 30.7649 42.3268 31.0665 43.7542 31.0665C44.7929 31.0665 45.8115 30.8989 46.7899 30.5773V31.8036C46.7899 32.9361 47.4801 33.9346 48.5456 34.3568L50.3751 35.0806C49.4838 37.9487 46.8033 39.9189 43.7475 39.9189ZM30.1572 42.7938C26.8802 42.7938 24.2131 40.1669 24.2131 36.9368V35.9785C24.2131 35.5161 23.8311 35.1409 23.362 35.1409H22.3903C21.7872 35.1409 21.298 34.6584 21.298 34.062C21.298 33.68 21.5058 33.3382 21.8475 33.1372C21.9212 33.0903 21.9882 33.0367 22.0486 32.9763C24.1461 32.916 30.9546 32.5274 35.4311 30.0077C35.8399 29.7798 35.9806 29.2638 35.7461 28.8684C35.5115 28.4663 34.9955 28.3256 34.5867 28.5602C30.6665 30.7649 24.5079 31.2072 22.2697 31.2943V31.2005C22.2697 29.6458 22.7455 28.1313 23.6167 26.8647C23.6837 26.972 23.7775 27.0658 23.8847 27.1328C24.0188 27.2132 24.1796 27.2601 24.3337 27.2601C24.461 27.2601 24.5951 27.2333 24.7157 27.173L30.1572 24.4925L35.6053 27.173C35.726 27.2333 35.8533 27.2601 35.9873 27.2601C36.1415 27.2601 36.2956 27.2199 36.4363 27.1328C36.5502 27.0658 36.6374 26.972 36.7044 26.8647C37.5688 28.138 38.0513 29.6458 38.0513 31.2005V32.4201C38.0513 32.715 38.2122 32.9964 38.4735 33.1439C38.8153 33.3382 39.023 33.6867 39.023 34.0687C39.023 34.6651 38.5338 35.1476 37.9307 35.1476H36.959C36.4899 35.1476 36.1079 35.5228 36.1079 35.9852V36.8162V36.8363V36.9368C36.1012 40.1669 33.4341 42.7938 30.1572 42.7938ZM33.4609 46.5532L34.0037 46.7342C33.0655 47.86 31.665 48.5301 30.1572 48.5301C28.6494 48.5301 27.2421 47.86 26.3106 46.7342L26.8534 46.5532C27.5973 46.312 28.0999 45.6217 28.0999 44.8511V44.181C28.7566 44.3619 29.4468 44.4624 30.1639 44.4624C30.8809 44.4624 31.5711 44.3619 32.2279 44.181V44.8511C32.2145 45.6284 32.7171 46.312 33.4609 46.5532ZM7.90206 29.0762L9.99957 28.4529C10.5156 31.033 12.8275 32.983 15.5952 32.983C17.7932 32.983 19.7031 31.75 20.6547 29.954C20.6011 30.3628 20.5743 30.7716 20.5743 31.1871V31.9845C19.9644 32.5005 19.6026 33.2578 19.6026 34.062C18.3963 34.7656 17.0159 35.1409 15.6019 35.1409C11.896 35.1409 8.69952 32.5743 7.90206 29.0762ZM15.5952 26.2884C17.0226 26.2884 18.3829 25.9802 19.6026 25.4239V27.3673C19.6026 29.5453 17.8066 31.3144 15.5952 31.3144C13.3904 31.3144 11.6012 29.552 11.5945 27.3807V27.3673V25.4239C12.8074 25.9802 14.1611 26.2884 15.5952 26.2884ZM7.70772 16.8395C7.70772 16.3772 7.32574 16.0019 6.85665 16.0019C6.25353 16.0019 5.76433 15.5194 5.76433 14.923C5.76433 14.3265 6.25353 13.8441 6.85665 13.8441H8.80004C9.16861 13.8441 9.49027 13.6162 9.6042 13.2744L10.3815 10.9692C12.3316 10.929 18.3896 10.6542 21.7939 8.97889C22.2161 8.77114 22.3836 8.26855 22.1759 7.85306C21.9681 7.43758 21.4521 7.27005 21.0367 7.47779C17.3777 9.28045 9.84544 9.30055 9.76503 9.30055C9.39645 9.30055 9.07479 9.52839 8.96087 9.87686L8.18351 12.1754H6.85665C6.81644 12.1754 6.77624 12.1754 6.73603 12.1821V8.23504C6.73603 5.005 9.40316 2.37808 12.6801 2.37808H20.4469C21.4588 2.37808 22.3166 3.09512 22.4707 4.09362C22.511 4.34827 22.6651 4.56941 22.8929 4.69004C23.8512 5.22614 24.4476 6.21794 24.4476 7.28345V12.1888H24.327H23.3553C22.8862 12.1888 22.5043 12.5641 22.5043 13.0265C22.5043 13.4889 22.8862 13.8642 23.3553 13.8642H24.327C24.9301 13.8642 25.4193 14.3466 25.4193 14.9431C25.4193 15.5395 24.9301 16.022 24.327 16.022C23.8579 16.022 23.4759 16.3973 23.4759 16.8596C23.4759 21.1485 19.9376 24.6332 15.5885 24.6332C11.246 24.6131 7.70772 21.1284 7.70772 16.8395ZM23.4826 24.412C22.5311 25.3234 21.7872 26.409 21.2913 27.6019C21.298 27.5282 21.298 27.4477 21.298 27.3673V24.4321C22.1424 23.8156 22.8795 23.0584 23.4826 22.2073V24.412ZM25.1781 22.0264L28.254 23.5409L25.1781 25.0554V22.0264ZM35.1296 22.0264V25.0554L32.0536 23.5409L35.1296 22.0264ZM33.9166 15.8813C33.9166 10.5403 38.3261 6.19783 43.7475 6.19783C49.1688 6.19783 53.5783 10.5403 53.5783 15.8813C53.5783 21.5037 54.2685 27.1864 54.4897 28.8885C53.7257 29.3777 51.7757 30.4633 48.4853 31.1737V29.8401C48.9343 29.5855 49.3699 29.2973 49.772 28.9756C51.4406 27.6421 52.6267 25.7791 53.0958 23.7218C53.2566 23.0383 53.3304 22.3279 53.3304 21.6243C53.3304 16.8932 49.8591 16.2096 46.5017 15.5529C44.364 15.1374 42.1525 14.7018 40.3968 13.3146C40.1421 13.1136 39.7937 13.0734 39.4988 13.2141C39.204 13.3549 39.0163 13.6497 39.0163 13.9714C39.0163 13.9915 38.9761 16.1962 35.7796 16.987C35.3239 17.1009 35.0491 17.5566 35.1631 17.9989C35.277 18.4479 35.7394 18.7226 36.1951 18.6087C38.8756 17.9453 39.9679 16.4643 40.4169 15.3518C42.259 16.4303 44.3221 16.8325 46.1778 17.1943L46.1778 17.1943L46.18 17.1947C49.772 17.8984 51.6416 18.4144 51.6416 21.6243C51.6416 22.2073 51.5746 22.7903 51.4473 23.3532C51.0586 25.042 50.0869 26.5766 48.7131 27.6756C47.2992 28.8014 45.5836 29.3978 43.7609 29.3978C42.0989 29.3978 40.5174 28.8952 39.1705 27.9436C38.6813 26.6168 37.8905 25.4105 36.8451 24.412V20.666C36.8451 20.3778 36.691 20.1098 36.443 19.9557C36.1951 19.8015 35.8801 19.7881 35.6188 19.9222L33.7826 20.8268C33.863 19.0778 33.9166 17.4226 33.9166 15.8813ZM55.8232 35.4357L49.1688 32.8088C49.1521 32.8021 49.1354 32.7938 49.1187 32.7854L49.1186 32.7854C49.1018 32.777 49.0851 32.7686 49.0683 32.7619C53.6654 31.7299 55.8434 30.0077 55.9372 29.9272C56.165 29.7396 56.2789 29.4514 56.2387 29.1633C56.2253 29.0963 55.2737 22.4486 55.2737 15.888C55.2737 9.62221 50.1003 4.5292 43.7475 4.5292C37.3946 4.5292 32.2212 9.62891 32.2212 15.888C32.2212 17.6035 32.1408 19.701 32.0134 21.6913L30.1572 22.6027L24.709 19.9222C24.7061 19.9207 24.7029 19.9193 24.6996 19.9178L24.6855 19.9121C24.6772 19.9088 24.6688 19.9054 24.6621 19.9021C24.9234 19.1582 25.091 18.3741 25.1513 17.5566C26.2905 17.2081 27.1215 16.1627 27.1215 14.9297C27.1215 14.0987 26.7462 13.3549 26.1498 12.8456V7.27675C26.1498 5.73544 25.359 4.30136 24.0657 3.43019C23.6301 1.82187 22.1625 0.696045 20.4469 0.696045H12.6801C8.46497 0.696045 5.03389 4.07351 5.03389 8.22834V12.8456C4.44417 13.3482 4.0622 14.0987 4.0622 14.9297C4.0622 16.1627 4.89316 17.2081 6.03239 17.5566C6.24683 20.3711 7.71442 22.8372 9.88565 24.4254V26.7374L2.86266 28.8215C1.26104 29.2973 0.182129 30.7247 0.182129 32.3732V41.7149C0.182129 42.1773 0.564105 42.5525 1.0332 42.5525H1.15382V52.2427C1.15382 52.705 1.5358 53.0803 2.00489 53.0803C2.47398 53.0803 2.85596 52.705 2.85596 52.2427V42.5525H6.01228V52.2427C6.01228 52.705 6.39426 53.0803 6.86335 53.0803C7.33245 53.0803 7.71442 52.705 7.71442 52.2427V37.8013C7.71442 37.0641 7.49328 36.3538 7.0845 35.744L5.63031 33.5996C5.36896 33.2176 4.83955 33.1104 4.45087 33.365C4.0622 33.6197 3.95498 34.1424 4.21633 34.5243L5.67052 36.6688C5.89836 37.0038 6.01899 37.3925 6.01899 37.7946V40.8705H2.00489H1.88427V32.3598C1.88427 31.4551 2.47398 30.6711 3.35186 30.4164L6.26693 29.552C7.28554 33.7537 11.1388 36.8162 15.5952 36.8162C17.1968 36.8162 18.7448 36.4275 20.1387 35.6904C20.648 36.3739 21.4655 36.8162 22.3903 36.8162H22.511V36.9368C22.511 39.7447 24.0791 42.1974 26.391 43.4907V44.8578C26.391 44.9114 26.3575 44.9583 26.3106 44.9717L23.1409 46.0104C21.5996 46.513 20.5676 47.927 20.5676 49.5286V52.2427C20.5676 52.705 20.9495 53.0803 21.4186 53.0803C21.8877 53.0803 22.2697 52.705 22.2697 52.2427V49.5286C22.2697 48.6507 22.8393 47.8801 23.677 47.5986L24.6085 47.2904C25.8415 49.0997 27.9122 50.2055 30.1505 50.2055C32.3887 50.2055 34.4594 49.0997 35.6925 47.2904L36.6239 47.5986C37.4683 47.8734 38.0312 48.6507 38.0312 49.5286V52.2427C38.0312 52.705 38.4132 53.0803 38.8823 53.0803C39.3514 53.0803 39.7334 52.705 39.7334 52.2427V49.5286C39.7334 47.927 38.7014 46.5197 37.1601 46.0104L33.9903 44.9717C33.9434 44.9583 33.9099 44.9114 33.9099 44.8578V43.4907C35.6456 42.519 36.959 40.904 37.5085 38.974C39.1168 40.6293 41.3551 41.6009 43.7408 41.6009C47.5002 41.6009 50.804 39.2019 51.9432 35.7105L55.1866 36.9904C55.9707 37.2987 56.48 38.0425 56.48 38.8802V42.7938H56.3594H53.3237V41.7149C53.3237 41.2525 52.9417 40.8772 52.4726 40.8772C52.0035 40.8772 51.6215 41.2525 51.6215 41.7149V52.236C51.6215 52.6983 52.0035 53.0736 52.4726 53.0736C52.9417 53.0736 53.3237 52.6983 53.3237 52.236V44.4624H55.5083V52.236C55.5083 52.6983 55.8903 53.0736 56.3594 53.0736C56.8285 53.0736 57.2104 52.6983 57.2104 52.236V44.4624H57.3311C57.5589 44.4624 57.7733 44.3753 57.9342 44.2212C58.095 44.0603 58.1821 43.8526 58.1821 43.6315V38.8802C58.1821 37.3523 57.2573 35.9986 55.8232 35.4357ZM12.5595 15.8814C12.5595 16.3438 12.1776 16.7191 11.7085 16.7191C11.2394 16.7191 10.8574 16.3438 10.8574 15.8814V14.9231C10.8574 14.4607 11.2394 14.0855 11.7085 14.0855C12.1776 14.0855 12.5595 14.4607 12.5595 14.9231V15.8814ZM18.1953 20.2373C17.5319 21.0415 16.587 21.5039 15.5952 21.5039C14.6034 21.5039 13.6518 21.0415 12.9951 20.2373C12.7002 19.8755 12.7606 19.3461 13.1224 19.0579C13.4843 18.763 14.0204 18.8167 14.3153 19.1785C14.657 19.594 15.1127 19.8219 15.5952 19.8219C16.0777 19.8219 16.5334 19.594 16.8752 19.1785C17.17 18.8234 17.7061 18.7697 18.068 19.0579C18.4366 19.3528 18.4902 19.8755 18.1953 20.2373ZM19.4752 16.7191C19.9443 16.7191 20.3263 16.3438 20.3263 15.8814V14.9231C20.3263 14.4607 19.9443 14.0855 19.4752 14.0855C19.0062 14.0855 18.6242 14.4607 18.6242 14.9231V15.8814C18.6242 16.3438 19.0062 16.7191 19.4752 16.7191ZM46.3475 25.0218C45.6841 25.826 44.7392 26.2884 43.7474 26.2884C42.7556 26.2884 41.804 25.826 41.1473 25.0218C40.8524 24.66 40.9127 24.1306 41.2746 23.8424C41.6365 23.5475 42.1726 23.6011 42.4675 23.963C42.8092 24.3785 43.2649 24.6063 43.7474 24.6063C44.2299 24.6063 44.6856 24.3785 45.0274 23.963C45.3222 23.6079 45.8583 23.5542 46.2202 23.8424C46.5888 24.1373 46.6424 24.66 46.3475 25.0218ZM39.8607 21.5036C40.3298 21.5036 40.7117 21.1283 40.7117 20.6659V19.7076C40.7117 19.2452 40.3298 18.87 39.8607 18.87C39.3916 18.87 39.0096 19.2452 39.0096 19.7076V20.6659C39.0096 21.1283 39.3916 21.5036 39.8607 21.5036ZM48.4786 20.6659C48.4786 21.1283 48.0966 21.5036 47.6275 21.5036C47.1584 21.5036 46.7765 21.1283 46.7765 20.6659V19.7076C46.7765 19.2452 47.1584 18.87 47.6275 18.87C48.0966 18.87 48.4786 19.2452 48.4786 19.7076V20.6659ZM31.4372 38.3173C31.732 37.9621 32.2681 37.9085 32.63 38.1966C32.9986 38.4848 33.0522 39.0142 32.7573 39.3761C32.0939 40.1802 31.149 40.6426 30.1572 40.6426C29.1654 40.6426 28.2205 40.1802 27.5571 39.3761C27.2623 39.0142 27.3226 38.4915 27.6844 38.1966C28.0463 37.9018 28.5824 37.9554 28.8773 38.3173C29.219 38.7395 29.6747 38.9673 30.1572 38.9673C30.6397 38.9673 31.0954 38.7328 31.4372 38.3173ZM27.2555 34.1828C27.7246 34.1828 28.1066 34.5581 28.1066 35.0205C28.1066 35.4829 27.7246 35.8581 27.2555 35.8581C26.7864 35.8581 26.4045 35.4829 26.4045 35.0205C26.4112 34.5581 26.7864 34.1828 27.2555 34.1828ZM33.8899 35.0205C33.8899 34.5581 33.5079 34.1828 33.0388 34.1828C32.5697 34.1828 32.1877 34.5581 32.1877 35.0205C32.1877 35.4829 32.5697 35.8581 33.0388 35.8581C33.5079 35.8581 33.8899 35.4829 33.8899 35.0205Z" fill="#141414"/>
</svg>
