<svg width="112" height="112" viewBox="0 0 112 112" fill="none" xmlns="http://www.w3.org/2000/svg">
<path fill-rule="evenodd" clip-rule="evenodd" d="M5.24888 25.8275C1.20576 37.0773 5.334 51.7318 16.598 66.0317L13.6614 68.3583C1.5888 53.0228 -2.75224 37.0631 1.73066 24.5791C5.09283 15.2303 16.0022 0.987147 32.3023 0.0366599C43.3109 -0.6301 51.6383 7.96685 55.6105 12.0951C55.724 12.2228 55.8375 12.3363 55.9368 12.4356C55.9723 12.393 56.0113 12.354 56.0503 12.315C56.0893 12.276 56.1283 12.2369 56.1638 12.1944C60.1927 8.05196 68.6194 -0.587541 79.699 0.079219C95.9991 1.02971 106.908 15.287 110.271 24.6217C115.349 38.7513 109.079 57.2361 93.4881 74.0612L90.7502 71.5218C105.362 55.7324 111.349 38.6804 106.752 25.8842C103.731 17.4717 93.9705 4.64723 79.4862 3.79605C70.0948 3.25697 62.4909 11.0311 58.845 14.7763L58.7487 14.8747C58.1262 15.5106 57.6199 16.0278 57.242 16.3652C56.788 16.7624 56.1496 16.9184 55.5538 16.7766L55.3552 16.734C55.0573 16.6631 54.7877 16.5212 54.5607 16.3226C54.1493 15.9538 53.5961 15.3863 52.9151 14.677L52.9108 14.6725C49.32 10.954 41.8602 3.22881 32.5151 3.75349C18.0308 4.59049 8.27058 17.415 5.24888 25.8275ZM17.7046 102.392C18.3855 102.803 19.2509 102.732 19.8609 102.236C20.4709 101.725 20.6979 100.902 20.4284 100.15C19.0381 96.3484 16.2434 86.3186 20.4142 75.3242C20.6837 74.6007 20.9958 73.9199 21.3079 73.239L21.3079 73.2388C27.5925 59.5773 40.8851 54.8532 43.4812 54.0304C44.2615 53.7893 44.7864 53.0658 44.7864 52.2429V29.8568C44.7864 29.3603 44.5878 28.8922 44.2473 28.5375L42.3747 26.6649C42.02 26.3102 41.5519 26.1116 41.0554 26.1116H35.4659C35.0971 26.1116 34.7424 26.2251 34.4303 26.4237L30.1035 29.3036L28.5714 27.7714L36.4306 16.777H41.7789L44.9992 23.2034C45.3113 23.8418 45.9639 24.239 46.6732 24.239H69.0735C69.7828 24.239 70.4212 23.8418 70.7475 23.2034L73.9678 16.777H77.4151L83.6429 26.1116L81.6426 29.1191L77.5995 26.4237C77.2874 26.2251 76.9327 26.1116 76.5639 26.1116H72.8329C72.3363 26.1116 71.8682 26.3102 71.5135 26.6649L67.7825 30.3959C67.4278 30.7506 67.2434 31.2187 67.2434 31.7153V55.974H62.4201L57.3697 50.9236C56.9583 50.5122 56.3908 50.3278 55.8234 50.3845C55.2559 50.4555 54.7452 50.7817 54.4473 51.2783L48.8437 60.6129C48.6735 60.9108 48.5742 61.2371 48.5742 61.5776V63.0104L45.5808 61.7336L44.1054 65.1667L48.5742 67.0819V70.0327V70.9264C48.5742 71.1108 48.6025 71.2952 48.6593 71.4655C48.9997 72.6004 49.6807 74.2886 50.8865 76.0051L44.1906 78.5161L45.5099 82.006L53.6387 78.9559C54.0785 79.3105 54.5608 79.651 55.0715 79.9773C56.5043 80.8711 58.1074 81.5094 59.7956 81.8641V93.3125L48.7444 93.2699L48.7302 97.001L59.7956 97.0435V108.251H56.0646C56.0646 104.137 52.7166 100.789 48.6025 100.789H44.8715C44.8715 91.525 37.3385 83.9921 28.0748 83.9921H26.2022V87.7231H28.0748C35.2815 87.7231 41.1405 93.582 41.1405 100.789V102.661C41.1405 103.697 41.9775 104.534 43.0131 104.534H48.6167C50.6737 104.534 52.3477 106.208 52.3477 108.265H17.3358L3.73102 99.7673V87.7373C3.73102 87.1556 4.01474 86.6023 4.46871 86.2477C5.05035 85.8221 5.77386 85.7512 6.42643 86.0775C7.079 86.4037 7.46203 87.0279 7.46203 87.7514V95.2135C7.46203 95.8661 7.80251 96.4761 8.36996 96.8165L17.7046 102.392ZM72.7903 59.7192C73.2868 59.7192 73.755 59.5206 74.1096 59.1659L78.0251 55.2646L82.1249 62.1025V64.6276L75.7978 67.3372L77.259 70.7703L82.1249 68.685V70.6427C81.8412 71.508 81.3447 72.6713 80.5077 73.863L77.032 72.8699L76.0106 76.4591L77.3441 76.8421C75.9255 77.7217 74.3224 78.2466 72.6059 78.4026C71.8824 78.4736 71.2724 78.9417 71.017 79.6227C70.7758 80.3036 70.9461 81.0697 71.4568 81.5804L75.1878 85.3114C75.5424 85.666 76.0106 85.8647 76.5071 85.8647H96.9071C97.9711 86.0207 103.617 87.1272 106.625 92.3904C109.703 97.767 107.604 103.356 106.852 105.002L100.34 108.251H83.4585L82.1107 104.222V99.4836L84.4941 95.8944C84.792 95.4405 85.2885 95.1851 85.8276 95.1851C86.6362 95.1851 87.0476 95.7242 87.1895 95.9512C87.3313 96.1782 87.6151 96.7882 87.2604 97.5117L86.0404 99.9659C85.6857 100.689 85.8276 101.555 86.395 102.122L88.2676 103.995C88.6223 104.35 89.0904 104.548 89.587 104.548H98.9216V100.817H90.3672L89.9984 100.448L90.6226 99.1999C91.4596 97.54 91.3603 95.5965 90.3814 94.0076C89.4025 92.4329 87.7002 91.4825 85.8418 91.4825C84.0543 91.4825 82.3945 92.3762 81.4014 93.8516L78.706 97.8805C78.5074 98.1926 78.3939 98.5473 78.3939 98.9161V104.52C78.3939 104.718 78.4223 104.917 78.4932 105.101L79.543 108.251H72.8045V95.1851H69.0735V108.251H63.4698V95.1851V80.261C63.4698 79.2964 62.7322 78.4877 61.7817 78.4026C60.4198 78.2749 59.1288 77.9061 57.9513 77.3245L60.4056 76.4023L59.1004 72.9125L54.5041 74.629C53.2982 73.1962 52.6315 71.6925 52.291 70.6427V70.0327V68.685L57.1569 70.7703L58.6323 67.3372L52.3052 64.6276V62.1025L56.405 55.2646L60.3205 59.1801C60.6751 59.5347 61.1433 59.7333 61.6398 59.7333H69.1018H72.7903V59.7192ZM8.10042 82.7153C6.18526 81.7648 3.94381 81.9634 2.22726 83.2402C0.836996 84.3042 0 85.9781 0 87.7231V100.789C0 101.427 0.326287 102.037 0.879555 102.378L15.8178 111.712C16.1157 111.897 16.4562 111.996 16.8109 111.996H54.1352H61.5972H100.794C101.078 111.996 101.376 111.925 101.631 111.797L109.093 108.066C109.434 107.896 109.703 107.627 109.888 107.3C110.086 106.96 114.541 98.7175 109.873 90.532C105.93 83.6232 98.7088 82.3322 97.3044 82.1478C97.2193 82.1336 97.1342 82.1336 97.0633 82.1336H97.0632H77.3016L76.5213 81.3534C77.5285 80.9987 78.4932 80.5448 79.387 79.9915C80.3091 79.424 81.0893 78.7857 81.7703 78.1047L89.0904 80.1901L90.0977 76.601L84.2387 74.927C85.019 73.6076 85.5013 72.3592 85.7708 71.4655C85.8276 71.2952 85.856 71.1108 85.856 70.9264V67.0961L90.3247 65.1809L88.8493 61.7478L85.8418 63.0388V61.6059C85.8418 61.2655 85.7566 60.9392 85.5722 60.6413L79.9686 51.3066C79.6707 50.8101 79.16 50.4838 78.5925 50.4129C78.0251 50.3562 77.4576 50.5406 77.0462 50.952L71.9959 56.0023H70.9319V32.4955L73.5705 29.8568H75.968L81.1035 33.2758C81.9689 33.8432 83.118 33.6162 83.6996 32.765L87.4306 27.1614C87.8562 26.5372 87.8562 25.7144 87.4306 25.0902L79.9402 13.8972C79.5998 13.3723 79.0181 13.0602 78.3939 13.0602H72.7903C72.081 13.0602 71.4426 13.4574 71.1163 14.0958L67.896 20.5364H47.8223L44.602 14.0958C44.2899 13.4574 43.6373 13.0602 42.928 13.0602H35.4659C34.8701 13.0602 34.3027 13.3439 33.948 13.8404L24.6134 26.9061C24.0885 27.6438 24.1594 28.6652 24.812 29.3036L28.543 33.0346C29.1672 33.6588 30.1602 33.7581 30.8979 33.2616L36.0192 29.8427H40.2751L41.0554 30.6087V50.8952C36.1327 52.6827 22.6698 58.8254 16.9102 73.9623C13.5054 82.8997 14.2715 91.2271 15.5199 96.703L11.2072 94.1353V87.7231C11.2072 85.5809 10.0156 83.6658 8.10042 82.7153ZM49.0424 33.4456H52.7734V37.1766H49.0424V33.4456ZM60.2355 33.4456H63.9665V37.1766H60.2355V33.4456ZM60.2356 40.9076H52.7736V44.6386H60.2356V40.9076ZM60.2355 65.1665H63.9665V68.8976H60.2355V65.1665ZM75.1734 65.1665H71.4424V68.8976H75.1734V65.1665ZM65.8392 70.7696H69.5702V74.5007H65.8392V70.7696Z" fill="#141414"/>
</svg>
