<svg width="53" height="53" viewBox="0 0 53 53" fill="none" xmlns="http://www.w3.org/2000/svg">
<path fill-rule="evenodd" clip-rule="evenodd" d="M2.86874 12.2747C0.99151 17.4981 2.90826 24.3022 8.13816 30.9417L6.7747 32.0219C1.16935 24.9016 -0.846201 17.4915 1.23522 11.6951C2.79629 7.35442 7.86152 0.741294 15.4297 0.29998C20.5411 -0.00959826 24.4075 3.98199 26.2518 5.89874C26.3045 5.95802 26.3572 6.01072 26.4033 6.05682C26.4198 6.03706 26.4379 6.01895 26.456 6.00084C26.4741 5.98272 26.4922 5.96461 26.5087 5.94485C28.3793 4.02151 32.2919 0.0101621 37.4361 0.319741C45.0043 0.761055 50.0696 7.38077 51.6306 11.7149C53.9887 18.2753 51.0774 26.8579 43.8385 34.6698L42.5672 33.4907C49.3516 26.1597 52.1312 18.2424 49.9971 12.3011C48.5941 8.39513 44.0624 2.44068 37.3373 2.04548C32.9769 1.79518 29.4464 5.40473 27.7536 7.14364L27.7088 7.18935C27.4198 7.48458 27.1847 7.7247 27.0093 7.88136C26.7985 8.06579 26.5021 8.13825 26.2255 8.07238L26.1332 8.05262C25.9949 8.01968 25.8698 7.95382 25.7644 7.8616C25.5734 7.69034 25.3165 7.42687 25.0003 7.09753L24.9983 7.09546C23.3311 5.36892 19.8675 1.7821 15.5285 2.02572C8.80343 2.41434 4.27172 8.36878 2.86874 12.2747ZM8.65194 47.8238C8.9681 48.0148 9.3699 47.9818 9.65313 47.7513C9.93636 47.5142 10.0417 47.1321 9.9166 46.783C9.27109 45.0178 7.9735 40.3609 9.91001 35.2562C10.0352 34.9203 10.1801 34.6041 10.325 34.288L10.325 34.2879C13.2429 27.9449 19.4147 25.7515 20.6201 25.3694C20.9824 25.2575 21.2261 24.9215 21.2261 24.5395V14.1456C21.2261 13.915 21.1339 13.6977 20.9758 13.533L20.1063 12.6635C19.9417 12.4989 19.7243 12.4067 19.4938 12.4067H16.8986C16.7273 12.4067 16.5627 12.4594 16.4177 12.5516L14.4088 13.8887L13.6974 13.1773L17.3465 8.07256H19.8297L21.3249 11.0564C21.4698 11.3528 21.7728 11.5372 22.1021 11.5372H32.5027C32.832 11.5372 33.1284 11.3528 33.2799 11.0564L34.7751 8.07256H36.3757L39.2673 12.4067L38.3385 13.8031L36.4613 12.5516C36.3164 12.4594 36.1517 12.4067 35.9805 12.4067H34.2481C34.0176 12.4067 33.8003 12.4989 33.6356 12.6635L31.9033 14.3959C31.7386 14.5605 31.653 14.7779 31.653 15.0084V26.2718H29.4135L27.0686 23.9269C26.8775 23.7359 26.6141 23.6503 26.3506 23.6766C26.0871 23.7096 25.85 23.8611 25.7117 24.0916L23.1099 28.4257C23.0309 28.564 22.9848 28.7155 22.9848 28.8736V29.5389L21.595 28.9461L20.9099 30.5401L22.9848 31.4293V32.7993V33.2143C22.9848 33.2999 22.9979 33.3855 23.0243 33.4646C23.1824 33.9915 23.4985 34.7754 24.0584 35.5724L20.9494 36.7382L21.562 38.3586L25.3362 36.9424C25.5404 37.1071 25.7644 37.2652 26.0015 37.4166C26.6668 37.8316 27.4111 38.128 28.1949 38.2927V43.6082L23.0638 43.5885L23.0572 45.3208L28.1949 45.3405V50.5441H26.4626C26.4626 48.6339 24.9081 47.0795 22.9979 47.0795H21.2656C21.2656 42.7783 17.768 39.2807 13.4669 39.2807H12.5974V41.013H13.4669C16.813 41.013 19.5333 43.7334 19.5333 47.0795V47.9489C19.5333 48.4297 19.9219 48.8184 20.4027 48.8184H23.0045C23.9596 48.8184 24.7368 49.5956 24.7368 50.5507H8.48068L2.16396 46.6052V41.0196C2.16396 40.7496 2.2957 40.4927 2.50648 40.328C2.77653 40.1304 3.11246 40.0975 3.41545 40.249C3.71844 40.4005 3.89629 40.6903 3.89629 41.0262V44.4908C3.89629 44.7938 4.05437 45.0771 4.31784 45.2352L8.65194 47.8238ZM34.2284 28.0107C34.4589 28.0107 34.6763 27.9185 34.841 27.7538L36.6589 25.9425L38.5625 29.1173V30.2898L35.6248 31.5478L36.3032 33.1418L38.5625 32.1736V33.0826C38.4308 33.4843 38.2002 34.0245 37.8116 34.5777L36.1978 34.1167L35.7236 35.7831L36.3427 35.961C35.6841 36.3694 34.9398 36.6131 34.1428 36.6855C33.8068 36.7184 33.5236 36.9358 33.405 37.252C33.2931 37.5681 33.3721 37.9238 33.6092 38.161L35.3416 39.8933C35.5062 40.0579 35.7236 40.1502 35.9541 40.1502H45.4259C45.9199 40.2226 48.5415 40.7364 49.9379 43.1801C51.3672 45.6765 50.3923 48.2717 50.0432 49.0357L47.0199 50.5441H39.1816L38.5559 48.6735V46.4735L39.6625 44.807C39.8008 44.5962 40.0313 44.4777 40.2816 44.4777C40.6571 44.4777 40.8481 44.728 40.914 44.8334C40.9798 44.9387 41.1116 45.222 40.9469 45.5579L40.3804 46.6974C40.2158 47.0333 40.2816 47.4351 40.5451 47.6986L41.4146 48.5681C41.5792 48.7327 41.7966 48.8249 42.0271 48.8249H46.3612V47.0926H42.3894L42.2181 46.9214L42.508 46.3417C42.8966 45.5711 42.8505 44.6687 42.396 43.931C41.9415 43.1998 41.1511 42.7585 40.2882 42.7585C39.4583 42.7585 38.6876 43.1735 38.2266 43.8585L36.9751 45.7292C36.8829 45.8741 36.8302 46.0387 36.8302 46.21V48.8118C36.8302 48.904 36.8433 48.9962 36.8763 49.0818L37.3637 50.5441H34.235V44.4777H32.5027V50.5441H29.9009V44.4777V37.5484C29.9009 37.1005 29.5584 36.725 29.1171 36.6855C28.4847 36.6262 27.8853 36.455 27.3386 36.1849L28.4781 35.7568L27.8722 34.1364L25.738 34.9334C25.1782 34.2682 24.8686 33.57 24.7105 33.0826V32.7993V32.1736L26.9698 33.1418L27.6548 31.5478L24.7171 30.2898V29.1173L26.6207 25.9425L28.4386 27.7604C28.6033 27.9251 28.8206 28.0173 29.0512 28.0173H32.5158H34.2284V28.0107ZM4.19269 38.6879C3.30348 38.2466 2.26276 38.3388 1.46576 38.9316C0.82026 39.4256 0.431641 40.2029 0.431641 41.013V47.0795C0.431641 47.3759 0.583136 47.6591 0.840021 47.8172L7.7759 52.1513C7.91422 52.2369 8.0723 52.283 8.23697 52.283H25.5668H29.0314H47.2307C47.3624 52.283 47.5007 52.2501 47.6193 52.1908L51.084 50.4585C51.242 50.3794 51.3672 50.2543 51.4528 50.1028C51.545 49.9447 53.6133 46.1178 51.4462 42.3172C49.6151 39.1094 46.2624 38.5101 45.6103 38.4244C45.5708 38.4178 45.5313 38.4178 45.4984 38.4178H36.323L35.9607 38.0556C36.4284 37.8909 36.8763 37.6801 37.2912 37.4232C37.7194 37.1598 38.0817 36.8634 38.3978 36.5472L41.7966 37.5154L42.2643 35.849L39.5439 35.0718C39.9062 34.4592 40.1301 33.8796 40.2553 33.4646C40.2816 33.3855 40.2948 33.2999 40.2948 33.2143V31.4359L42.3696 30.5466L41.6846 28.9526L40.2882 29.552V28.8868C40.2882 28.7287 40.2487 28.5772 40.1631 28.4389L37.5613 24.1048C37.423 23.8742 37.1859 23.7227 36.9224 23.6898C36.6589 23.6635 36.3954 23.7491 36.2044 23.9401L33.8595 26.285H33.3655V15.3707L34.5907 14.1456H35.7038L38.0882 15.733C38.49 15.9965 39.0236 15.8911 39.2936 15.4959L41.0259 12.8941C41.2235 12.6043 41.2235 12.2222 41.0259 11.9324L37.5481 6.73544C37.39 6.49173 37.12 6.34682 36.8302 6.34682H34.2284C33.8991 6.34682 33.6026 6.53125 33.4512 6.82766L31.956 9.81805H22.6357L21.1405 6.82766C20.9956 6.53125 20.6926 6.34682 20.3632 6.34682H16.8986C16.6219 6.34682 16.3585 6.47856 16.1938 6.7091L11.8597 12.7755C11.616 13.118 11.6489 13.5923 11.9519 13.8887L13.6842 15.621C13.9741 15.9108 14.4351 15.9569 14.7776 15.7264L17.1555 14.139H19.1315L19.4938 14.4947V23.9138C17.2082 24.7437 10.9573 27.5958 8.28308 34.6239C6.70225 38.7735 7.05794 42.64 7.63757 45.1825L5.63519 43.9902V41.013C5.63519 40.0184 5.0819 39.1292 4.19269 38.6879ZM23.2021 15.8119H24.9345V17.5442H23.2021V15.8119ZM28.3991 15.8119H30.1314V17.5442H28.3991V15.8119ZM28.3991 19.2765H24.9345V21.0088H28.3991V19.2765ZM28.3991 30.54H30.1314V32.2723H28.3991V30.54ZM35.335 30.54H33.6026V32.2723H35.335V30.54ZM31.0009 33.1415H32.7332V34.8738H31.0009V33.1415Z" fill="#141414"/>
</svg>
