<svg width="56" height="56" viewBox="0 0 56 56" fill="none" xmlns="http://www.w3.org/2000/svg">
<path fill-rule="evenodd" clip-rule="evenodd" d="M39.8163 43.3402C42.4927 43.3402 44.957 41.8928 46.2609 39.5533C47.3339 37.6131 48.0202 35.4794 48.2635 33.2772C46.0487 34.5187 43.6905 35.4919 41.245 36.1719L40.7521 34.3939C43.4347 33.6453 45.9988 32.5285 48.3758 31.0749C48.3571 29.6775 48.1574 28.2925 47.7956 26.9449C47.3901 27.3005 46.9596 27.6187 46.5042 27.8995C44.8509 28.9164 43.0916 29.7523 41.2512 30.3824L40.6523 28.6356C42.3617 28.0492 43.9962 27.2756 45.5372 26.3273C46.1299 25.9655 46.6726 25.5225 47.1467 25.011C46.6414 23.7445 45.9801 22.5529 45.1816 21.4487C44.8322 22.1661 44.2832 22.765 43.6094 23.183C38.6996 26.2213 32.7417 27.0697 27.1768 25.5225V27.6624C27.1768 27.9057 27.0832 28.1365 26.9085 28.3112C26.7338 28.4797 26.4968 28.5795 26.2535 28.5795C23.9764 28.5795 21.8677 27.3817 20.7073 25.4227C20.5888 27.7934 19.6093 30.0393 17.9498 31.7362L24.5129 33.1961H29.0234C30.5457 33.1961 31.7872 34.4313 31.7872 35.9598C31.7872 36.3092 31.7248 36.6585 31.5938 36.983C32.7978 37.3136 33.6338 38.4054 33.6338 39.6531C33.6338 40.9008 32.7978 41.9926 31.5938 42.3232C31.7185 42.6477 31.7872 42.9908 31.7872 43.3402H39.8163ZM19.7965 22.085C19.3972 22.6902 19.0416 23.3203 18.7234 23.9753H19.7965C19.89 23.9753 19.9836 23.9878 20.0772 24.019C19.89 23.4076 19.7965 22.7713 19.7965 22.1287V22.085ZM45.5684 18.9719L45.8865 19.3525C50.84 25.2979 51.6323 33.6827 47.8642 40.4828C46.2359 43.4088 43.154 45.2242 39.8101 45.2242H31.0697C30.7141 45.6235 30.2525 45.9105 29.7346 46.0477C29.8594 46.3721 29.928 46.7215 29.928 47.0709C29.928 48.5931 28.6928 49.8346 27.1643 49.8346H24.4006C24.3373 49.8346 24.2793 49.824 24.2168 49.8125L24.2009 49.8096L15.9035 47.963C15.8287 47.9443 15.76 47.9193 15.6914 47.8881L8.51071 44.2947H0.431641V42.448H8.7353C8.87879 42.448 9.02228 42.4792 9.14705 42.5416L16.4213 46.1787L24.5129 47.9755H27.1768C27.6884 47.9755 28.1001 47.5637 28.1001 47.0522C28.1001 46.5406 27.6884 46.1288 27.1768 46.1288H24.4131C24.3444 46.1288 24.282 46.1226 24.2134 46.1101L17.7564 44.6752L18.1557 42.8723L24.5129 44.2822H29.0234C29.535 44.2822 29.9468 43.8704 29.9468 43.3589C29.9468 42.8473 29.535 42.4355 29.0234 42.4355H24.4131C24.3498 42.4355 24.2918 42.4249 24.2293 42.4135L24.2292 42.4135L24.2134 42.4106L17.7564 40.9757L18.1557 39.1727L24.5129 40.5827H30.8701C31.3816 40.5827 31.7934 40.1709 31.7934 39.6593C31.7934 39.1478 31.3816 38.736 30.8701 38.736H24.4131C24.3498 38.736 24.2918 38.7254 24.2293 38.714L24.2292 38.714L24.2134 38.7111L17.7564 37.2762L18.1557 35.4732L24.5129 36.8831H29.0172C29.5288 36.8831 29.9405 36.4714 29.9405 35.9598C29.9405 35.4482 29.5288 35.0365 29.0172 35.0365H24.4068C24.3382 35.0365 24.2758 35.0303 24.2072 35.0178L15.9098 33.1711C15.5791 33.0963 15.3171 32.853 15.2235 32.5285C15.1299 32.2041 15.2173 31.8548 15.4543 31.6177L16.5336 30.5384C17.8126 29.272 18.6173 27.6062 18.8232 25.8157H16.49L11.2308 31.0812C11.0561 31.2559 10.819 31.3494 10.5757 31.3494H0.431641V29.5028H10.1951L15.4543 24.2374C15.629 24.0627 15.8661 23.9691 16.1094 23.9691H16.6958C17.4008 22.3283 18.3304 20.7936 19.472 19.4149C17.6316 17.5121 16.4712 15.0478 16.1843 12.4089L7.10077 1.50992L8.51695 0.330811L16.1094 9.4455V6.45718H17.956V11.0613C17.9436 13.7689 19.0229 16.3704 20.9444 18.2794L21.3748 18.7099C21.5495 18.8846 21.6431 19.1217 21.6431 19.365V22.1287C21.6431 24.3185 23.184 26.2088 25.3239 26.6517V17.5246H27.1706V23.6073C27.9629 23.8506 28.7739 24.044 29.5974 24.1812L32.5732 16.7447L20.9069 1.48496L22.373 0.362004L34.37 16.0398C34.5696 16.3018 34.6133 16.6449 34.4947 16.9444L31.5127 24.3996C35.4243 24.6491 39.311 23.6759 42.6487 21.6171C43.3474 21.1804 43.7779 20.4131 43.7779 19.5896C43.7779 18.7598 43.3536 17.9925 42.6487 17.562C40.4215 16.1895 37.9385 15.2974 35.3494 14.9355L35.6052 13.1076C38.4438 13.5006 41.1701 14.4863 43.6094 15.9899C44.6638 16.6512 45.3812 17.7367 45.5684 18.9719ZM53.9843 22.241C53.0423 19.914 51.7446 17.7429 50.1351 15.8089L48.9809 14.4177L50.3971 13.2386L51.5512 14.6298C53.2794 16.7073 54.6768 19.0406 55.6937 21.5485L53.9843 22.241ZM11.0124 23.3579L9.27181 22.7528C10.3012 19.7894 11.8609 17.0382 13.8635 14.63L14.2503 14.1621L15.6664 15.3412L15.2796 15.8091C13.4143 18.0488 11.9669 20.6067 11.0124 23.3579ZM13.2334 22.6964L14.9366 23.4076C15.5916 21.8417 16.4401 20.3569 17.457 18.9907L15.9846 17.8864C14.8742 19.3712 13.9508 20.987 13.2334 22.6964ZM53.1608 37.1269L51.3766 36.6527C51.8382 34.9246 52.0753 33.1404 52.0753 31.3499H53.922C53.9157 33.2963 53.6599 35.2366 53.1608 37.1269ZM47.9515 18.997C48.9747 20.357 49.8231 21.8418 50.4782 23.4077L52.1751 22.7027C51.4577 20.9933 50.5343 19.3775 49.4239 17.8927L47.9515 18.997ZM55.7624 44.2636V47.9506C55.7624 50.1529 53.2919 52.0369 48.6129 53.4032C44.3519 54.6447 38.6996 55.3309 32.7043 55.3309C26.7089 55.3309 21.0567 54.6447 16.7957 53.4032C12.1229 52.0369 9.64617 50.1529 9.64617 47.9506V47.0273H11.4928V47.9506C11.4928 50.2589 19.5594 53.4843 32.7043 53.4843C45.8429 53.4843 53.9157 50.2589 53.9157 47.9506V47.3205C52.7117 48.2313 50.9336 49.0361 48.6129 49.7099C44.3519 50.9514 38.6996 51.6377 32.7043 51.6377C31.7685 51.6377 30.8264 51.6189 29.9031 51.5877L29.9717 49.7411C30.8701 49.7723 31.7934 49.791 32.7043 49.791C45.8429 49.791 53.9157 46.5656 53.9157 44.2573C53.9157 43.2778 52.4122 42.1237 49.9043 41.1754L50.5531 39.4473C53.4353 40.5328 55.1323 41.8367 55.6126 43.334C55.7125 43.6397 55.7624 43.9516 55.7624 44.2636ZM35.5553 37.2136L35.3931 35.3795C35.9858 35.3233 36.591 35.2547 37.1836 35.1674L37.4581 36.9891C36.828 37.0764 36.1917 37.1575 35.5553 37.2136ZM35.3744 29.8148L35.5741 31.649C36.2104 31.5804 36.8592 31.4868 37.4893 31.3682L37.1524 29.5528C36.566 29.6589 35.9671 29.7462 35.3744 29.8148Z" fill="#141414"/>
</svg>
