<svg width="44" height="62" viewBox="0 0 44 62" fill="none" xmlns="http://www.w3.org/2000/svg">
<path fill-rule="evenodd" clip-rule="evenodd" d="M10.0155 39.3195L3.68541 50.2844V50.2886H40.3004L33.6363 38.7433V38.7391C33.1561 37.975 33.6823 36.9729 34.5883 36.9436C34.6385 36.9395 34.6719 36.9395 34.6844 36.9395H35.2815L28.1956 24.6676H15.7986L8.71272 36.9395H23.9032C24.588 36.9395 25.1392 37.5157 25.0932 38.2088C25.0515 38.8393 24.4961 39.3195 23.8615 39.3195H22.0384C22.0081 39.322 21.9783 39.3233 21.949 39.3233C21.9182 39.3233 21.888 39.322 21.8579 39.3195H10.0155ZM19.615 59.316H24.3792V52.6686H19.615V59.316ZM21.9992 14.2999L18.83 15.4272L14.8716 22.2834H29.1268L25.1684 15.4272L21.9992 14.2999ZM20.5252 6.14926C20.3707 6.37474 20.1411 6.54176 19.878 6.61692L17.3727 7.35598L18.9636 9.42286C19.1306 9.63998 19.2183 9.90722 19.2099 10.1828L19.1348 12.7883L21.5983 11.9115C21.8572 11.8196 22.137 11.8196 22.3959 11.9115L24.8594 12.7883L24.7842 10.1828C24.7759 9.90722 24.8636 9.63998 25.0306 9.42286L26.6215 7.35598L24.1203 6.61692C23.8573 6.54176 23.6276 6.37474 23.4731 6.14926L21.9992 3.99887L20.5252 6.14926ZM36.7304 39.3237L43.4028 50.8815C43.6158 51.2489 43.6158 51.7041 43.3987 52.0715C43.1857 52.4431 42.7932 52.6686 42.3673 52.6686H26.7593V60.506C26.7593 61.1616 26.229 61.696 25.5692 61.696H18.4208C17.7652 61.696 17.2308 61.1658 17.2308 60.506V52.6686H1.6227C1.1968 52.6686 0.804305 52.4389 0.591354 52.0715C0.378403 51.7041 0.378403 51.2489 0.591354 50.8815L7.26799 39.3237H6.65002C6.22411 39.3237 5.83162 39.094 5.61867 38.7266C5.40571 38.3591 5.40571 37.904 5.61867 37.5366L13.0469 24.6676H12.8047C12.3788 24.6676 11.9863 24.438 11.7734 24.0705C11.5604 23.7031 11.5604 23.248 11.7734 22.8805L16.713 14.3333V14.2456L16.8216 10.5377L14.429 7.42696C14.191 7.11798 14.12 6.70878 14.2411 6.33298C14.3622 5.96136 14.6628 5.67325 15.0386 5.56051L18.8007 4.44983L21.0179 1.21381C21.2392 0.888118 21.6067 0.696045 21.9992 0.696045C22.3917 0.696045 22.7591 0.888118 22.9804 1.21381L25.1976 4.44565L28.9598 5.55634C29.3397 5.6649 29.6362 5.95719 29.7573 6.32881C29.8784 6.70043 29.8074 7.10963 29.5694 7.42279L27.1768 10.5335L27.2854 14.2414V14.3291L32.2167 22.8805C32.4296 23.248 32.4296 23.7031 32.2167 24.0705C32.0037 24.4422 31.6112 24.6676 31.1853 24.6676H30.9473L38.3797 37.5366C38.5927 37.904 38.5927 38.3591 38.3797 38.7266C38.1668 39.0982 37.7743 39.3237 37.3484 39.3237H36.7304Z" fill="#141414"/>
</svg>
