<svg width="193" height="193" viewBox="0 0 193 193" fill="none" xmlns="http://www.w3.org/2000/svg">
<rect width="193" height="193" fill="#E1E1E1"/>
<g clip-path="url(#clip0)">
<path d="M95.0536 146.985C83.4642 146.985 71.8901 146.985 60.3008 146.985C54.3614 146.985 48.4221 147 42.4675 147C39.3455 147 37.0307 144.678 37.0307 141.531C37.0307 124.069 37.0307 106.622 37.0307 89.1601C37.0307 79.734 37.0916 70.3079 37.0003 60.8971C36.9698 57.4444 39.5435 54.9847 42.833 55C58.7474 55.0611 74.6618 55.0306 90.5762 55.0306C105.288 55.0306 119.984 55.0306 134.695 55.0458C138.929 55.0458 143.162 55.0306 147.381 55.0306C150.731 55.0306 152.985 57.2763 152.985 60.6221C152.985 76.2049 152.985 91.7878 152.985 107.386C152.985 118.752 152.985 130.119 152.985 141.485C152.985 144.708 150.746 146.985 147.533 146.985C133.05 147 118.567 147 104.1 147C101.084 147 98.0537 147 95.0383 147C95.0536 147 95.0536 146.985 95.0536 146.985ZM95.0079 58.7124V58.7277C84.6064 58.7277 74.2049 58.7277 63.8035 58.7277C56.7829 58.7277 49.747 58.7277 42.7264 58.7124C41.3253 58.7124 40.6857 59.354 40.6857 60.729C40.6857 68.5815 40.6857 76.4341 40.6857 84.3019C40.6857 103.276 40.6857 122.251 40.6857 141.21C40.6857 142.692 41.3406 143.333 42.8787 143.349C50.28 143.349 57.6814 143.364 65.0827 143.364C79.9159 143.364 94.749 143.349 109.582 143.349C122.04 143.349 134.512 143.349 146.97 143.349C148.736 143.349 149.33 142.768 149.33 141.027C149.315 127.491 149.315 113.94 149.315 100.404C149.315 87.1129 149.33 73.8369 149.315 60.5457C149.315 60.1026 149.132 59.5221 148.827 59.2777C148.416 58.9416 147.807 58.7277 147.274 58.7277C144.35 58.6818 141.426 58.7124 138.517 58.7124C124.019 58.7124 109.506 58.7124 95.0079 58.7124Z" fill="#9D9D9D"/>
<path d="M95.0232 134.274C80.7231 134.274 66.423 134.274 52.1228 134.274C49.7166 134.274 48.1328 132.716 48.1328 130.317C48.1328 112.84 48.1328 95.3627 48.1328 77.8855C48.1328 75.8688 48.1328 73.837 48.1328 71.8204C48.148 69.3149 49.7014 67.7719 52.199 67.7719C66.7275 67.7719 81.2561 67.7566 95.7846 67.7566C109.78 67.7566 123.776 67.7719 137.786 67.7719C140.391 67.7719 141.929 69.2996 141.929 71.8967C141.929 84.3172 141.944 96.7529 141.944 109.173C141.944 116.17 141.929 123.167 141.929 130.164C141.929 132.777 140.406 134.274 137.786 134.274C123.532 134.274 109.278 134.274 95.0232 134.274ZM52.0924 109.601C60.4836 101.764 68.753 94.0336 77.0681 86.2574C84.4085 94.2322 91.7185 102.161 98.9371 109.998C102.958 106.118 106.917 102.314 110.907 98.4487C119.786 106.469 128.801 114.612 137.924 122.847C137.924 105.705 137.924 88.7476 137.924 71.744C109.293 71.744 80.6926 71.744 52.0771 71.744C52.0924 84.3478 52.0924 96.8904 52.0924 109.601ZM76.8549 91.8642C73.7329 94.7822 70.6414 97.6696 67.5499 100.557C62.6461 105.14 57.7576 109.708 52.8538 114.276C52.2751 114.811 52.0162 115.345 52.0315 116.17C52.0771 120.586 52.0467 125.016 52.0467 129.431C52.0467 129.706 52.0467 129.966 52.0467 130.256C52.3208 130.287 52.4883 130.317 52.6559 130.317C61.3212 130.317 69.9866 130.317 78.6367 130.287C78.987 130.287 79.4134 130.073 79.657 129.828C84.6979 124.741 89.7235 119.638 94.7491 114.536C95.2516 114.016 95.7542 113.497 96.272 112.962C89.7844 105.904 83.3425 98.8918 76.8549 91.8642ZM138.045 130.287C137.756 129.37 138.335 128.499 137.482 127.735C130.111 121.12 122.771 114.475 115.43 107.829C113.938 106.485 112.43 105.14 110.907 103.75C102.227 112.58 93.5917 121.365 84.8349 130.287C102.638 130.287 120.258 130.287 138.045 130.287Z" fill="#9D9D9D"/>
<path d="M124.278 93.0558C118.78 93.0558 114.44 88.7171 114.44 83.2172C114.44 77.8091 118.826 73.3939 124.217 73.3634C129.456 73.3328 133.964 77.7632 134.07 82.8506C134.207 88.7171 129.456 93.1628 124.278 93.0558ZM124.232 89.1143C127.507 89.1143 130.126 86.4866 130.126 83.202C130.126 80.009 127.446 77.3355 124.247 77.3202C121.065 77.3202 118.369 80.0243 118.369 83.2172C118.354 86.4255 121.034 89.1143 124.232 89.1143Z" fill="#9D9D9D"/>
</g>
<defs>
<clipPath id="clip0">
<rect width="116" height="92" fill="white" transform="translate(37 55)"/>
</clipPath>
</defs>
</svg>
