<svg width="55" height="56" viewBox="0 0 55 56" fill="none" xmlns="http://www.w3.org/2000/svg">
<path fill-rule="evenodd" clip-rule="evenodd" d="M50.5905 21.2702C49.6212 18.4635 47.5304 16.1827 44.8187 14.9789L44.0775 16.6452C46.1239 17.5702 47.7585 19.2174 48.6582 21.2765H43.5199L41.6319 17.2471C41.4798 16.9303 41.1631 16.7275 40.8083 16.7275C40.4535 16.7275 40.1367 16.9303 39.9846 17.2471L38.0966 21.2765H29.5498C31.1274 16.3917 35.6764 13.0845 40.8083 13.0845C45.9402 13.0845 50.4892 16.3917 52.0668 21.2765H50.5905V21.2702ZM52.637 24.9069C52.6306 25.5151 52.5799 26.1233 52.4849 26.7252H45.9021L48.7342 23.8235C48.9243 23.6271 49.013 23.3546 48.9813 23.0885H52.4849C52.5863 23.6904 52.637 24.2987 52.637 24.9069ZM40.8083 36.7419C35.6764 36.7356 31.1337 33.4284 29.5498 28.5499H35.9805L35.4103 32.0472C35.3532 32.3893 35.499 32.7378 35.7841 32.9405C36.0692 33.1432 36.443 33.1623 36.7471 32.9912L40.8019 30.7484L44.8631 32.9912C45.1672 33.1623 45.541 33.1369 45.8261 32.9405C46.1112 32.7378 46.2569 32.3956 46.1999 32.0472L45.6297 28.5499H52.0541C50.4765 33.4284 45.9338 36.7356 40.8083 36.7419ZM43.5453 27.0673L44.1028 30.4886L41.2454 28.911C40.973 28.759 40.6372 28.759 40.3648 28.911L37.501 30.4886L38.0586 27.0673C38.1029 26.7822 38.0142 26.4908 37.8115 26.2881L35.4039 23.8235L38.6795 23.323C38.9773 23.2786 39.237 23.0822 39.3637 22.8098L40.7956 19.7687L42.2211 22.8098C42.3478 23.0822 42.6076 23.2786 42.9054 23.323L46.1809 23.8235L43.7797 26.2881C43.5896 26.4971 43.5009 26.7822 43.5453 27.0673ZM28.9732 24.9069C28.9796 24.2987 29.0303 23.6904 29.1253 23.0885H32.6226C32.5909 23.361 32.6796 23.6271 32.8697 23.8235L35.708 26.7252H29.1253C29.0303 26.1297 28.9732 25.5214 28.9732 24.9069ZM38.9836 7.6105C38.9836 6.60312 39.8009 5.79216 40.8019 5.79216C41.8093 5.79216 42.6203 6.60946 42.6203 7.6105V11.3866C41.4102 11.2028 40.1874 11.2028 38.9773 11.3866V7.6105H38.9836ZM44.4449 11.7604V7.6105C44.4513 5.95055 43.3235 4.50602 41.7143 4.10053V0.330811H39.8959V4.10053C38.293 4.51235 37.1716 5.95689 37.1653 7.6105V11.7604C30.5825 13.585 26.3566 19.9904 27.2753 26.7569C28.1939 33.5234 33.9721 38.5729 40.8083 38.5729C47.6381 38.5729 53.4226 33.5234 54.3413 26.7569C55.2536 19.9904 51.0277 13.585 44.4449 11.7604ZM11.4867 48.1649C11.341 47.8228 11.0116 47.6011 10.6441 47.6011C10.1436 47.6011 9.73175 48.0065 9.73175 48.5134C9.73175 48.8809 9.9535 49.2167 10.2956 49.356C10.6378 49.5018 11.0306 49.4194 11.2903 49.1596C11.5501 48.8999 11.6261 48.5071 11.4867 48.1649ZM13.1657 49.5588C12.7412 50.5788 11.7465 51.2441 10.6441 51.2441C9.1362 51.2441 7.91342 50.0213 7.91342 48.5071C7.91342 47.4047 8.57866 46.41 9.5987 45.9855C10.6187 45.5673 11.7972 45.8017 12.5765 46.581C13.3558 47.3666 13.5902 48.5387 13.1657 49.5588ZM18.7664 48.1649C18.6207 47.8228 18.2913 47.6011 17.9238 47.6011C17.4233 47.6011 17.0178 48.0065 17.0114 48.5134C17.0114 48.8809 17.2332 49.2167 17.5753 49.356C17.9174 49.5018 18.3103 49.4194 18.57 49.1596C18.8298 48.8999 18.9058 48.5071 18.7664 48.1649ZM20.4454 49.5588C20.0209 50.5788 19.0262 51.2441 17.9238 51.2441C16.4159 51.2441 15.1931 50.0213 15.1931 48.5071C15.1931 47.4047 15.8584 46.41 16.8784 45.9855C17.8984 45.5673 19.0769 45.8017 19.8562 46.581C20.6355 47.3666 20.8699 48.5387 20.4454 49.5588ZM8.6484 45.0545L4.73929 41.1454L2.33174 43.5529C3.63055 49.3691 8.79412 53.5063 14.756 53.5063C20.7115 53.5063 25.8751 49.3754 27.1802 43.5593L24.7663 41.1454L20.8572 45.0545C20.5024 45.4093 19.9259 45.4093 19.5711 45.0545L14.756 40.2394L9.93454 45.0545C9.57974 45.4093 9.0032 45.4093 8.6484 45.0545ZM2.10999 39.2193C2.04663 39.7325 2.01495 40.2457 2.00862 40.7652C2.00862 40.9363 2.02762 41.1074 2.04663 41.2721L4.10572 39.213C4.46052 38.8582 5.03707 38.8582 5.39186 39.213L9.30097 43.1221L14.1161 38.3007C14.4709 37.9459 15.0474 37.9459 15.4022 38.3007L20.2173 43.1221L24.1264 39.213C24.4812 38.8582 25.0578 38.8582 25.4126 39.213L27.4717 41.2721C27.4742 41.2032 27.4788 41.1354 27.4834 41.0677L27.4834 41.0676C27.4902 40.9673 27.497 40.8674 27.497 40.7652C27.497 40.252 27.459 39.7325 27.3957 39.2193L24.7663 36.59L20.8572 40.4991C20.5024 40.8539 19.9259 40.8539 19.5711 40.4991L14.756 35.6777L9.93454 40.4991C9.57974 40.8539 9.0032 40.8539 8.6484 40.4991L4.73929 36.59L2.10999 39.2193ZM26.4326 35.684C24.4052 31.04 19.8182 28.0305 14.7497 28.0242C9.68111 28.0305 5.10042 31.04 3.07301 35.684L4.10572 34.6576C4.46052 34.3029 5.03707 34.3029 5.39186 34.6576L9.30097 38.5668L14.1161 33.7516C14.4709 33.3969 15.0474 33.3969 15.4022 33.7516L20.2173 38.5668L24.1264 34.6576C24.4812 34.3029 25.0578 34.3029 25.4126 34.6576L26.4326 35.684ZM14.7497 20.7445C13.7486 20.7445 12.9313 21.5555 12.9313 22.5629V26.3326C13.5332 26.2502 14.1414 26.2122 14.7497 26.2059C15.3579 26.2122 15.9661 26.2502 16.568 26.3326V22.5629C16.568 21.5618 15.757 20.7445 14.7497 20.7445ZM29.2013 42.6089C28.2763 49.8886 22.08 55.3373 14.7497 55.3309C7.41928 55.3373 1.22933 49.8886 0.297985 42.6152C-0.620687 35.3356 4.01069 28.512 11.113 26.6747V22.5565C11.1193 20.9029 12.2407 19.4584 13.8436 19.0466V0.71112H15.662V19.0466C17.2712 19.4457 18.399 20.8966 18.3927 22.5565V26.6747C25.495 28.5057 30.1263 35.3356 29.2013 42.6089ZM9.28831 32.573C9.65578 32.573 9.98523 32.7948 10.131 33.1369C10.2703 33.479 10.1943 33.8718 9.93455 34.1316C9.67478 34.3913 9.28197 34.4737 8.93985 34.328C8.59772 34.1886 8.37597 33.8528 8.37597 33.4853C8.38231 32.9848 8.78779 32.573 9.28831 32.573ZM9.28831 36.216C10.3907 36.216 11.3854 35.5508 11.8099 34.5307C12.2344 33.5107 12 32.3386 11.2207 31.553C10.4414 30.7737 9.26297 30.5393 8.24292 30.9574C7.22288 31.3819 6.55763 32.3766 6.55763 33.479C6.55763 34.9932 7.78042 36.216 9.28831 36.216ZM21.0599 33.1369C20.9142 32.7948 20.5848 32.573 20.2173 32.573C19.7104 32.573 19.305 32.9848 19.305 33.4853C19.305 33.8528 19.5267 34.1886 19.8688 34.328C20.211 34.4737 20.6038 34.3913 20.8635 34.1316C21.1233 33.8718 21.1993 33.479 21.0599 33.1369ZM22.7389 34.5307C22.3144 35.5508 21.3197 36.216 20.2173 36.216C18.7094 36.216 17.4866 34.9932 17.4866 33.479C17.4866 32.3766 18.1519 31.3819 19.1719 30.9574C20.1919 30.5393 21.3704 30.7737 22.1497 31.553C22.929 32.3386 23.1634 33.5107 22.7389 34.5307ZM15.586 29.7982H13.7677V31.6165H15.586V29.7982ZM4.66332 45.276H6.48165V47.0943H4.66332V45.276ZM24.6903 45.276H22.872V47.0943H24.6903V45.276ZM13.7677 43.4576H15.586V45.2759H13.7677V43.4576ZM7.39397 17.9632H5.57564V19.7815H7.39397V17.9632ZM5.57564 21.6061H7.39397V23.4244H5.57564V21.6061ZM5.57556 19.7876H3.75722V21.606H5.57556V19.7876ZM7.40028 19.7876H9.21862V21.606H7.40028V19.7876ZM31.9763 6.13465H30.158V7.95298H31.9763V9.771H33.7947V7.95266H31.9763V6.13465ZM30.158 9.77108H31.9763V11.5894H30.158V9.77108ZM30.1516 7.95266H28.3333V9.771H30.1516V7.95266ZM35.613 40.7267H33.7946V42.5451H35.613V40.7267ZM33.7946 44.364H35.613V46.1823H33.7946V44.364ZM33.7947 42.5456H31.9763V44.3639H33.7947V42.5456ZM35.6193 42.5456H37.4376V44.3639H35.6193V42.5456ZM35.613 17.9632H33.7946V19.7815H35.613V17.9632ZM36.5254 15.2324H38.3437V17.0507H36.5254V15.2324Z" fill="#141414"/>
</svg>
