<svg width="58" height="50" viewBox="0 0 58 50" fill="none" xmlns="http://www.w3.org/2000/svg">
<path fill-rule="evenodd" clip-rule="evenodd" d="M53.4393 38.7062H53.8888C54.9998 38.7062 55.9054 37.8007 55.9118 36.6897V19.2088L42.419 25.6823C42.3034 25.7401 42.1814 25.7657 42.0529 25.7657C41.9245 25.7657 41.8025 25.7401 41.6869 25.6823L28.2005 19.2088V30.897L31.7648 28.7584C32.5393 28.2927 33.1346 28.3017 34.1515 28.3171C34.5089 28.3225 34.9184 28.3287 35.4061 28.3153C36.4914 28.3153 37.4676 28.996 37.8336 30.0172C38.5658 32.0465 40.5181 33.4144 42.6823 33.4144C44.8915 33.4144 46.8567 32.008 47.5695 29.9144C47.897 28.9575 48.7961 28.3089 49.8108 28.3089H50.3374C52.0457 28.3089 53.4393 29.7025 53.4393 31.4107V38.7062ZM50.2154 46.9201C51.0631 46.9201 51.7503 46.2329 51.7503 45.3852H51.7246V43.7154H39.6382H39.619H39.5997H35.5667H35.5474H35.5281H31.5529H31.5336H31.5143H27.4813H27.462H27.4427H15.7674C16.1977 45.52 17.8032 46.8687 19.7234 46.9201H50.2154ZM13.3912 47.9925C13.4233 47.9925 13.449 47.9669 13.449 47.9347V46.2843H10.8288V47.9347C10.8288 47.9669 10.8545 47.9925 10.8866 47.9925H13.3912ZM6.68659 42.0585V42.9769C6.68659 43.8696 7.41228 44.6017 8.29853 44.5953H14.2711C14.2614 44.5599 14.2502 44.5246 14.2389 44.4893C14.2277 44.454 14.2165 44.4187 14.2068 44.3833C14.2004 44.3769 14.2004 44.3769 14.2004 44.3705C14.2004 44.3673 14.1988 44.3641 14.1972 44.3609C14.1956 44.3577 14.194 44.3544 14.194 44.3512C14.0463 43.8375 13.9692 43.2916 13.9692 42.7329C13.9692 40.6842 15.061 38.7576 16.8206 37.7044L20.2628 35.6429H20.1601H4.11776C2.81408 35.6429 1.75444 36.7025 1.75444 38.0062C1.75444 38.642 1.99847 39.2328 2.44802 39.6824C2.89114 40.1319 3.48839 40.376 4.11776 40.376H11.4453C11.9077 40.376 12.2866 40.7549 12.2866 41.2173C12.2866 41.6796 11.9142 42.0585 11.4453 42.0585H6.68659ZM13.449 19.3951H10.8288V33.9539H13.449V19.3951ZM32.6703 30.7557V30.1713C32.6619 30.1741 32.6559 30.1781 32.6497 30.1823C32.6417 30.1877 32.6334 30.1934 32.6189 30.197L22.5941 36.208C22.5876 36.2145 22.5748 36.2209 22.562 36.2273L21.5986 36.8053C21.5922 36.8117 21.5794 36.8246 21.573 36.8502C21.5665 36.8759 21.5794 36.8952 21.5858 36.9016C21.9519 37.3769 22.6197 37.5053 23.1335 37.197L26.3124 35.2897C26.3189 35.2833 26.3253 35.2833 26.3317 35.2768L29.1382 33.5943C29.1502 33.5902 29.1598 33.5837 29.1684 33.5777C29.1735 33.5742 29.1783 33.571 29.1831 33.5686L32.0152 31.8731C32.0217 31.8699 32.0297 31.8651 32.0377 31.8603C32.0457 31.8555 32.0538 31.8507 32.0602 31.8475C32.4391 31.6163 32.6703 31.1988 32.6703 30.7557ZM20.2564 37.9292C20.1986 37.8585 20.1537 37.7814 20.1087 37.7044L17.694 39.1493C16.6472 39.7787 15.9279 40.8448 15.7224 42.0264H25.8565L23.6344 38.8347C23.2748 38.9824 22.9023 39.053 22.5363 39.053C21.6693 39.053 20.8151 38.6613 20.2564 37.9292ZM25.0923 37.9869L27.9115 42.0264H29.9345L26.5179 37.1328L25.0923 37.9869ZM27.9693 36.2658L31.9896 42.0264H33.9547L29.3565 35.4374L27.9693 36.2658ZM36.2474 30.5823C36.1189 30.2291 35.785 29.9915 35.4061 29.9915H34.3529V30.7557C34.3529 31.4878 34.0767 32.1878 33.6015 32.7273L35.3933 35.2961C35.6566 35.6814 35.5602 36.208 35.1813 36.4713C35.0336 36.5741 34.8666 36.6255 34.6997 36.6255C34.4299 36.6255 34.1731 36.5035 34.0061 36.2658L32.2207 33.7099L30.795 34.564L36.0033 42.0264H38.0263L35.9391 39.0337C35.6758 38.6484 35.7722 38.1218 36.1511 37.8585C36.5364 37.5888 37.0566 37.6851 37.3263 38.064L40.0878 42.0264H51.7567V31.4043C51.7567 30.6273 51.1209 29.9915 50.3374 29.9915H49.8108C49.5154 29.9915 49.2585 30.1777 49.1622 30.4539C48.2181 33.2346 45.6172 35.097 42.6823 35.097C39.8116 35.097 37.2235 33.2796 36.2474 30.5823ZM6.68017 10.3785V11.2968H17.5977V10.3785C17.5977 9.48579 16.8656 8.7601 15.9729 8.7601H8.30495C7.40586 8.7601 6.68017 9.48579 6.68017 10.3785ZM10.8866 5.36282C10.8545 5.36282 10.8288 5.38851 10.8288 5.42062V7.07109H13.449V5.42062C13.449 5.38851 13.4233 5.36282 13.3912 5.36282H10.8866ZM57.5944 13.8592V17.8538V17.8794V36.6897C57.5944 38.7319 55.931 40.3952 53.8888 40.3952H53.4393V45.3852C53.4393 47.1577 51.9943 48.6026 50.2218 48.6026H19.8454C18.3491 48.6026 16.8784 48.0375 15.7481 46.9329C15.5362 46.7274 15.3435 46.5155 15.1701 46.2843H15.138V47.9347C15.138 48.8916 14.3545 49.6751 13.3977 49.6751H10.893C9.93616 49.6751 9.15266 48.8981 9.15266 47.9347V46.2843H8.31137C6.4875 46.2843 5.004 44.8008 5.004 42.9769V42.0585H4.11776C3.03885 42.0585 2.01774 41.6347 1.25351 40.8705C0.489286 40.1062 0.0654297 39.0851 0.0654297 38.0062C0.0654297 35.7713 1.88288 33.9539 4.11776 33.9603H9.14624V19.4015H4.11776C1.88288 19.4015 0.0654297 17.584 0.0654297 15.3491C0.0654297 15.1179 0.0846959 14.8932 0.12965 14.6684C0.206715 14.206 0.636994 13.8978 1.09938 13.9748C1.55535 14.0519 1.86361 14.4886 1.78655 14.9446C1.76728 15.073 1.75444 15.2079 1.75444 15.3427C1.75444 16.6464 2.81408 17.706 4.11776 17.706H20.1601C21.4638 17.706 22.5234 16.6464 22.5234 15.3427C22.5234 14.039 21.4638 12.9794 20.1601 12.9794H4.11776C3.89941 12.9794 3.68748 13.0115 3.48197 13.0693C3.03243 13.1913 2.57004 12.9344 2.4416 12.4849C2.31316 12.0354 2.57646 11.573 3.02601 11.4445C3.37922 11.3482 3.74528 11.2968 4.11776 11.2968H5.01043V10.3785C5.01043 8.55459 6.49393 7.07109 8.31779 7.07109H9.15909V5.42062C9.15909 4.46373 9.94258 3.68024 10.8995 3.68024H13.4041C14.361 3.68024 15.1445 4.45731 15.1445 5.42062V7.06467H15.9793C17.8032 7.06467 19.2867 8.54817 19.2867 10.372V11.2904H20.1729C22.4078 11.2904 24.2253 13.1078 24.2253 15.3427C24.2253 17.5776 22.4078 19.3951 20.1729 19.3951H15.1445V33.9539H20.1729C20.8794 33.9539 21.5794 34.1466 22.1895 34.4933L26.5244 31.8988V17.8987V17.8409V13.8592C26.5244 13.3326 26.7235 12.8445 27.0959 12.4721C27.4684 12.106 27.9565 11.9005 28.4831 11.9005C29.9088 11.9005 31.0712 10.7381 31.0712 9.31239V8.18211C31.0712 7.71972 31.4501 7.34082 31.9125 7.34082C32.3749 7.34082 32.7538 7.71972 32.7538 8.18211V9.30597C32.7538 11.6629 30.8336 13.5831 28.4767 13.5831C28.3739 13.5831 28.3097 13.628 28.284 13.6601C28.2455 13.6987 28.2005 13.7565 28.2005 13.8528V17.3336L42.0529 23.9804L55.8925 17.3336V13.8528C55.8925 13.7051 55.7705 13.5831 55.6228 13.5831C54.4797 13.5831 53.4072 13.1399 52.598 12.3308C51.7888 11.5216 51.3457 10.4491 51.3457 9.30597V2.26738C51.3457 2.10041 51.2108 1.96554 51.0438 1.96554H48.6484C48.4814 1.96554 48.3466 2.10041 48.3466 2.26738V6.38393C48.3466 9.85185 45.5658 12.7225 42.1493 12.7803C40.4474 12.806 38.8355 12.1638 37.6217 10.9693C36.4079 9.77478 35.74 8.17569 35.74 6.47384V2.26738C35.74 2.10041 35.6052 1.96554 35.4382 1.96554H33.0428C32.8758 1.96554 32.7409 2.10041 32.7409 2.26738V4.8041C32.7409 5.26649 32.3685 5.64539 31.8996 5.64539C31.4373 5.64539 31.0584 5.26649 31.0584 4.8041V2.26738C31.0584 1.17563 31.951 0.282959 33.0492 0.282959H35.4446C36.5428 0.282959 37.4291 1.17563 37.4355 2.26738V6.47384C37.4355 7.71972 37.9236 8.89496 38.8162 9.76836C39.7089 10.6418 40.8906 11.1106 42.1364 11.0913C44.641 11.0528 46.6768 8.93991 46.6768 6.38393V2.26738C46.6768 1.17563 47.5631 0.282959 48.6613 0.282959H51.0567C52.1549 0.282959 53.0411 1.17563 53.0475 2.26738V9.31239C53.0475 9.99956 53.3173 10.6546 53.8053 11.1427C54.2934 11.6308 54.942 11.9005 55.6356 11.9005C56.7145 11.9005 57.5944 12.7803 57.5944 13.8592ZM40.608 15.1311H41.1731C41.886 15.1311 42.4704 15.7155 42.4704 16.4284V19.7293H42.5732C43.0355 19.7293 43.4144 20.1018 43.4144 20.5706C43.4144 21.033 43.0355 21.4119 42.5732 21.4119H40.6851C40.2227 21.4119 39.8438 21.033 39.8438 20.5706C39.8438 20.1082 40.2227 19.7293 40.6851 19.7293H40.7878V16.8137H40.608C40.1456 16.8137 39.7667 16.4348 39.7667 15.9724C39.7667 15.51 40.1392 15.1311 40.608 15.1311Z" fill="#141414"/>
</svg>
