<svg width="57" height="53" viewBox="0 0 57 53" fill="none" xmlns="http://www.w3.org/2000/svg">
<path fill-rule="evenodd" clip-rule="evenodd" d="M47.5856 12.8336L16.8606 0.282959L7.52633 23.1373L6.90361 24.6716L8.45077 25.3072L9.07349 23.76L17.7722 2.46568L43.1688 12.8336H18.3308V46.7427L2.35201 40.2138L6.0562 31.1363L6.5441 29.9422L5.00978 29.3067L4.52188 30.5136L0.182129 41.1254L18.3308 48.5467V52.283H56.875V25.3714H55.2058V50.6138H19.9935V14.5027H55.2058V20.3639H56.875V12.8336H47.5856ZM56.8749 22.0331H55.2058V23.7022H56.8749V22.0331ZM5.62999 27.7699L6.26109 26.2246L7.80638 26.8557L7.17527 28.401L5.62999 27.7699ZM50.1791 20.0877V43.8151L42.3149 27.9969L32.8009 45.2532H26.7021L34.2453 31.5662L35.9722 34.9174L37.4488 34.147L34.2902 28.0033L25.0265 44.8616V20.0877H50.1791ZM34.7139 45.2532L42.2443 31.5983L44.2152 35.5722H40.7357V37.2413H45.0433L49.0236 45.2596H34.7139V45.2532ZM23.3574 46.9223H51.8483V18.4186H23.3574V46.9223ZM47.4123 26.334C47.4123 25.493 46.7253 24.7997 45.8779 24.7997C45.0305 24.7997 44.3436 25.4866 44.3436 26.334C44.3436 27.1814 45.0305 27.8684 45.8779 27.8684C46.7253 27.8684 47.4123 27.175 47.4123 26.334ZM49.0814 26.334C49.0814 28.0995 47.6434 29.5375 45.8779 29.5375C44.1125 29.5375 42.6745 28.0995 42.6745 26.334C42.6745 24.5686 44.1061 23.1306 45.8779 23.1306C47.6434 23.1306 49.0814 24.5622 49.0814 26.334Z" fill="#141414"/>
</svg>
