<svg width="47" height="60" viewBox="0 0 47 60" fill="none" xmlns="http://www.w3.org/2000/svg">
<path fill-rule="evenodd" clip-rule="evenodd" d="M19.9299 2.07278C19.6235 2.07278 19.3713 2.33107 19.3713 2.63141V3.99495H26.7536V2.63141C26.7536 2.33107 26.4953 2.07278 26.195 2.07278H19.9299ZM38.3707 39.7293V38.3658H7.74811V39.7293C7.74811 40.0297 8.00641 40.288 8.30675 40.288H37.8121C38.1124 40.288 38.3707 40.0297 38.3707 39.7293ZM39.2898 55.4851C39.3378 55.4551 39.3498 55.4011 39.3258 55.353L31.6311 42.0239H29.4146L37.6619 56.3201C37.6739 56.3381 37.698 56.3561 37.722 56.3621C37.746 56.3681 37.7701 56.3621 37.7941 56.3501L39.2898 55.4851ZM23.9244 57.966C23.9785 57.966 24.0205 57.9239 24.0205 57.8698V42.0239H22.0983V57.8698C22.0983 57.9239 22.1404 57.966 22.1944 57.966H23.9244ZM8.39685 56.3561C8.42087 56.3501 8.4449 56.3381 8.45692 56.3141L16.7042 42.0179H14.4877L6.79304 55.347C6.76901 55.395 6.78102 55.4551 6.82908 55.4791L8.32477 56.3441C8.34879 56.3621 8.37282 56.3621 8.39685 56.3561ZM19.9299 0.330811H26.195C27.4624 0.330811 28.4896 1.36398 28.4896 2.63141V3.99495H43.5846C44.9542 3.99495 46.0654 5.10621 46.0654 6.47576V13.4677C46.0654 13.9482 45.675 14.3386 45.1944 14.3386C44.7139 14.3386 44.3235 13.9482 44.3235 13.4677V6.47576C44.3235 6.06129 43.9871 5.73091 43.5786 5.73091H2.55224C2.13777 5.73091 1.8074 6.06729 1.8074 6.47576V25.7876L12.944 14.639C14.0913 13.4917 15.9474 13.5097 17.0767 14.669L22.3566 20.1172C22.693 20.4656 22.681 21.0122 22.3386 21.3486C21.9902 21.6849 21.4436 21.6729 21.1072 21.3305L15.8272 15.8824C15.3767 15.4199 14.6319 15.4139 14.1754 15.8704L1.80139 28.2504V35.891C1.80139 36.3055 2.13777 36.6358 2.54623 36.6358H43.5786C43.9871 36.6358 44.3235 36.2995 44.3235 35.891V29.9383L38.1184 23.7513C37.6499 23.2888 36.881 23.3008 36.4365 23.7993L32.2979 28.4065C31.1686 29.668 29.2164 29.686 28.0571 28.4906L23.9424 24.2498C23.606 23.9015 23.6181 23.3548 23.9604 23.0185C24.3088 22.6821 24.8555 22.6941 25.1918 23.0365L29.3005 27.2773C29.775 27.7578 30.5499 27.7458 31.0004 27.2412L35.1391 22.628C36.2503 21.3906 38.1725 21.3426 39.3438 22.5139L44.3235 27.4755V17.5222C44.3235 17.0417 44.7139 16.6513 45.1944 16.6513C45.675 16.6513 46.0654 17.0417 46.0654 17.5222V35.879C46.0654 37.2485 44.9542 38.3598 43.5846 38.3598H40.1187V39.7233C40.1187 40.9908 39.0855 42.0239 37.8181 42.0239H33.6434L40.8335 54.482C41.3381 55.359 41.0377 56.4823 40.1608 56.9868L38.6651 57.8518C37.7881 58.3624 36.6648 58.0561 36.1602 57.1791L27.4083 42.0239H25.7625V57.8698C25.7625 58.885 24.9335 59.7079 23.9244 59.7079H22.1944C21.1853 59.7079 20.3624 58.879 20.3624 57.8698V42.0239H18.7165L9.96462 57.1791C9.46005 58.0561 8.33678 58.3564 7.45979 57.8518L5.9641 56.9868C5.08711 56.4823 4.78677 55.359 5.29134 54.482L12.4815 42.0299H8.30675C7.04532 42.0299 6.01215 40.9968 6.01215 39.7293V38.3658H2.54623C1.17669 38.3658 0.0654297 37.2545 0.0654297 35.885V6.47576C0.0654297 5.10621 1.17669 3.98895 2.54623 3.99495H17.6353V2.63141C17.6353 1.36398 18.6625 0.330811 19.9299 0.330811ZM27.2461 14.7532C27.2461 16.0506 28.3033 17.1078 29.6008 17.1078C30.8982 17.1078 31.9554 16.0506 31.9554 14.7532C31.9554 13.4557 30.8982 12.3985 29.6008 12.3985C28.3033 12.3985 27.2461 13.4557 27.2461 14.7532ZM29.6008 10.6565C31.8593 10.6565 33.6974 12.4946 33.6974 14.7532C33.6974 17.0117 31.8593 18.8498 29.6008 18.8498C27.3422 18.8498 25.5041 17.0117 25.5041 14.7532C25.5041 12.4946 27.3422 10.6565 29.6008 10.6565ZM30.4658 8.81844V7.74923C30.4658 7.26869 30.0754 6.87825 29.5948 6.87825C29.1143 6.87825 28.7238 7.26869 28.7238 7.74923V8.81844C28.7238 9.29898 29.1143 9.68942 29.5948 9.68942C30.0814 9.68942 30.4658 9.29898 30.4658 8.81844ZM28.7298 21.7512V20.682C28.7298 20.2015 29.1202 19.817 29.6008 19.811C30.0813 19.811 30.4718 20.2015 30.4718 20.682V21.7512C30.4718 22.2318 30.0813 22.6222 29.6008 22.6222C29.1202 22.6222 28.7298 22.2318 28.7298 21.7512ZM26.0207 11.173C26.3571 10.8366 26.3571 10.2839 26.0207 9.94156L25.2639 9.1847C24.9215 8.84232 24.3749 8.84232 24.0325 9.1847C23.6901 9.52709 23.6901 10.0737 24.0325 10.4161L24.7893 11.173C25.1317 11.5153 25.6783 11.5153 26.0207 11.173ZM35.1631 20.3215C34.8207 20.6639 34.2741 20.6639 33.9317 20.3215L33.1749 19.5647C32.8325 19.2223 32.8325 18.6757 33.1749 18.3333C33.5173 17.9909 34.0639 17.9909 34.4063 18.3333L35.1631 19.0901C35.5055 19.4325 35.5055 19.9851 35.1631 20.3215ZM22.5969 13.8823C22.1163 13.8823 21.7259 14.2728 21.7259 14.7533C21.7259 15.2339 22.1163 15.6243 22.5969 15.6243H23.6661C24.1466 15.6243 24.5371 15.2339 24.5371 14.7533C24.5371 14.2728 24.1466 13.8823 23.6661 13.8823H22.5969ZM37.4697 14.7533C37.4697 15.2339 37.0793 15.6243 36.5987 15.6243H35.5295C35.049 15.6243 34.6586 15.2339 34.6586 14.7533C34.6586 14.2728 35.049 13.8823 35.5295 13.8823H36.5987C37.0793 13.8823 37.4697 14.2728 37.4697 14.7533ZM25.2639 20.3215L26.0207 19.5647C26.3631 19.2223 26.3631 18.6757 26.0207 18.3333C25.6783 17.9909 25.1317 17.9909 24.7893 18.3333L24.0325 19.0901C23.6901 19.4325 23.6901 19.9791 24.0325 20.3215C24.3749 20.6579 24.9215 20.6579 25.2639 20.3215ZM35.1631 10.4161L34.4063 11.173C34.0699 11.5153 33.5173 11.5153 33.1809 11.173C32.8385 10.8306 32.8385 10.2839 33.1809 9.94156L33.9317 9.1847C34.2741 8.84232 34.8207 8.84232 35.1631 9.1847C35.5055 9.52709 35.5055 10.0737 35.1631 10.4161Z" fill="#141414"/>
</svg>
