<svg width="312" height="128" viewBox="0 0 312 128" fill="none" xmlns="http://www.w3.org/2000/svg">
<path d="M99.8245 21.6571H0.612061V25.122H99.8245V21.6571Z" fill="#E30517"/>
<path d="M99.8245 68.0894H0.612061V71.5543H99.8245V68.0894Z" fill="#E30517"/>
<path d="M311.734 21.6571H212.522V25.122H311.734V21.6571Z" fill="#253781"/>
<path d="M311.734 68.0894H212.522V71.5543H311.734V68.0894Z" fill="#253781"/>
<path d="M7.901 58.3991C7.901 56.5852 8.23377 54.9079 8.90459 53.3673C9.57012 51.8268 10.3783 50.4703 11.3185 49.3083C12.2587 48.1463 13.4735 46.7898 14.9631 45.2492C16.4843 43.6456 17.583 42.3679 18.2696 41.4162C18.951 40.4646 19.2943 39.4866 19.2943 38.4929C19.2943 37.7357 19.0831 37.089 18.6552 36.5422C18.2274 36.0006 17.6094 35.7272 16.7854 35.7272C15.9667 35.7272 15.3117 36.0164 14.8257 36.5895C14.3398 37.1626 14.081 37.9828 14.0493 39.0397H8.21792C8.33941 36.048 9.13171 33.7766 10.5896 32.236C12.0474 30.6955 14.081 29.9225 16.6956 29.9225C18.6077 29.9225 20.2293 30.3169 21.5498 31.1003C22.8703 31.889 23.8527 32.9143 24.4866 34.1867C25.1257 35.4591 25.4426 36.7893 25.4426 38.1774C25.4426 39.597 25.131 40.9746 24.5077 42.3048C23.8844 43.635 23.1238 44.8444 22.2312 45.9327C21.3332 47.0211 20.2029 48.2777 18.8348 49.6974C17.3136 51.3273 16.1991 52.6365 15.486 53.6197C14.7729 54.6029 14.4137 55.5651 14.4137 56.501H25.58V62.2163H7.901V58.3991Z" fill="#E30517"/>
<path d="M41.1201 53.1412V39.7126C41.1201 38.4139 40.8455 37.4307 40.3014 36.7629C39.7521 36.1005 38.9651 35.7639 37.9298 35.7639C35.8328 35.7639 34.787 37.0784 34.787 39.7073V53.1359C34.787 55.707 35.8328 56.9899 37.9298 56.9899C40.0532 56.9952 41.1201 55.7123 41.1201 53.1412ZM31.1846 60.1499C29.5736 58.4727 28.7708 56.1224 28.7708 53.0939V39.6653C28.7708 36.642 29.5736 34.276 31.1846 32.5672C32.7957 30.8584 35.0405 30.0066 37.9298 30.0066C40.8138 30.0066 43.0692 30.8636 44.6961 32.5672C46.3229 34.276 47.1364 36.642 47.1364 39.6653V53.0939C47.1364 56.1171 46.3229 58.4674 44.6961 60.1499C43.0692 61.8272 40.8138 62.6684 37.9298 62.6684C35.0405 62.6632 32.7957 61.8272 31.1846 60.1499Z" fill="#E30517"/>
<path d="M50.0942 58.3991C50.0942 56.5852 50.427 54.9079 51.0978 53.3673C51.7634 51.8268 52.5715 50.4703 53.5117 49.3083C54.4519 48.1463 55.6668 46.7898 57.1563 45.2492C58.6775 43.6456 59.7762 42.3679 60.4629 41.4162C61.1443 40.4646 61.4876 39.4866 61.4876 38.4929C61.4876 37.7357 61.2763 37.089 60.8485 36.5422C60.4206 36.0006 59.8026 35.7272 58.9786 35.7272C58.1599 35.7272 57.5049 36.0164 57.019 36.5895C56.533 37.1626 56.2742 37.9828 56.2425 39.0397H50.4164C50.5379 36.048 51.3302 33.7766 52.7881 32.236C54.2459 30.6955 56.2795 29.9225 58.8941 29.9225C60.8062 29.9225 62.4278 30.3169 63.7483 31.1003C65.0688 31.889 66.0513 32.9143 66.6851 34.1867C67.3242 35.4591 67.6412 36.7893 67.6412 38.1774C67.6412 39.597 67.3295 40.9746 66.7062 42.3048C66.083 43.635 65.3223 44.8444 64.4244 45.9327C63.5265 47.0211 62.3961 48.2777 61.028 49.6974C59.5068 51.3273 58.3923 52.6365 57.6792 53.6197C56.9662 54.6029 56.607 55.5651 56.607 56.501H67.7732V62.2163H50.0942V58.3991Z" fill="#E30517"/>
<path d="M83.313 53.1412V39.7126C83.313 38.4139 83.0383 37.4307 82.4943 36.7629C81.9449 36.1005 81.1579 35.7639 80.1226 35.7639C78.0257 35.7639 76.9798 37.0784 76.9798 39.7073V53.1359C76.9798 55.707 78.0257 56.9899 80.1226 56.9899C82.2513 56.9952 83.313 55.7123 83.313 53.1412ZM73.3828 60.1499C71.7717 58.4727 70.9689 56.1224 70.9689 53.0939V39.6653C70.9689 36.642 71.7717 34.276 73.3828 32.5672C74.9938 30.8584 77.2386 30.0066 80.1279 30.0066C83.0119 30.0066 85.2673 30.8636 86.8942 32.5672C88.5211 34.276 89.3345 36.642 89.3345 39.6653V53.0939C89.3345 56.1171 88.5211 58.4674 86.8942 60.1499C85.2673 61.8272 83.0119 62.6684 80.1279 62.6684C77.2386 62.6632 74.9885 61.8272 73.3828 60.1499Z" fill="#E30517"/>
<path d="M224.845 58.3991C224.845 56.5852 225.178 54.9079 225.849 53.3673C226.514 51.8268 227.322 50.4703 228.262 49.3083C229.203 48.1463 230.418 46.7898 231.907 45.2492C233.428 43.6456 234.527 42.3679 235.214 41.4162C235.895 40.4646 236.238 39.4866 236.238 38.4929C236.238 37.7357 236.027 37.089 235.599 36.5422C235.171 36.0006 234.553 35.7272 233.729 35.7272C232.911 35.7272 232.256 36.0164 231.77 36.5895C231.284 37.1626 231.025 37.9828 230.993 39.0397H225.162C225.283 36.048 226.076 33.7766 227.534 32.236C228.991 30.6955 231.025 29.9225 233.64 29.9225C235.552 29.9225 237.173 30.3169 238.494 31.1003C239.814 31.889 240.797 32.9143 241.431 34.1867C242.07 35.4591 242.387 36.7893 242.387 38.1774C242.387 39.597 242.075 40.9746 241.452 42.3048C240.828 43.635 240.068 44.8444 239.175 45.9327C238.277 47.0211 237.147 48.2777 235.784 49.6974C234.263 51.3273 233.148 52.6365 232.435 53.6197C231.722 54.6029 231.363 55.5651 231.363 56.501H242.529V62.2163H224.85V58.3991H224.845Z" fill="#253781"/>
<path d="M258.064 53.1412V39.7126C258.064 38.4139 257.789 37.4307 257.245 36.7629C256.701 36.1005 255.908 35.7639 254.873 35.7639C252.776 35.7639 251.73 37.0784 251.73 39.7073V53.1359C251.73 55.707 252.776 56.9899 254.873 56.9899C257.002 56.9952 258.064 55.7123 258.064 53.1412ZM248.128 60.1499C246.517 58.4727 245.714 56.1224 245.714 53.0939V39.6653C245.714 36.642 246.517 34.276 248.128 32.5672C249.739 30.8584 251.984 30.0066 254.873 30.0066C257.757 30.0066 260.013 30.8636 261.639 32.5672C263.266 34.276 264.08 36.642 264.08 39.6653V53.0939C264.08 56.1171 263.266 58.4674 261.639 60.1499C260.013 61.8272 257.757 62.6684 254.873 62.6684C251.989 62.6632 249.739 61.8272 248.128 60.1499Z" fill="#253781"/>
<path d="M267.038 58.3991C267.038 56.5852 267.37 54.9079 268.041 53.3673C268.707 51.8268 269.515 50.4703 270.455 49.3083C271.395 48.1463 272.61 46.7898 274.1 45.2492C275.616 43.6456 276.72 42.3679 277.401 41.4162C278.082 40.4646 278.426 39.4866 278.426 38.4929C278.426 37.7357 278.214 37.089 277.787 36.5422C277.359 36.0006 276.741 35.7272 275.917 35.7272C275.098 35.7272 274.443 36.0164 273.957 36.5895C273.471 37.1626 273.212 37.9828 273.181 39.0397H267.349C267.471 36.048 268.263 33.7766 269.721 32.236C271.179 30.6955 273.212 29.9225 275.827 29.9225C277.744 29.9225 279.361 30.3169 280.681 31.1003C282.002 31.889 282.979 32.9143 283.618 34.1867C284.257 35.4591 284.574 36.7893 284.574 38.1774C284.574 39.597 284.262 40.9746 283.639 42.3048C283.016 43.635 282.255 44.8444 281.362 45.9327C280.465 47.0211 279.334 48.2777 277.966 49.6974C276.445 51.3273 275.33 52.6365 274.617 53.6197C273.904 54.6029 273.545 55.5651 273.545 56.501H284.711V62.2163H267.038V58.3991Z" fill="#253781"/>
<path d="M297.568 30.4587V62.211H291.42V38.6715L287.041 41.1638V34.5441L293.696 30.4587H297.568Z" fill="#253781"/>
<path d="M131.575 65.534H123.314C122.189 65.534 121.275 64.6244 121.275 63.5044C121.275 62.3845 122.189 61.4749 123.314 61.4749H131.575C132.7 61.4749 133.614 62.3845 133.614 63.5044C133.614 64.6244 132.7 65.534 131.575 65.534Z" fill="#253781"/>
<path d="M189.619 65.534H181.358C180.233 65.534 179.319 64.6244 179.319 63.5044C179.319 62.3845 180.233 61.4749 181.358 61.4749H189.619C190.744 61.4749 191.658 62.3845 191.658 63.5044C191.658 64.6244 190.744 65.534 189.619 65.534Z" fill="#253781"/>
<path d="M156.464 13.2393L144.299 9.60089H168.634L156.464 13.2393Z" fill="#253781"/>
<path d="M142.725 97.9014H149.586L136.566 84.8409H119.431L121.819 88.574H134.601L142.725 97.9014Z" fill="#E30517"/>
<path d="M122.902 90.267L127.787 97.9014H140.459L133.809 90.267H122.902Z" fill="#253781"/>
<path d="M171.327 97.9014H185.145L190.026 90.267H178.305L171.327 97.9014Z" fill="#253781"/>
<path d="M176.361 84.8409L163.346 97.9014H169.014L177.544 88.574H191.108L193.501 84.8409H176.361Z" fill="#E30517"/>
<path d="M169.014 97.9014H171.327L178.31 90.267H190.026L191.109 88.574H177.544L169.014 97.9014Z" fill="#253781"/>
<path d="M134.602 88.574H121.819L122.902 90.267H133.809L140.459 97.9014H142.725L134.602 88.574Z" fill="#253781"/>
<path d="M156.464 89.3942L164.175 81.6599H148.757L156.464 89.3942Z" fill="#253781"/>
<path d="M197.463 70.9917C197.463 71.2703 197.394 71.5332 197.278 71.7698H115.649C115.533 71.5332 115.465 71.2703 115.465 70.9917V25.6952C115.465 14.0227 125.004 4.53228 136.73 4.53228H176.203C187.929 4.53228 197.468 14.028 197.468 25.6952V70.9917H197.463ZM156.464 92.2439L143.914 79.6514H169.014L156.464 92.2439ZM202.016 25.6952C202.016 11.5042 190.459 0 176.203 0H136.73C122.474 0 110.917 11.5042 110.917 25.6952V70.9917C110.917 71.2545 110.938 71.5122 110.97 71.7698H110.917C110.917 76.6754 113.875 80.8922 118.106 82.764L118.349 83.1426H119.088C120.319 83.5632 121.629 83.7998 123.002 83.7998H137.945L151.995 97.9014H160.932L174.983 83.7998H189.925C191.299 83.7998 192.609 83.5632 193.839 83.1426H194.579L194.822 82.764C199.053 80.8922 202.011 76.6807 202.011 71.7751H201.958C201.99 71.5174 202.011 71.2598 202.011 70.9969V25.6952H202.016Z" fill="#253781"/>
<path d="M154.636 46.3639H119.215V26.7415C119.215 17.2774 126.99 9.60089 136.582 9.60089L154.636 15.9892V46.3639Z" fill="#253781"/>
<path d="M158.291 46.3639H193.713V26.7415C193.713 17.2774 185.937 9.60089 176.345 9.60089L158.291 15.9892V46.3639Z" fill="#253781"/>
<path d="M170.709 64.4771H142.223V74.099H170.709V64.4771Z" stroke="#253781" stroke-width="6.119" stroke-miterlimit="10"/>
<path d="M107.388 117.718H59.0894L68.6287 103.475L59.0894 89.226H107.388V117.718Z" fill="white"/>
<path d="M61.6936 116.33H105.999V90.6088H61.6936L70.3034 103.47L61.6936 116.33ZM108.783 119.106H56.4908L66.9598 103.475L56.4908 87.8431H108.783V119.106Z" fill="#253781"/>
<path d="M205.539 89.226H253.843L244.298 103.475L253.843 117.718H205.539V89.226Z" fill="white"/>
<path d="M206.933 116.33H251.239L242.629 103.47L251.239 90.6088H206.933V116.33ZM256.442 119.101H204.15V87.8379H256.442L245.973 103.47L256.442 119.101Z" fill="#253781"/>
<path d="M230.645 97.6964H82.283V126.189H230.645V97.6964Z" fill="white"/>
<path d="M83.6774 124.801H229.25V99.0791H83.6774V124.801ZM232.039 127.571H80.8938V96.3082H232.039V127.571Z" fill="#253781"/>
<path d="M106.986 88.0275L81.8824 96.4967L82.6963 98.887L107.799 90.4177L106.986 88.0275Z" fill="#253781"/>
<path d="M205.937 88.0254L205.123 90.4157L230.226 98.8823L231.04 96.492L205.937 88.0254Z" fill="#253781"/>
<path d="M94.7958 117.208C95.0969 117.208 95.3398 117.156 95.5247 117.051C95.7096 116.945 95.8733 116.751 96.0159 116.462C96.1585 116.172 96.2853 115.741 96.391 115.163C96.5072 114.506 96.6075 113.565 96.6867 112.329C96.766 111.099 96.8822 108.896 97.0406 105.725H104.805V119.485H102V108.359H99.7292C99.5443 111.887 99.3278 114.395 99.0795 115.889C98.9052 116.951 98.6358 117.76 98.2608 118.318C97.8858 118.875 97.4262 119.248 96.8769 119.438C96.3276 119.627 95.6356 119.722 94.7958 119.722V117.208Z" fill="#E30517"/>
<path d="M107.906 118.475C107.119 117.645 106.723 116.493 106.723 115.026V110.189C106.723 108.722 107.119 107.571 107.906 106.74C108.693 105.909 109.797 105.488 111.202 105.488C112.612 105.488 113.711 105.904 114.498 106.74C115.29 107.571 115.681 108.722 115.681 110.189V115.026C115.681 116.493 115.285 117.645 114.498 118.475C113.706 119.306 112.607 119.727 111.202 119.727C109.797 119.721 108.693 119.306 107.906 118.475ZM112.39 116.509C112.655 116.172 112.787 115.678 112.787 115.026V110.189C112.787 109.537 112.655 109.037 112.39 108.706C112.126 108.37 111.73 108.207 111.207 108.207C110.679 108.207 110.288 108.375 110.024 108.706C109.76 109.037 109.628 109.537 109.628 110.189V115.026C109.628 115.678 109.76 116.178 110.024 116.509C110.288 116.845 110.684 117.008 111.207 117.008C111.73 117.008 112.126 116.845 112.39 116.509Z" fill="#E30517"/>
<path d="M121.138 114.28L120.366 115.515V119.49H117.599V105.725H120.366V110.993L121.074 109.463L123.013 105.725H126.214L122.696 111.74L126.805 119.49H123.641L121.138 114.28Z" fill="#E30517"/>
<path d="M128.548 118.476C127.761 117.646 127.365 116.494 127.365 115.027V110.19C127.365 108.723 127.761 107.572 128.548 106.741C129.335 105.91 130.439 105.489 131.844 105.489C133.255 105.489 134.353 105.905 135.14 106.741C135.927 107.572 136.323 108.723 136.323 110.19V115.027C136.323 116.494 135.927 117.646 135.14 118.476C134.348 119.307 133.249 119.728 131.844 119.728C130.439 119.722 129.335 119.307 128.548 118.476ZM133.033 116.51C133.297 116.173 133.429 115.679 133.429 115.027V110.19C133.429 109.538 133.297 109.038 133.033 108.707C132.769 108.371 132.372 108.208 131.85 108.208C131.321 108.208 130.93 108.376 130.666 108.707C130.402 109.038 130.27 109.538 130.27 110.19V115.027C130.27 115.679 130.402 116.179 130.666 116.51C130.93 116.846 131.327 117.009 131.85 117.009C132.372 117.009 132.769 116.846 133.033 116.51Z" fill="#E30517"/>
<path d="M145.361 106.608C146.111 107.381 146.486 108.491 146.486 109.931V115.279C146.486 116.709 146.116 117.802 145.372 118.57C144.627 119.338 143.576 119.721 142.223 119.721C140.813 119.721 139.725 119.343 138.954 118.581C138.183 117.823 137.787 116.719 137.76 115.279H140.565C140.607 115.883 140.755 116.32 141.019 116.598C141.283 116.872 141.685 117.008 142.223 117.008C143.121 117.008 143.565 116.43 143.565 115.279V113.643H140.739V111.361H143.565V109.926C143.565 108.748 143.116 108.154 142.223 108.154C141.685 108.154 141.289 108.291 141.04 108.564C140.787 108.838 140.644 109.29 140.607 109.921H137.802C137.855 108.464 138.257 107.355 139.007 106.587C139.757 105.82 140.824 105.436 142.208 105.436C143.555 105.452 144.611 105.835 145.361 106.608Z" fill="#E30517"/>
<path d="M151.958 114.28L151.187 115.515V119.49H148.425V105.725H151.187V110.993L151.9 109.463L153.834 105.725H157.035L153.522 111.74L157.626 119.49H154.467L151.958 114.28Z" fill="#E30517"/>
<path d="M177.048 119.49H174.243V108.38H171.401V119.49H168.597V105.725H177.048V119.49Z" fill="#E30517"/>
<path d="M186.614 106.966C187.416 107.791 187.818 108.938 187.818 110.405C187.818 111.872 187.416 113.018 186.614 113.838C185.811 114.658 184.691 115.068 183.254 115.068H182.05V119.495H179.245V105.73H183.254C184.691 105.725 185.811 106.141 186.614 106.966ZM184.501 111.898C184.791 111.556 184.934 111.057 184.934 110.405C184.934 109.737 184.791 109.232 184.501 108.89C184.21 108.549 183.782 108.38 183.217 108.38H182.05V112.413H183.217C183.782 112.408 184.21 112.24 184.501 111.898Z" fill="#E30517"/>
<path d="M196.85 116.835V119.485H189.524V105.725H196.649V108.38H192.329V111.23H196.259V113.785H192.329V116.835H196.85Z" fill="#E30517"/>
<path d="M199.486 118.575C198.741 117.808 198.371 116.714 198.371 115.284V109.937C198.371 108.496 198.746 107.387 199.497 106.614C200.247 105.841 201.303 105.452 202.655 105.452C204.039 105.452 205.106 105.835 205.856 106.603C206.606 107.371 207.008 108.48 207.06 109.937H204.256C204.219 109.306 204.071 108.853 203.823 108.58C203.574 108.307 203.178 108.17 202.639 108.17C201.741 108.17 201.298 108.759 201.298 109.942V115.289C201.298 116.441 201.747 117.019 202.639 117.019C203.178 117.019 203.58 116.882 203.844 116.604C204.108 116.33 204.256 115.889 204.298 115.289H207.103C207.076 116.73 206.68 117.834 205.909 118.591C205.138 119.353 204.05 119.732 202.639 119.732C201.282 119.722 200.231 119.343 199.486 118.575Z" fill="#E30517"/>
<path d="M159.274 118.575C158.529 117.808 158.159 116.714 158.159 115.284V109.937C158.159 108.496 158.534 107.387 159.284 106.614C160.035 105.841 161.091 105.452 162.443 105.452C163.827 105.452 164.894 105.836 165.644 106.603C166.394 107.371 166.796 108.48 166.848 109.937H164.044C164.007 109.306 163.859 108.854 163.61 108.58C163.362 108.307 162.966 108.17 162.427 108.17C161.529 108.17 161.086 108.759 161.086 109.942V115.289C161.086 116.441 161.535 117.019 162.427 117.019C162.966 117.019 163.368 116.882 163.632 116.604C163.896 116.33 164.044 115.889 164.086 115.289H166.891C166.864 116.73 166.468 117.834 165.697 118.591C164.926 119.354 163.838 119.732 162.427 119.732C161.065 119.722 160.019 119.343 159.274 118.575Z" fill="#E30517"/>
<path d="M209.643 118.575C208.899 117.808 208.529 116.714 208.529 115.284V109.937C208.529 108.496 208.904 107.387 209.654 106.614C210.404 105.841 211.46 105.452 212.813 105.452C214.196 105.452 215.263 105.835 216.013 106.603C216.763 107.371 217.165 108.48 217.218 109.937H214.413C214.376 109.306 214.228 108.853 213.98 108.58C213.732 108.307 213.335 108.17 212.797 108.17C211.899 108.17 211.455 108.759 211.455 109.942V115.289C211.455 116.441 211.904 117.019 212.797 117.019C213.335 117.019 213.737 116.882 214.001 116.604C214.265 116.33 214.413 115.889 214.455 115.289H217.26C217.234 116.73 216.837 117.834 216.066 118.591C215.295 119.353 214.207 119.732 212.797 119.732C211.439 119.722 210.388 119.343 209.643 118.575Z" fill="#E30517"/>
</svg>
