<svg width="136" height="24" viewBox="0 0 136 24" fill="none" xmlns="http://www.w3.org/2000/svg">
<path d="M12.7597 0C12.8247 0.262521 13.0776 0.236028 13.2582 0.298648C14.1277 0.609338 14.7298 1.1681 15.0934 2.02791C17.3742 7.43488 19.6671 12.837 21.9648 18.2368C22.1285 18.6197 22.1839 18.7787 21.6444 18.769C19.8814 18.7329 18.1161 18.7353 16.3507 18.7642C15.9051 18.7715 15.7365 18.6125 15.5944 18.2175C14.2047 14.3664 12.7958 10.5249 11.3917 6.67863C11.3146 6.46669 11.2496 6.24993 11.0665 6.05484C10.8329 6.18249 10.7871 6.42574 10.7077 6.64491C9.49862 9.93726 8.29199 13.232 7.08294 16.5244C6.86378 17.1217 6.62534 17.7141 6.43748 18.3211C6.33633 18.6438 6.19664 18.7666 5.84259 18.7642C4.02181 18.745 2.19861 18.7474 0.377823 18.7618C0.0117383 18.7642 -0.0894166 18.7233 0.0791749 18.3307C2.37443 12.931 4.66005 7.5264 6.93603 2.11703C7.31175 1.22349 7.91145 0.609338 8.82907 0.293831C9.01211 0.231211 9.21924 0.180634 9.34207 0C10.4813 0 11.6205 0 12.7597 0Z" fill="#E10814"/>
<path d="M88.845 0C88.8498 1.40413 88.8426 2.80825 88.8691 4.21238C88.8763 4.58569 88.7679 4.68925 88.397 4.68443C86.5184 4.66517 84.6399 4.69166 82.7613 4.66517C82.2964 4.65794 82.2025 4.80967 82.2049 5.24319C82.2194 9.45557 82.2145 13.6704 82.2121 17.8827C82.2121 18.7064 82.2121 18.704 81.3595 18.7064C79.823 18.7064 78.284 18.692 76.7474 18.7209C76.2946 18.7281 76.1428 18.6318 76.1453 18.1404C76.1669 13.8703 76.1477 9.60008 76.1693 5.3299C76.1717 4.8169 76.0489 4.65553 75.5166 4.66517C73.6573 4.69888 71.798 4.66757 69.9363 4.68684C69.5606 4.69166 69.457 4.5881 69.4642 4.21479C69.4883 2.81066 69.4787 1.40653 69.4811 0.00240845C75.9357 0 82.3904 0 88.845 0Z" fill="#868686"/>
<path d="M136 4.55681C135.314 5.183 134.839 5.97779 134.288 6.70996C130.111 12.2638 125.95 17.8274 121.795 23.3981C121.53 23.7546 121.263 23.94 120.812 23.8846C120.497 23.8461 120.169 23.8774 119.808 23.8774C119.907 23.4824 120.196 23.2295 120.415 22.9453C121.689 21.3003 122.953 19.6457 124.179 17.9695C126.725 14.4868 129.36 11.0765 131.908 7.59627C132.556 6.70996 133.257 5.85978 133.878 4.9542C134.172 4.5279 134.49 4.35209 134.996 4.39303C135.326 4.41952 135.675 4.48214 136 4.328C136 4.40507 136 4.47974 136 4.55681Z" fill="#E10814"/>
<path d="M96.6532 13.1068C95.4008 13.1068 94.1484 13.1188 92.896 13.0995C92.542 13.0947 92.4312 13.1983 92.4673 13.5547C92.5275 14.1641 92.8743 14.6313 93.4572 14.7999C93.8064 14.901 94.1653 14.9155 94.5289 14.9155C96.0463 14.9131 97.5636 14.9131 99.0833 14.9155C100.251 14.9179 101.034 15.7079 101.041 16.8808C101.044 17.3553 101.029 17.8297 101.046 18.3042C101.056 18.5787 101.008 18.7112 100.683 18.7112C97.5515 18.6919 94.4205 18.6992 91.292 18.6703C90.7308 18.6655 90.1504 18.5763 89.6301 18.3379C88.1995 17.6756 87.5228 16.4906 87.3614 14.9637C87.1398 12.8828 87.2265 10.797 87.253 8.71133C87.2626 7.98398 87.4481 7.29276 87.7564 6.63043C88.1971 5.6815 88.9775 5.19018 89.9625 4.95415C90.9283 4.72294 91.8724 4.41225 92.8888 4.43152C94.4061 4.45801 95.9234 4.44838 97.4407 4.43393C98.1657 4.4267 98.8714 4.56398 99.5578 4.74703C100.805 5.07698 101.648 5.89104 102.017 7.1338C102.426 8.51143 102.621 9.94205 102.27 11.3414C101.966 12.5528 101.574 13.0875 100.126 13.1068C98.9677 13.1188 97.8092 13.1068 96.6532 13.1068ZM94.5675 9.79032V9.78791C95.1744 9.78791 95.7789 9.79514 96.3858 9.7855C96.7327 9.78068 97.0265 9.66267 97.1228 9.28695C97.224 8.89678 97.1036 8.57164 96.7688 8.34766C96.5641 8.21038 96.3353 8.12608 96.0872 8.08754C95.278 7.95749 94.4687 7.94304 93.6571 8.0755C92.7732 8.22001 92.5347 8.48735 92.4336 9.35198C92.3902 9.72529 92.5203 9.81199 92.8623 9.79754C93.4307 9.77587 93.9991 9.79032 94.5675 9.79032Z" fill="#868686"/>
<path d="M29.5442 18.7642C28.3496 18.6968 27.155 18.7353 25.9749 18.4921C23.4628 17.9742 22.1165 16.6809 21.6661 14.1617C21.3097 12.1699 21.3001 10.1636 21.8733 8.19835C22.4007 6.38238 23.552 5.16371 25.4354 4.77354C28.2316 4.19551 31.0471 4.18106 33.8288 4.80244C35.8013 5.24319 36.8972 6.64972 37.35 8.55721C37.7955 10.443 37.822 12.3505 37.4174 14.2484C36.8514 16.8856 35.4328 18.179 32.7715 18.5643C31.6973 18.7233 30.6159 18.7016 29.5442 18.7642ZM32.3452 11.5846C32.3597 11.0524 32.3356 10.5249 32.2344 9.99987C32.0369 8.97147 31.365 8.3549 30.2474 8.20558C28.7638 8.00568 27.5524 8.42475 27.1213 9.28938C27.0635 9.40499 27.0249 9.53504 26.9912 9.66028C26.6854 10.7585 26.7167 11.8664 26.8756 12.9815C27.0201 13.9979 27.5982 14.6217 28.5856 14.8505C29.2576 15.0046 29.9392 15.0046 30.6087 14.8264C31.5239 14.5807 32.0321 13.9618 32.232 13.0538C32.3404 12.5697 32.3572 12.0784 32.3452 11.5846Z" fill="#E10814"/>
<path d="M62.0799 4.34241C63.3395 4.40262 64.6834 4.3978 66.0081 4.71331C67.8216 5.14442 69.0596 6.20896 69.5942 7.98398C70.3023 10.3419 70.3023 12.7359 69.5991 15.0961C68.9464 17.2854 67.2942 18.3018 65.1314 18.545C62.9036 18.7979 60.6709 18.8292 58.4431 18.4776C56.1286 18.1115 54.71 16.7893 54.185 14.5109C53.7081 12.4444 53.7226 10.3708 54.2428 8.31876C54.7919 6.16079 56.3743 4.84818 58.6502 4.55435C59.7629 4.40984 60.8781 4.3689 62.0799 4.34241ZM59.1657 11.5051C59.1946 11.929 59.1994 12.3866 59.2596 12.837C59.368 13.6487 59.7076 14.3302 60.5096 14.6626C61.4007 15.0335 62.3183 15.0383 63.2287 14.7421C63.9247 14.5157 64.3799 14.022 64.5702 13.3163C64.8087 12.4276 64.7822 11.5268 64.7292 10.6116C64.6087 8.50662 63.3612 8.17425 61.9956 8.12608C60.3867 8.06828 59.4523 8.8149 59.2572 10.2262C59.1994 10.6405 59.197 11.0596 59.1657 11.5051Z" fill="#E10814"/>
<path d="M110.995 14.5928C109.957 15.7729 109.204 17.1313 108.267 18.3572C108.076 18.6052 107.908 18.7209 107.573 18.716C105.979 18.6944 104.384 18.7184 102.79 18.7184C102.626 18.7184 102.409 18.7955 102.315 18.6245C102.212 18.4439 102.409 18.3114 102.513 18.1934C103.563 16.9771 104.534 15.6934 105.579 14.4699C106.171 13.7763 106.749 13.0393 107.279 12.2831C107.785 11.5581 107.831 11.1342 107.301 10.4189C106.008 8.6728 104.678 6.95317 103.363 5.22391C103.161 4.95898 102.958 4.69405 102.694 4.34241C104.64 4.34241 106.472 4.34482 108.305 4.34C108.551 4.34 108.623 4.52546 108.719 4.67719C109.331 5.63575 110.061 6.51483 110.6 7.51916C110.685 7.67571 110.781 7.85634 111.022 7.92859C111.704 6.92668 112.407 5.91031 113.086 4.8795C113.32 4.52305 113.553 4.31833 114.033 4.32796C115.721 4.3665 117.409 4.34241 119.088 4.34241C119.211 4.54713 119.032 4.64106 118.955 4.74462C117.732 6.35347 116.516 7.96713 115.261 9.55189C114.969 9.91797 114.695 10.2792 114.471 10.6935C114.194 11.2065 114.269 11.6352 114.56 12.1241C115.018 12.89 115.673 13.4897 116.21 14.1882C116.48 14.5374 116.52 14.7276 116.215 15.1371C115.502 16.0836 114.815 17.0518 114.124 18.0152C113.866 18.374 113.734 18.4535 113.447 18.032C112.657 16.8712 111.824 15.744 110.995 14.5928Z" fill="#868686"/>
<path d="M54.6065 4.43638C53.6937 5.63579 52.8459 6.74127 52.0054 7.85156C51.3431 8.72824 50.6952 9.61214 50.0305 10.4888C49.5464 11.1295 49.6042 11.7364 50.0907 12.3457C51.2612 13.8101 52.4293 15.2768 53.5974 16.7436C54.1128 17.3914 54.633 18.0345 55.1508 18.6775C55.0111 18.8558 54.8474 18.7763 54.7125 18.7763C53.0988 18.7811 51.4876 18.7691 49.8739 18.7859C49.5367 18.7883 49.3176 18.6992 49.1177 18.4174C47.8123 16.5605 46.5069 14.7036 45.1678 12.8708C44.4597 11.9026 44.4332 10.9777 45.1076 9.99268C46.3046 8.24414 47.4823 6.48357 48.6625 4.7254C48.8022 4.51827 48.9635 4.42916 49.2236 4.43157C50.9674 4.44361 52.7135 4.43638 54.6065 4.43638Z" fill="#E10814"/>
<path d="M38.8456 11.5991C38.8456 9.3785 38.8553 7.16032 38.836 4.93973C38.8336 4.55438 38.9131 4.40505 39.3273 4.42673C40.0089 4.46285 40.6929 4.43395 41.3745 4.43636C42.8798 4.43877 44.0527 5.50571 44.0647 7.00618C44.0985 10.7995 44.0744 14.5952 44.084 18.3885C44.084 18.6775 44.0021 18.7859 43.6986 18.7835C42.2199 18.7715 40.7387 18.7642 39.2599 18.7883C38.8745 18.7931 38.836 18.6294 38.8384 18.3138C38.8504 16.0764 38.8456 13.8389 38.8456 11.5991Z" fill="#E10814"/>
<path d="M114.796 23.8774C116.058 22.1866 117.253 20.5826 118.45 18.9834C121.855 14.4411 125.297 9.92763 128.64 5.33954C129.314 4.41469 130.025 4.28945 131.041 4.47009C130.037 5.81159 129.052 7.12661 128.067 8.43921C124.389 13.3476 120.702 18.2488 117.043 23.1717C116.651 23.6991 116.263 23.9978 115.6 23.8846C115.379 23.8461 115.148 23.8774 114.796 23.8774Z" fill="#E10814"/>
</svg>
