<svg width="215" height="53" viewBox="0 0 215 53" fill="none" xmlns="http://www.w3.org/2000/svg">
<path d="M8.79948 13.0958H26.0714L21.5235 38.9173H14.9622L18.5188 18.7083H13.9708L12.1721 26.7467C11.3341 31.177 9.09586 37.5913 1.72719 39.4005L0 34.9701C4.40485 32.9039 4.69101 30.6528 5.72324 26.5925L8.79948 13.0958ZM34.9526 39.3593C30.0368 39.3593 26.5517 36.2961 26.5517 31.249C26.5517 24.4955 32.1626 19.7053 38.3968 19.7053C43.3842 19.7053 46.8284 22.9536 46.8284 27.9699C46.8284 34.672 41.2891 39.3593 34.9526 39.3593ZM35.6067 33.9422C37.804 33.9422 40.2671 32.5031 40.635 28.9978C40.9314 26.3046 39.5312 25.2356 37.4054 25.2356C35.3103 25.2356 33.0824 27.1887 32.7451 30.1799C32.4589 32.76 33.8897 33.9422 35.6067 33.9422ZM66.0421 38.9173H59.3275L56.098 31.876L55.1475 32.575L54.0437 38.9173H47.9321L51.1923 20.2193H57.3141L56.1388 26.9728C56.7214 25.6468 58.5201 23.8787 58.9596 23.4367L62.0052 20.2296H68.9344L68.8628 20.6716L61.0138 27.9391L66.1136 38.4856L66.0421 38.9173ZM76.4972 39.3593C71.5814 39.3593 68.0963 36.2961 68.0963 31.249C68.0963 24.4955 73.7071 19.7053 79.9414 19.7053C84.9288 19.7053 88.3729 22.9536 88.3729 27.9699C88.3832 34.672 82.8439 39.3593 76.4972 39.3593ZM77.1615 33.9422C79.3588 33.9422 81.8219 32.5031 82.1898 28.9978C82.4862 26.3046 81.086 25.2356 78.9603 25.2356C76.8651 25.2356 74.6372 27.1887 74.2999 30.1799C74.0035 32.76 75.4343 33.9422 77.1615 33.9422ZM107.668 18.8213H100.627L97.1111 38.9276H90.5089L95.016 13.106H115.221L110.714 38.9276H104.153L107.668 18.8213ZM151.605 39.5033L149.182 35.628C152.044 33.973 152.299 32.3489 152.524 30.8686L154.395 20.209H171.227L167.926 38.907H161.763L164.114 25.5131H159.494L158.575 30.8995C157.982 34.158 156.071 37.9614 151.605 39.5033ZM187.426 27.7746L184.789 31.6088L178.596 38.907H172.218L175.479 20.209H181.488L180.384 26.4794L179.393 30.9098L179.505 30.9509L181.703 27.5587L187.61 20.2193H194.611L191.35 38.9173H185.372L186.578 32.0919L187.528 27.8157L187.426 27.7746ZM210.605 26.3766C209.471 25.1225 208.479 24.9786 207.263 24.9786C202.163 24.9786 200.293 34.1272 205.72 34.1272C206.824 34.1272 208.173 33.7263 209.828 32.2461L212.761 35.6382C209.869 38.6295 207.447 39.4724 204.585 39.4724C191.197 39.4724 194.611 19.6642 207.927 19.6642C210.493 19.6642 212.434 20.2913 214.642 22.9844L210.605 26.3766Z" fill="white"/>
<path fill-rule="evenodd" clip-rule="evenodd" d="M148.119 26.2636C148.119 34.1375 141.773 40.5107 133.954 40.5107C126.126 40.5107 119.789 34.1272 119.789 26.2636C119.789 18.3896 126.136 12.0165 133.954 12.0165C141.773 12.0165 148.119 18.3896 148.119 26.2636Z" fill="white"/>
<path fill-rule="evenodd" clip-rule="evenodd" d="M140.659 12.9519C142.877 14.0518 144.706 15.6759 146.096 17.6393L150.787 16.6936L147.639 20.281C148.61 22.4705 149.07 24.8862 148.917 27.384L160.21 33.5824L147.373 33.2843C146.249 35.5149 144.634 37.3652 142.723 38.794L143.664 43.4814L140.066 40.3051C137.889 41.2816 135.487 41.775 133.045 41.6311L126.852 53L127.148 40.0481C124.93 38.9482 123.091 37.3241 121.711 35.3607L117.02 36.3064L120.168 32.6779C119.197 30.5295 118.747 28.1036 118.89 25.616L107.597 19.4176L120.433 19.7157C121.558 17.4851 123.172 15.5937 125.083 14.206L124.143 9.51862L127.741 12.6538C129.918 11.7081 132.319 11.2147 134.762 11.3689L140.955 0L140.659 12.9519ZM137.358 13.5173C140.925 14.463 143.776 16.8066 145.462 19.7876C147.189 22.7378 147.752 26.3972 146.811 29.9847C145.84 33.531 143.551 36.4092 140.587 38.1464C137.623 39.8425 134.026 40.449 130.459 39.4725C126.892 38.5268 124.041 36.1831 122.355 33.2021C120.628 30.2211 120.065 26.5925 121.006 23.005C121.977 19.4587 124.266 16.5805 127.23 14.8433C130.193 13.1472 133.791 12.5407 137.358 13.5173Z" fill="#E30613"/>
<path fill-rule="evenodd" clip-rule="evenodd" d="M140.056 20.3427L132.401 24.9889L135.406 28.0418L140.056 20.3427Z" fill="#878787"/>
<path fill-rule="evenodd" clip-rule="evenodd" d="M125.41 34.857L131.726 24.3002L142.212 17.9373C140.802 16.5394 139.013 15.4909 136.98 14.9461C133.832 14.0826 130.602 14.6069 127.976 16.1179C125.349 17.6701 123.285 20.1988 122.426 23.4059C121.598 26.5822 122.089 29.8305 123.622 32.4722C124.112 33.346 124.715 34.1478 125.41 34.857Z" fill="#878787"/>
<path fill-rule="evenodd" clip-rule="evenodd" d="M144.185 20.5072C143.694 19.6437 143.091 18.8522 142.396 18.1327L136.08 28.6895L125.594 35.0524C127.005 36.4504 128.793 37.4989 130.827 38.0437C134.016 38.9071 137.204 38.3829 139.831 36.8718C142.458 35.3197 144.522 32.791 145.381 29.5838C146.208 26.3972 145.728 23.149 144.185 20.5072Z" fill="#E30613"/>
</svg>
