<svg width="425" height="103" viewBox="0 0 425 103" fill="none" xmlns="http://www.w3.org/2000/svg">
<path d="M217.49 36.2915H203.829L197.011 75.0716H184.206L192.967 25.2745H232.162L223.4 75.0716H210.672L217.49 36.2915ZM302.723 76.1863L298.031 68.7206C303.579 65.5322 304.071 62.3955 304.512 59.5441L308.141 38.9875H340.804L334.401 75.0457H322.45L327.013 49.2269H318.044L316.229 59.6218C315.088 65.8951 311.407 73.2052 302.723 76.1863ZM372.222 53.5819L367.089 60.9698L355.061 75.0457H342.696L349.021 38.9875H360.686L358.561 51.0933L356.642 59.6218L356.85 59.6996L361.127 53.1671L372.585 39.0134H386.168L379.843 75.0716H368.256L370.614 61.903L372.455 53.6596L372.222 53.5819ZM417.171 50.8859C414.968 48.4751 413.05 48.19 410.691 48.19C400.814 48.19 397.185 65.8432 407.71 65.8432C409.835 65.8432 412.479 65.0656 415.668 62.2141L421.371 68.7466C415.746 74.5014 411.054 76.1345 405.506 76.1345C379.532 76.1345 386.168 37.9247 411.987 37.9247C416.964 37.9247 420.749 39.143 425 44.3275L417.171 50.8859Z" fill="#878787"/>
<path fill-rule="evenodd" clip-rule="evenodd" d="M295.958 50.6526C295.958 65.8432 283.645 78.1305 268.48 78.1305C253.289 78.1305 241.002 65.8173 241.002 50.6526C241.002 35.462 253.315 23.1747 268.48 23.1747C283.645 23.1747 295.958 35.4879 295.958 50.6526Z" fill="white"/>
<path fill-rule="evenodd" clip-rule="evenodd" d="M281.493 24.9893C285.796 27.089 289.347 30.2257 292.043 34.0104L301.142 32.1958L295.024 39.1171C296.917 43.3425 297.798 48.0085 297.487 52.8042L319.392 64.7545L294.506 64.1842C292.329 68.4873 289.192 72.0387 285.485 74.8124L287.3 83.8335L280.3 77.7157C276.075 79.6081 271.409 80.5672 266.691 80.2561L254.689 102.187L255.259 77.1973C250.956 75.0976 247.405 71.9609 244.709 68.1762L235.61 69.9908L241.728 62.9917C239.835 58.8441 238.954 54.1781 239.265 49.3565L217.361 37.4062L242.246 37.9765C244.424 33.6734 247.56 30.0442 251.267 27.3483L249.453 18.3272L256.452 24.3672C260.677 22.5526 265.343 21.5935 270.061 21.8786L282.063 0L281.493 24.9893ZM275.09 26.0781C282.011 27.8926 287.533 32.4291 290.799 38.158C294.143 43.835 295.232 50.9118 293.417 57.8332C291.525 64.6767 287.092 70.2241 281.337 73.5681C275.583 76.8344 268.609 78.0009 261.688 76.1085C254.767 74.294 249.245 69.7834 245.979 64.0286C242.635 58.2738 241.546 51.2748 243.361 44.3534C245.253 37.5099 249.686 31.9625 255.441 28.6185C261.196 25.3522 268.169 24.1857 275.09 26.0781Z" fill="#E30613"/>
<path fill-rule="evenodd" clip-rule="evenodd" d="M280.327 39.2208L265.473 48.19L271.306 54.1003L280.327 39.2208Z" fill="#878787"/>
<path fill-rule="evenodd" clip-rule="evenodd" d="M251.915 67.2431L264.177 46.8939L284.526 34.6325C281.778 31.9366 278.33 29.9146 274.39 28.8777C268.273 27.1928 262.025 28.2297 256.918 31.133C251.812 34.1141 247.82 39.0134 246.135 45.183C244.527 51.3007 245.487 57.574 248.468 62.6548C249.401 64.3138 250.567 65.8432 251.915 67.2431Z" fill="#878787"/>
<path fill-rule="evenodd" clip-rule="evenodd" d="M288.336 39.5578C287.377 37.8987 286.211 36.3693 284.863 34.9695L272.601 55.3187L252.278 67.58C255.026 70.276 258.474 72.2979 262.414 73.3348C268.609 75.0198 274.779 73.9829 279.886 71.0796C284.992 68.0985 288.984 63.1991 290.669 57.0296C292.251 50.9118 291.318 44.6645 288.336 39.5578Z" fill="#E30613"/>
<path d="M17.0829 24.8079H50.5749L41.7612 74.605H29.0332L35.9286 35.6176H27.115L23.6413 51.1192C22.0082 59.6477 17.6532 72.0387 3.36993 75.5123L0 66.9838C8.52851 62.9917 9.09881 58.6627 11.0948 50.8341L17.0829 24.8079ZM67.7874 75.4605C58.2479 75.4605 51.5081 69.5501 51.5081 59.8033C51.5081 46.7902 62.3955 37.5358 74.4754 37.5358C84.1445 37.5358 90.8325 43.7831 90.8325 53.4782C90.8325 66.4135 80.1006 75.4605 67.7874 75.4605ZM69.0835 64.9878C73.3607 64.9878 78.1305 62.2141 78.8304 55.4483C79.4007 50.2638 76.7048 48.19 72.5831 48.19C68.5392 48.19 64.1842 51.9487 63.5361 57.7295C62.9658 62.7066 65.7395 64.9878 69.0835 64.9878ZM128.109 74.605H115.096L108.849 61.0216L107.008 62.3696L104.883 74.605H93.01L99.3351 38.5468H111.208L108.926 51.5599C110.067 48.9936 113.541 45.5718 114.396 44.7423L120.306 38.5468H133.76L133.631 39.4022L118.414 53.4263L128.291 73.7755L128.109 74.605ZM148.381 75.4605C138.841 75.4605 132.101 69.5501 132.101 59.8033C132.101 46.7902 142.989 37.5358 155.069 37.5358C164.738 37.5358 171.426 43.7831 171.426 53.4782C171.426 66.4135 160.694 75.4605 148.381 75.4605ZM149.677 64.9878C153.954 64.9878 158.724 62.2141 159.424 55.4483C159.994 50.2638 157.298 48.19 153.176 48.19C149.132 48.19 144.777 51.9487 144.129 57.7295C143.559 62.7066 146.333 64.9878 149.677 64.9878Z" fill="#E30613"/>
</svg>
