<svg width="336" height="53" viewBox="0 0 336 53" fill="none" xmlns="http://www.w3.org/2000/svg">
<path d="M8.82948 13.2762H26.1513L21.5883 39.0207H15.0084L18.5774 18.8622H14.0144L12.2125 26.8779C11.3638 31.2898 9.12011 37.6896 1.73218 39.4915L0 35.0913C4.41183 33.0336 4.70828 30.7899 5.73713 26.7443L8.82948 13.2762ZM35.0564 39.4682C30.1272 39.4682 26.6338 36.4166 26.6338 31.377C26.6338 24.6459 32.2604 19.862 38.5149 19.862C43.5196 19.862 46.9724 23.0997 46.9724 28.0986C46.9724 34.7948 41.4154 39.4682 35.0564 39.4682ZM35.7132 34.0624C37.922 34.0624 40.3866 32.6267 40.7528 29.1333C41.0492 26.4478 39.6484 25.3841 37.5151 25.3841C35.4167 25.3841 33.173 27.3313 32.8417 30.3132C32.5511 32.8825 33.9868 34.0624 35.7132 34.0624ZM66.2473 39.0265H59.5162L56.2785 31.9989L55.3194 32.6965L54.215 39.0207H48.0768L51.3493 20.3735H57.4933L56.3192 27.1046C56.9063 25.7793 58.7082 24.0123 59.15 23.5763L62.2016 20.3735H69.1536L69.078 20.8153L61.2077 28.0637L66.3228 38.5847L66.2473 39.0265ZM76.7275 39.4682C71.7984 39.4682 68.305 36.4166 68.305 31.377C68.305 24.6459 73.9316 19.862 80.1861 19.862C85.1908 19.862 88.6436 23.0997 88.6436 28.0986C88.6436 34.7948 83.0924 39.4682 76.7275 39.4682ZM77.3902 34.0624C79.599 34.0624 82.0636 32.6267 82.4298 29.1333C82.7262 26.4478 81.3254 25.3841 79.1921 25.3841C77.0937 25.3841 74.85 27.3313 74.5187 30.3132C74.2281 32.8825 75.6638 34.0624 77.3902 34.0624ZM107.994 18.9785H100.932L97.4033 39.0265H90.7826L95.3049 13.2821H115.574L111.051 39.0265H104.466L107.994 18.9785ZM152.06 39.6136L149.63 35.7539C152.502 34.0973 152.758 32.4814 152.978 31.0108L154.856 20.3794H171.736L168.423 39.0265H162.244L164.598 25.6747H159.965L159.047 31.0456C158.46 34.2833 156.547 38.0674 152.06 39.6136ZM187.994 27.9184L185.344 31.7432L179.13 39.0265H172.73L176.003 20.3794H182.036L180.932 26.6338L179.938 31.0456L180.048 31.0805L182.257 27.6975L188.18 20.3794H195.208L191.935 39.0265H185.942L187.157 32.2198L188.116 27.9533L187.994 27.9184ZM211.239 26.5176C210.1 25.2678 209.106 25.1225 207.891 25.1225C202.776 25.1225 200.904 34.2426 206.345 34.2426C207.449 34.2426 208.809 33.8357 210.466 32.3651L213.407 35.7481C210.501 38.73 208.071 39.5729 205.205 39.5729C191.778 39.5729 195.202 19.8213 208.554 19.8213C211.129 19.8213 213.076 20.4491 215.285 23.1346L211.239 26.5176ZM241.546 20.3794H249.051L245.778 39.0265H239.745L240.773 33.2138L242.32 28.0289L242.134 27.994L239.082 32.9231L236.728 36.2364H233.199L232.025 32.9231L230.776 27.994L230.59 28.0289L230.258 33.2138L229.229 39.0265H223.196L226.468 20.3794H233.973L236.472 27.8487L241.546 20.3794ZM256.776 31.6676C256.741 33.5451 258.392 34.2775 259.938 34.2775C261.629 34.2775 262.588 33.8357 264.059 32.6209L266.82 35.4924C263.693 38.3231 261.525 39.3171 258.804 39.3171C253.213 39.3171 250.713 35.3819 250.713 31.2258C250.713 25.8898 254.834 19.9318 262.152 19.9318C268.407 19.9318 271.604 25.0818 269.07 31.6676H256.776ZM257.438 27.5871C257.473 27.5871 264.135 27.5871 264.135 27.5871C264.21 23.9425 258.543 24.1285 257.438 27.5871ZM289.623 33.4695H291.681L290.065 42.5897H284.659L285.322 38.8753H274.766L274.103 42.5897H268.843L270.459 33.4695C273.144 33.4695 273.51 31.8885 273.952 30.4179L276.231 20.3735H291.937L289.623 33.4695ZM283.479 33.5102L284.915 25.233H281.166L280.061 30.383C279.806 31.4525 279.178 32.958 278.073 33.5102H283.479ZM308.788 27.9184L306.137 31.7432L299.923 39.0265H293.524L296.796 20.3794H302.83L301.725 26.6338L300.731 31.0456L300.842 31.0805L303.051 27.6975L308.974 20.3794H316.001L312.723 39.0265H306.73L307.945 32.2198L308.904 27.9533L308.788 27.9184ZM328.173 39.0265L327.877 37.149C326.296 38.8405 324.383 39.4682 322.837 39.4682C318.756 39.4682 317.024 36.8177 317.024 33.9869C317.024 27.8835 324.749 25.5992 328.94 27.5522L329.051 26.9651C329.527 24.3552 323.715 24.6866 321.291 26.1165L320.186 22.1464C322.982 20.1585 325.633 19.7167 328.132 19.7167C332.434 19.7167 336.148 21.8848 335.195 27.4069L333.137 39.0323H328.173V39.0265ZM325.011 34.3531C326.08 34.3531 327.179 34.0973 327.993 33.4695L328.359 31.4467C327.661 31.0805 326.482 30.9701 325.708 30.9701C322.878 30.9701 322.139 34.3531 325.011 34.3531Z" fill="white"/>
<path fill-rule="evenodd" clip-rule="evenodd" d="M147.351 26.192C147.351 34.0391 140.986 40.404 133.139 40.404C125.292 40.404 118.927 34.0391 118.927 26.192C118.927 18.3448 125.292 11.9799 133.139 11.9799C140.986 11.9799 147.351 18.3448 147.351 26.192Z" fill="white"/>
<path fill-rule="evenodd" clip-rule="evenodd" d="M139.871 12.9216C142.092 14.0144 143.934 15.6361 145.33 17.595L150.032 16.6534L146.87 20.234C147.846 22.4196 148.3 24.8318 148.149 27.3138L159.478 33.4927L146.608 33.1905C145.481 35.4109 143.859 37.2594 141.941 38.6893L142.882 43.3569L139.273 40.1948C137.087 41.1713 134.681 41.6654 132.234 41.5142L126.02 52.849L126.322 39.9274C124.102 38.8346 122.259 37.2129 120.864 35.254L116.161 36.1956L119.324 32.5801C118.347 30.4353 117.894 28.023 118.045 25.5352L106.716 19.3563L119.585 19.6585C120.713 17.4381 122.335 15.5548 124.253 14.1597L123.311 9.48631L126.927 12.6135C129.112 11.6719 131.519 11.1836 133.966 11.3348L140.174 0L139.871 12.9216ZM136.558 13.4854C140.133 14.4271 142.993 16.7638 144.684 19.7399C146.417 22.6753 146.98 26.3315 146.039 29.9121C145.062 33.452 142.766 36.3177 139.79 38.0499C136.814 39.7472 133.204 40.3459 129.629 39.3694C126.055 38.4277 123.195 36.091 121.503 33.1149C119.771 30.1388 119.207 26.5233 120.149 22.9427C121.125 19.4028 123.422 16.5371 126.398 14.8049C129.368 13.1076 132.983 12.5031 136.558 13.4854Z" fill="#E30613"/>
<path fill-rule="evenodd" clip-rule="evenodd" d="M139.265 20.2863L131.587 24.919L134.598 27.9649L139.265 20.2863Z" fill="#878787"/>
<path fill-rule="evenodd" clip-rule="evenodd" d="M124.572 34.7657L130.907 24.2389L141.423 17.8973C140.004 16.508 138.214 15.4559 136.174 14.9154C133.012 14.0493 129.774 14.5782 127.141 16.0837C124.508 17.6299 122.438 20.1526 121.572 23.3554C120.747 26.5175 121.235 29.761 122.776 32.3941C123.27 33.2544 123.874 34.0507 124.572 34.7657Z" fill="#878787"/>
<path fill-rule="evenodd" clip-rule="evenodd" d="M143.405 20.4548C142.917 19.5946 142.312 18.7982 141.615 18.0833L135.279 28.61L124.764 34.9517C126.182 36.3409 127.966 37.3988 130.013 37.9336C133.21 38.7997 136.412 38.2707 139.045 36.7652C141.679 35.2191 143.748 32.6964 144.614 29.4936C145.439 26.3315 144.951 23.088 143.405 20.4548Z" fill="#E30613"/>
</svg>
