<svg width="218" height="52" viewBox="0 0 218 52" fill="none" xmlns="http://www.w3.org/2000/svg">
<g clip-path="url(#clip0)">
<path d="M111.56 18.4631H104.552L101.055 38.1922H94.4866L98.9809 12.8582H119.086L114.591 38.1922H108.063L111.56 18.4631ZM155.279 38.7593L152.873 34.9612C155.718 33.3391 155.971 31.7433 156.197 30.2927L158.058 19.8346H174.812L171.528 38.179H165.398L167.738 25.0439H163.138L162.207 30.3322C161.622 33.5237 159.734 37.2427 155.279 38.7593ZM190.928 27.2594L188.295 31.018L182.125 38.179H175.783L179.027 19.8346H185.011L183.92 25.9934L182.936 30.3322L183.043 30.3718L185.237 27.0484L191.114 19.8478H198.081L194.837 38.1922H188.893L190.103 31.4928L191.047 27.299L190.928 27.2594ZM213.984 25.8879C212.854 24.6614 211.87 24.5163 210.66 24.5163C205.594 24.5163 203.733 33.4973 209.131 33.4973C210.221 33.4973 211.578 33.1017 213.213 31.651L216.138 34.9744C213.253 37.9021 210.846 38.7329 208.001 38.7329C194.677 38.7329 198.081 19.2939 211.325 19.2939C213.878 19.2939 215.819 19.9138 218 22.5513L213.984 25.8879Z" fill="white"/>
<path fill-rule="evenodd" clip-rule="evenodd" d="M151.809 25.7692C151.809 33.4973 145.493 39.7484 137.714 39.7484C129.922 39.7484 123.62 33.4841 123.62 25.7692C123.62 18.0411 129.936 11.79 137.714 11.79C145.493 11.79 151.809 18.0542 151.809 25.7692Z" fill="white"/>
<path fill-rule="evenodd" clip-rule="evenodd" d="M144.389 12.7132C146.597 13.7814 148.418 15.3771 149.801 17.3026L154.468 16.3794L151.33 19.9006C152.301 22.0502 152.753 24.424 152.593 26.8638L163.829 32.9434L151.064 32.6533C149.947 34.8425 148.338 36.6493 146.437 38.0604L147.368 42.6498L143.778 39.5374C141.61 40.5001 139.217 40.9881 136.797 40.8298L130.64 51.9868L130.933 39.2737C128.726 38.2054 126.904 36.6097 125.521 34.6842L120.854 35.6074L123.992 32.0467C123.021 29.9366 122.569 27.5628 122.729 25.1098L111.493 19.0302L124.258 19.3203C125.375 17.1311 126.984 15.2848 128.885 13.9133L127.955 9.32387L131.545 12.3967C133.712 11.4735 136.105 10.9855 138.525 11.1306L144.682 0L144.389 12.7132ZM141.105 13.2671C144.655 14.1902 147.487 16.4981 149.163 19.4126C150.878 22.3008 151.437 25.9011 150.506 29.4223C149.535 32.9039 147.261 35.7261 144.31 37.4273C141.358 39.089 137.781 39.6825 134.231 38.7198C130.68 37.7966 127.848 35.5019 126.173 32.5742C124.457 29.6465 123.899 26.0857 124.83 22.5645C125.8 19.0829 128.074 16.2607 131.026 14.5595C133.978 12.8978 137.555 12.3043 141.105 13.2671Z" fill="#E30613"/>
<path fill-rule="evenodd" clip-rule="evenodd" d="M143.791 19.9533L136.172 24.5163L139.164 27.5232L143.791 19.9533Z" fill="#878787"/>
<path fill-rule="evenodd" clip-rule="evenodd" d="M129.218 34.2095L135.507 23.857L145.945 17.6191C144.536 16.2475 142.767 15.2189 140.746 14.6914C137.608 13.8341 134.403 14.3617 131.784 15.8387C129.165 17.3553 127.117 19.8478 126.253 22.9866C125.428 26.0989 125.92 29.2904 127.449 31.8752C127.928 32.7193 128.526 33.4973 129.218 34.2095Z" fill="#878787"/>
<path fill-rule="evenodd" clip-rule="evenodd" d="M147.9 20.1248C147.408 19.2808 146.809 18.5027 146.118 17.7905L139.828 28.1431L129.404 34.3809C130.813 35.7525 132.582 36.7811 134.603 37.3087C137.781 38.1659 140.945 37.6384 143.565 36.1613C146.184 34.6447 148.232 32.1522 149.096 29.0135C149.907 25.9011 149.429 22.7228 147.9 20.1248Z" fill="#E30613"/>
<path d="M8.76255 12.6208H25.9419L21.421 37.9549H14.8923L18.4293 18.1202H13.9084L12.1266 26.0066C11.2889 30.3454 9.05508 36.6493 1.72858 38.4164L0 34.0776C4.37463 32.0467 4.66716 29.8443 5.691 25.8615L8.76255 12.6208ZM34.771 38.3901C29.8778 38.3901 26.4206 35.3832 26.4206 30.4246C26.4206 23.8042 32.0052 19.0961 38.2015 19.0961C43.1612 19.0961 46.5918 22.2744 46.5918 27.2067C46.5918 33.7875 41.0869 38.3901 34.771 38.3901ZM35.4358 33.0621C37.6298 33.0621 40.0764 31.651 40.4354 28.209C40.7279 25.5714 39.345 24.5164 37.2309 24.5164C35.1566 24.5164 32.9227 26.4286 32.5903 29.3695C32.2978 31.9016 33.7205 33.0621 35.4358 33.0621ZM65.7125 37.9549H59.0375L55.833 31.0444L54.8889 31.7302L53.7986 37.9549H47.7087L50.9531 19.6105H57.043L55.8729 26.2308C56.458 24.9252 58.2397 23.1844 58.6785 22.7624L61.7102 19.6105H68.6112L68.5447 20.0457L60.7395 27.1803L65.8056 37.5328L65.7125 37.9549ZM76.1105 38.3901C71.2173 38.3901 67.7602 35.3832 67.7602 30.4246C67.7602 23.8042 73.3448 19.0961 79.5411 19.0961C84.5008 19.0961 87.9313 22.2744 87.9313 27.2067C87.9313 33.7875 82.4265 38.3901 76.1105 38.3901ZM76.7754 33.0621C78.9693 33.0621 81.4159 31.651 81.7749 28.209C82.0675 25.5714 80.6846 24.5164 78.5704 24.5164C76.4961 24.5164 74.2623 26.4286 73.9299 29.3695C73.6373 31.9016 75.0601 33.0621 76.7754 33.0621Z" fill="white"/>
</g>
<defs>
<clipPath id="clip0">
<rect width="218" height="52" fill="white"/>
</clipPath>
</defs>
</svg>
