<svg width="765" height="394" viewBox="0 0 765 394" fill="none" xmlns="http://www.w3.org/2000/svg">
<path d="M58.218 2.3231C77.5628 10.1768 88.9102 31.755 92.0278 38.9565C95.9249 47.9585 38.7588 41.6581 43.0311 65.2025C46.345 83.4652 90.7352 72.3741 102.734 73.0095C70.9508 80.8095 10.985 100.661 25.3888 117.669C43.3936 138.928 8.75472 163.45 7.98049 163.594C7.98049 163.594 -14.0315 199.994 24.858 205.368C36.5566 206.984 92.3034 160.709 127.863 169.56C126.655 160.822 165.413 170.188 188.706 166.327C204.304 144.176 264.088 141.765 315.877 215.107C359.923 239.545 368.959 251.454 464.511 242.893C466.562 248.995 482.368 260.009 502.158 256.797C542.24 227.194 660.171 205.327 741.36 316.87C753.253 324.199 786.357 382.669 733.388 392.491" stroke="#48DFFF" stroke-width="3" stroke-linecap="round" stroke-dasharray="8 8"/>
</svg>
